<?xml version="1.0" encoding="utf-8"?>
<!-- Generator: Adobe Illustrator 28.4.1, SVG Export Plug-In . SVG Version: 6.00 Build 0)  -->
<svg version="1.1" id="Layer_1" xmlns="http://www.w3.org/2000/svg" xmlns:xlink="http://www.w3.org/1999/xlink" x="0px" y="0px"
	 viewBox="0 0 258.72 161.89" style="enable-background:new 0 0 258.72 161.89;" xml:space="preserve">
<style type="text/css">
	.st0{fill:#958169;}
	.st1{fill:#FFFFFF;}
</style>
<g>
	<path class="st0" d="M130.3,23.75l8.78,17.79c0.15,0.29,0.42,0.5,0.75,0.54l19.63,2.85c0.81,0.12,1.14,1.12,0.55,1.69l-14.21,13.85
		c-0.24,0.23-0.34,0.56-0.29,0.88l3.35,19.56c0.14,0.81-0.71,1.43-1.44,1.05l-17.56-9.23c-0.29-0.15-0.63-0.15-0.92,0l-17.56,9.23
		c-0.73,0.38-1.58-0.24-1.44-1.05l3.36-19.56c0.05-0.32-0.05-0.65-0.29-0.88L98.81,46.63c-0.59-0.57-0.26-1.57,0.55-1.69l19.63-2.85
		c0.32-0.05,0.6-0.25,0.75-0.54l8.78-17.79C128.89,23.01,129.94,23.01,130.3,23.75"/>
	<path class="st1" d="M129.41,27.85l-7.82,15.16c-0.41,0.79-1.2,1.33-2.09,1.41l-16.99,1.55l17.95,0.84
		c1.14,0.05,2.18-0.64,2.58-1.71L129.41,27.85z"/>
	<path class="st0" d="M198.09,35.72l7.3,14.78c0.12,0.24,0.35,0.41,0.62,0.45l16.32,2.37c0.68,0.1,0.95,0.93,0.46,1.41l-11.81,11.51
		c-0.2,0.19-0.28,0.46-0.24,0.73l2.79,16.25c0.11,0.67-0.59,1.19-1.2,0.87l-14.59-7.67c-0.24-0.13-0.53-0.13-0.77,0l-14.59,7.67
		c-0.6,0.32-1.31-0.2-1.2-0.87l2.79-16.25c0.05-0.27-0.04-0.54-0.24-0.73l-11.81-11.51c-0.49-0.48-0.22-1.31,0.46-1.41l16.32-2.37
		c0.27-0.04,0.5-0.21,0.62-0.45l7.3-14.78C196.91,35.11,197.78,35.11,198.09,35.72"/>
	<path class="st1" d="M197.35,39.14l-6.5,12.59c-0.34,0.66-0.99,1.1-1.74,1.17l-14.12,1.29l14.92,0.7c0.95,0.04,1.81-0.53,2.14-1.42
		L197.35,39.14z"/>
	<path class="st0" d="M61.84,35.72l7.3,14.78c0.12,0.24,0.35,0.41,0.62,0.45l16.32,2.37c0.68,0.1,0.95,0.93,0.46,1.41L74.72,66.24
		c-0.2,0.19-0.28,0.46-0.24,0.73l2.79,16.25c0.11,0.67-0.59,1.19-1.2,0.87l-14.59-7.67c-0.24-0.13-0.53-0.13-0.77,0l-14.59,7.67
		c-0.6,0.32-1.31-0.2-1.2-0.87l2.79-16.25c0.05-0.27-0.04-0.54-0.24-0.73L35.67,54.73c-0.49-0.48-0.22-1.31,0.46-1.41l16.32-2.37
		c0.27-0.04,0.5-0.21,0.62-0.45l7.3-14.78C60.66,35.11,61.54,35.11,61.84,35.72"/>
	<path class="st1" d="M61.1,39.14l-6.5,12.59c-0.34,0.66-1,1.1-1.74,1.17l-14.12,1.29l14.92,0.7c0.95,0.04,1.81-0.53,2.14-1.42
		L61.1,39.14z"/>
	<path d="M45.24,103.3c-2.77,0-4.6,1.01-4.6,3.02c0,7.3,23.23,3.15,23.23,19.01c0,9-7.93,13.6-17.75,13.6
		c-7.37,0-15.05-2.71-20.33-7.05l4.47-9c4.53,3.9,11.39,6.67,15.99,6.67c3.4,0,5.54-1.26,5.54-3.59c0-7.49-23.23-2.96-23.23-18.57
		c0-8.25,6.99-13.47,17.63-13.47c6.48,0,13.03,2.01,17.63,4.97l-4.35,9.13C54.81,105.38,48.89,103.3,45.24,103.3"/>
</g>
<polygon points="103.73,94.42 103.73,103.93 90.51,103.93 90.51,138.56 78.98,138.56 78.98,103.93 65.89,103.93 65.89,94.42 "/>
<path d="M129.6,121.94l-6.04-15.74l-6.17,15.74H129.6z M133,130.75h-19.08l-3.08,7.81H99.01l18.95-44.13h11.84l18.51,44.13h-12.28
	L133,130.75z"/>
<g>
	<path d="M163.79,117.15h8.37c4.66,0,7.37-2.39,7.37-6.86c0-4.34-2.71-6.67-7.37-6.67h-8.37V117.15z M178.77,138.56l-6.42-12.21
		h-0.25h-8.31v12.21h-11.52V94.42h19.83c11.71,0,18.38,5.67,18.38,15.49c0,6.67-2.77,11.58-7.87,14.23l9.19,14.42H178.77z"/>
	<path d="M214.03,103.3c-2.77,0-4.6,1.01-4.6,3.02c0,7.3,23.23,3.15,23.23,19.01c0,9-7.93,13.6-17.75,13.6
		c-7.37,0-15.05-2.71-20.33-7.05l4.47-9c4.53,3.9,11.4,6.67,15.99,6.67c3.4,0,5.54-1.26,5.54-3.59c0-7.49-23.23-2.96-23.23-18.57
		c0-8.25,6.99-13.47,17.63-13.47c6.48,0,13.03,2.01,17.63,4.97l-4.35,9.13C223.6,105.38,217.68,103.3,214.03,103.3"/>
</g>
</svg>
