<?xml version="1.0" encoding="utf-8"?>
<!-- Generator: Adobe Illustrator 28.4.1, SVG Export Plug-In . SVG Version: 6.00 Build 0)  -->
<svg version="1.1" id="Layer_1" xmlns="http://www.w3.org/2000/svg" xmlns:xlink="http://www.w3.org/1999/xlink" x="0px" y="0px"
	 viewBox="0 0 201 207.89" style="enable-background:new 0 0 201 207.89;" xml:space="preserve">
<style type="text/css">
	.st0{fill:none;stroke:#FFFFFF;stroke-width:5.2913;stroke-linecap:round;stroke-linejoin:round;}
	.st1{fill:#CF122D;}
</style>
<path class="st0" d="M107.13,96.39c1.47-1.58,2.67-3.42,3.52-5.45c0.27-0.31,0.75-0.61,1.64-0.68c0.03,0,0.09,0,0.15,0v17.56
	C111.38,103.39,109.56,99.61,107.13,96.39z"/>
<path d="M161.28,83.86l-1.77-1.88l-3.52-3.55c-0.41-0.42-1.49-0.76-1.49-0.76l-5.6,2.09l-1.89-1.93l-1.89,1.93l-3.78-2.09l-2.2,0.97
	l-3.94-0.97l-3.33,1.53l-2.4-1.53h-5.81h-2.82c-1.02,0-1.15-0.9-1.15-0.9s0.07-1.04-1.09-2.36c-1.15-1.32-2.58-0.27-2.58-0.27
	l-2.31,1.6c0,0-1.02,0.69-1.56,0.76c-1.14,0.15-2.37-2.02-2.37-2.02l-0.03,0.18c-3.09-5.55-8.91-9.29-15.58-9.29
	c-3.29,0-6.36,0.91-9.01,2.49l5.31,11.55v10.27l-4.27,5.12l-5.52,0.97c3.28,3.85,8.11,6.29,13.5,6.29c7.39,0,13.74-4.59,16.47-11.13
	c0.27-0.31,0.76-0.62,1.64-0.68c1.9-0.14,44.03,0,44.03,0l0.95-0.69c0,0,3.48-3.12,3.66-3.68
	C161.68,85.46,161.28,83.86,161.28,83.86"/>
<polyline points="130.77,90.11 130.77,152.73 112.44,152.73 112.44,90.11 80.76,90.11 75.12,83.16 79.87,75.91 112.44,75.91 
	112.44,29.27 130.77,29.27 130.77,29.39 171.86,29.39 171.86,44.33 130.77,44.33 130.77,75.91 "/>
<path class="st1" d="M65.41,156.3c-13.61,0-36.54-6.53-36.54-24.02c0-8.3,5.17-13.77,13.27-13.77c5.86,0,10.69,1.59,15.17,5.47
	c-1.04,2.29-1.55,4.77-1.55,7.24c0,9.53,3.97,16.95,14.13,16.95c12.59,0,17.42-11.65,17.42-22.96c0-17.66-12.41-28.25-29.14-28.25
	c-4.13,0-7.93,0.71-11.89,1.94L43,94.14c3.62-3.36,11.38-11.66,16.03-12.54c11.38-2.29,22.93-5.3,22.93-20.13
	c0-10.77-8.79-15.01-18.1-15.01c-11.72,0-18.1,6.36-26.55,13.42l-4.65-4.77C44.72,40.1,57.31,29.33,77.47,29.33
	c14.31,0,31.37,7.77,31.37,24.72c0,17.31-18.44,23.84-32.06,27.02v0.35c20.34,2.65,36.72,12.89,36.72,35.85
	C113.5,143.94,88.34,156.3,65.41,156.3"/>
<path d="M37.84,172.71c1.96,0,3.53-1.68,3.53-3.86c0-2.18-1.57-3.82-3.53-3.82c-1.96,0-3.6,1.64-3.6,3.82
	C34.23,171.03,35.89,172.71,37.84,172.71 M45.52,177.25c-1.01,0.92-2.5,1.49-3.81,1.49c-1.83,0-3.38-1.16-4.21-3.04
	c-3.9-0.15-6.77-3.04-6.77-6.86c0-3.9,3.02-6.79,7.07-6.79s7.07,2.91,7.07,6.79c0,2.97-1.72,5.36-4.31,6.37
	c0.44,0.53,0.95,0.88,1.53,0.88c0.6,0,1.44-0.38,2.24-0.99L45.52,177.25z"/>
<path d="M56.5,165.2v10.34h-3.32v-1.68c-0.69,1.2-1.79,1.82-3.23,1.84c-2.18,0-3.6-1.55-3.6-3.96v-6.54h3.32v5.56
	c0,1.17,0.63,1.87,1.62,1.87c1.18-0.02,1.88-0.97,1.88-2.33v-5.1H56.5z"/>
<path d="M62.34,175.54h-3.3V165.2h3.3V175.54z M62.45,162.26c0,1.07-0.73,1.82-1.76,1.82c-1.02,0-1.76-0.74-1.76-1.82
	c0-1.07,0.73-1.81,1.76-1.81C61.72,160.44,62.45,161.19,62.45,162.26"/>
<path d="M75.19,169.02v6.52h-3.3V170c0-1.16-0.67-1.89-1.72-1.89c-1.12,0.02-1.85,0.8-1.98,1.97v5.47h-3.32V165.2h3.32v1.68
	c0.71-1.18,1.87-1.81,3.34-1.81C73.74,165.07,75.19,166.6,75.19,169.02"/>
<path d="M81.99,167.9c-1.19,0-2.01,1.01-2.01,2.5c0,1.51,0.82,2.51,2.01,2.51c0.88,0,1.57-0.36,1.98-1.17l2.45,1.43
	c-0.8,1.59-2.45,2.48-4.59,2.48c-3.12,0-5.19-2.08-5.19-5.24c0-3.21,2.09-5.33,5.22-5.33c2.03,0,3.64,0.9,4.52,2.44l-2.41,1.43
	C83.52,168.3,82.85,167.9,81.99,167.9"/>
<path d="M93.48,172.05v-0.9h-1.98c-0.94,0-1.4,0.34-1.4,1.07c0,0.71,0.5,1.16,1.36,1.16C92.46,173.38,93.28,172.83,93.48,172.05
	 M96.75,168.81v6.73h-3.27v-1.17c-0.65,0.86-1.68,1.32-3.04,1.32c-2.17,0-3.45-1.34-3.45-3.23c0-1.97,1.36-3.1,3.86-3.14h2.63v-0.11
	c0-0.97-0.65-1.55-1.92-1.55c-0.84,0-1.94,0.29-3.02,0.82l-0.91-2.29c1.59-0.73,3.04-1.13,4.7-1.13
	C95.11,165.07,96.73,166.44,96.75,168.81"/>
<path d="M102.29,175.54h-3.3V165.2h3.3V175.54z M102.4,162.26c0,1.07-0.73,1.82-1.76,1.82c-1.02,0-1.75-0.74-1.75-1.82
	c0-1.07,0.73-1.81,1.75-1.81C101.68,160.44,102.4,161.19,102.4,162.26"/>
<rect x="104.92" y="161.36" width="3.32" height="14.19"/>
<rect x="110.97" y="161.36" width="3.32" height="14.19"/>
<path d="M123.25,169.47c0-1.19-0.75-1.99-1.87-1.99c-1.08,0-1.79,0.8-2.01,1.99H123.25z M126.46,171.28h-7.02
	c0.32,1.17,1.16,1.82,2.3,1.82c0.86,0,1.7-0.36,2.37-1.05l1.74,1.78c-1.03,1.18-2.54,1.83-4.4,1.83c-3.31,0-5.34-2.08-5.34-5.24
	c0-3.21,2.11-5.33,5.26-5.33C124.89,165.09,126.68,167.51,126.46,171.28"/>
<path d="M134.74,165.07v3.12c-1.85-0.19-3.08,0.65-3.25,2.08v5.28h-3.32V165.2h3.32v1.72C132.19,165.74,133.33,165.07,134.74,165.07
	"/>
<path d="M139.5,175.54h-3.3V165.2h3.3V175.54z M139.62,162.26c0,1.07-0.73,1.82-1.76,1.82c-1.02,0-1.75-0.74-1.75-1.82
	c0-1.07,0.73-1.81,1.75-1.81C138.89,160.44,139.62,161.19,139.62,162.26"/>
<path d="M148.37,169.47c0-1.19-0.75-1.99-1.87-1.99c-1.08,0-1.79,0.8-2.01,1.99H148.37z M151.58,171.28h-7.02
	c0.32,1.17,1.16,1.82,2.3,1.82c0.86,0,1.7-0.36,2.37-1.05l1.74,1.78c-1.03,1.18-2.54,1.83-4.4,1.83c-3.31,0-5.34-2.08-5.34-5.24
	c0-3.21,2.11-5.33,5.27-5.33C150.01,165.09,151.8,167.51,151.58,171.28"/>
</svg>
