<?xml version="1.0" encoding="utf-8"?>
<!-- Generator: Adobe Illustrator 28.4.1, SVG Export Plug-In . SVG Version: 6.00 Build 0)  -->
<svg version="1.1" id="Layer_1" xmlns="http://www.w3.org/2000/svg" xmlns:xlink="http://www.w3.org/1999/xlink" x="0px" y="0px"
	 viewBox="0 0 201 207.89" style="enable-background:new 0 0 201 207.89;" xml:space="preserve">
<style type="text/css">
	.st0{fill:none;stroke:#20A9D6;stroke-width:0.8815;}
	.st1{fill:#20A9D6;}
</style>
<g>
	<path class="st0" d="M195.38,92.38c0,2.27-1.8,4.11-4.02,4.11c-2.22,0-4.02-1.83-4.02-4.11c0-2.27,1.8-4.12,4.02-4.12
		C193.58,88.26,195.38,90.1,195.38,92.38z"/>
	<path class="st1" d="M189.47,94.93h1.01v-1.97h1.06c0.76,0,0.8,0.27,0.8,0.95c0,0.52,0.04,0.78,0.11,1.02h1.14V94.8
		c-0.22-0.08-0.22-0.27-0.22-1c0-0.94-0.22-1.09-0.62-1.28c0.49-0.17,0.76-0.64,0.76-1.2c0-0.44-0.24-1.43-1.55-1.43h-2.48V94.93z
		 M190.47,92.11v-1.35h1.28c0.61,0,0.72,0.39,0.72,0.66c0,0.5-0.26,0.69-0.79,0.69H190.47z"/>
	<path class="st1" d="M180.1,119.63c-1.46,0-2.93-0.07-4.36-0.14c-1.25-0.06-2.43-0.12-3.61-0.13c0.46-3.56,0.75-8.01-0.74-11.63
		l-0.05-0.11l-0.07-0.1c-0.57-0.72-1.33-1.13-2.08-1.13c-0.35,0-0.69,0.08-1.02,0.25c-2.13,1.01-2.07,3.37-2.02,5.27
		c0.01,0.3,0.01,0.59,0.01,0.88c-0.07,1.34,0.28,2.57,0.61,3.77c0.27,0.96,0.52,1.88,0.55,2.82c-1.14,0.04-2.08,0.05-2.95,0.05
		c-2.14,0-3.99-0.11-5.76-0.35c-0.07-0.96-0.03-1.94,0.02-2.96c0.08-1.91,0.16-3.88-0.51-5.85l-0.03-0.08l-0.04-0.08
		c-0.4-0.68-1.28-1.4-2.29-1.4c-0.39,0-0.77,0.11-1.09,0.33l-0.09,0.06l-0.07,0.09c-2.43,2.78-1.75,7.34-1,10.17
		c-0.86,0.01-1.74,0.02-2.63,0.03c-1.06,0.02-2.14,0.03-3.21,0.03c-2.32,0-4.08-0.08-5.64-0.26c2.08-9.52,1.91-18.97-0.49-27.37
		c-0.06-0.33-0.2-0.67-0.35-1.03l-0.33-0.99l0.21-0.05l0.76-0.1c4.47-0.56,8.68-1.09,13.37-1.09c0.28,0,0.56,0,0.84,0l-0.25,0.43
		c-0.24,0.4-0.51,0.85-0.6,1.39c-0.88,3.15,1.07,5.97,3.02,7.44c1.82,1.5,4.01,2.33,6.13,2.33c0.63,0,1.26-0.08,1.86-0.22l0.04-0.01
		l0.04-0.01c1.96-0.72,3.59-2.32,4.47-4.4l0.03-0.06l0.02-0.07c0.47-1.94-0.04-3.67-0.49-5.19c-0.15-0.5-0.29-0.98-0.39-1.44
		c0.61-0.13,1.27-0.2,2-0.2c1.08,0,2.2,0.14,3.29,0.28c1.1,0.13,2.23,0.28,3.35,0.28l2.77,0.62c0.35,0.16,0.45,0.41,0.64,1.06
		c0.12,0.39,0.25,0.83,0.51,1.25c3.35,9.8,2.19,20.19,0.61,27.23l-0.2,0.3C182.04,119.6,181.12,119.63,180.1,119.63"/>
	<path class="st1" d="M83.2,119.43c-4.4,0-8.85-0.09-13.16-0.17c-4.27-0.08-8.68-0.17-13.04-0.17l-0.42-0.06l-0.13-0.02
		c2.1-9.61,1.85-19.95-0.69-28.57c1.01-0.46,2.28-0.55,3.62-0.66c0.9-0.07,1.83-0.14,2.75-0.32l2.29-0.18
		c3.87-0.31,7.87-0.63,11.82-0.63c4.55,0,8.4,0.44,11.76,1.34c1.22,2.5,1.95,5.22,2.14,7.92h-9.47l-0.04-0.01v-0.81
		c0.05-0.78,0.13-1.96-0.87-2.68c-0.97-0.78-2.19-1.18-3.7-1.18c-1.03,0-2.05,0.18-3.09,0.38l-0.1,0.02l-0.1,0.05
		c-1.34,0.65-4.46,2.49-4.46,5.76v0.47l1.35,0.92l8.08,0.36l-0.21,0.33c-0.2,0.31-0.44,0.66-0.58,1.07l-2.06,3.34l-0.44-0.31
		c-0.4-0.31-0.9-0.7-1.59-0.79c-0.31-0.05-0.66-0.08-1-0.08c-1.58,0-2.9,0.61-3.75,1.73l-0.05,0.07c-0.84,1.37-1.16,2.59-1.02,3.96
		l0.01,0.09l0.02,0.09c0.76,2.45,3.04,3.96,6.27,4.14l0.07,0.01l0.06-0.01c2.25-0.22,6.43-0.63,7.4-4.58
		c0.32-1.55-0.22-2.61-0.66-3.46l-0.16-0.31l10.84,0.12c0.2,0.52,0.14,1.16,0.03,2.12c-0.05,0.52-0.12,1.1-0.12,1.72
		c-0.12,2.88-0.34,6.18-1.49,8.94C87.37,119.41,85.37,119.43,83.2,119.43"/>
	<path class="st1" d="M30.34,119.62c-1.56-0.07-3.13-0.11-4.7-0.16c-3.88-0.1-7.9-0.21-11.59-0.78c2.04-9.09,1.6-19.49-1.19-28.05
		l0.85-0.23l0.18-0.04c7.2-1,12.75-1.45,17.93-1.45c4.82,0,9.11,0.4,13.11,1.23c1.37,3.05,2.29,6.71,2.73,10.9l-11.19-0.11
		c0.68-1.77,1.47-4.23-0.32-5.93c-0.66-0.67-1.59-1.06-2.6-1.06c-0.59,0-1.18,0.14-1.69,0.4c-4.35,2.16-7.36,6.73-8.26,12.55
		c-0.57,2.78,0.6,5.77,2.92,7.4c0.99,0.76,2.38,1.2,3.79,1.2c1.1,0,2.14-0.27,3-0.77c1.37-0.71,2.67-2.13,3.28-3.63
		c0.59-1.05,0.03-2.1-0.34-2.8l-0.19-0.37l0.08-0.01h11.66c0.24,0.72,0.13,1.8,0.05,2.56c-0.24,2.73-0.59,5.8-1.34,8.22
		c-4.15,0.75-8.46,0.81-13.02,0.88C32.46,119.58,31.4,119.59,30.34,119.62"/>
	<path class="st1" d="M116.44,92.27l-0.45,0.02l-0.07,0l-0.07,0.02c-5.06,1.22-7.85,6.27-8.69,10.21l-0.02,0.1v0.09
		c0,1.75,0.12,3.6,1.5,5.17c1.35,1.69,3.32,1.98,5.05,2.12l0.06,0.01l0.06,0c4.86-0.3,7.2-5.47,8.55-9.35
		c0.58-2.21,0.08-4.62-1.29-6.34l-0.04-0.06l-0.05-0.05C119.54,92.9,118.06,92.27,116.44,92.27 M126.51,119.23
		c-1.17,0-2.32-0.04-3.43-0.12c-0.14-0.13-0.17-0.42-0.14-1.19c0.03-0.74,0.06-1.57-0.39-2.3c-0.93-1.99-3.09-3.99-5.85-3.99
		l-0.31,0c-2.56,0.15-4.67,1.3-6.11,3.32c-0.69,0.75-0.76,1.77-0.82,2.58c-0.06,0.95-0.14,1.19-0.35,1.3
		c-1.61,0.05-3.21,0.08-4.75,0.08c-2.23,0-4.29-0.05-6.12-0.16c1.94-9.66,1.42-20.04-1.39-28.02c0.25-0.15,0.66-0.21,1.29-0.27
		c0.45-0.04,0.92-0.09,1.37-0.23c6.14-0.85,11.95-1.29,17.27-1.29c4.92,0,9.56,0.37,13.81,1.09c3.54,6.53,3.57,15.28,3.27,21.35
		c-0.06,0.47-0.13,0.94-0.19,1.42c-0.27,2.05-0.54,4.16-1.14,6.1C130.5,119.12,128.48,119.23,126.51,119.23"/>
</g>
</svg>
