<?xml version="1.0" encoding="utf-8"?>
<!-- Generator: Adobe Illustrator 28.4.1, SVG Export Plug-In . SVG Version: 6.00 Build 0)  -->
<svg version="1.1" id="Layer_1" xmlns="http://www.w3.org/2000/svg" xmlns:xlink="http://www.w3.org/1999/xlink" x="0px" y="0px"
	 viewBox="0 0 332.32 116.8" style="enable-background:new 0 0 332.32 116.8;" xml:space="preserve">
<style type="text/css">
	.st0{fill:#4D4D4D;}
	.st1{fill:#911828;}
	.st2{fill:#808080;}
	.st3{fill:#FFFFFF;}
</style>
<g id="XMLID_00000150082287571597554040000017967730142916311736_">
	<g id="XMLID_00000085939721161275015380000011506510638575669416_">
		<path id="XMLID_00000168833358496132098690000016594530868106113928_" class="st0" d="M110.76,77.87v9.81h13.06v-9.81h2.48v21.67
			h-2.48v-9.6h-13.06v9.6h-2.48V77.87H110.76z"/>
		<path id="XMLID_00000096023410395336873860000016494914050776895668_" class="st0" d="M147.66,93.99h-11.79l-2.41,5.54h-2.63
			l9.72-21.67h2.57l9.69,21.67h-2.69L147.66,93.99z M146.67,91.7l-4.92-11.14l-4.86,11.14H146.67z"/>
		<path id="XMLID_00000062901742264308839420000007983115499478120890_" class="st0" d="M171.49,99.53l-4.55-6.93
			c-0.43,0.03-0.9,0.06-1.39,0.06h-5.76v6.87h-2.48V77.87h8.23c5.42,0,8.54,2.66,8.54,7.27c0,3.56-1.76,6-4.89,7l5.11,7.4H171.49z
			 M165.55,90.37c3.93,0,6.16-1.76,6.16-5.17c0-3.31-2.23-5.04-6.16-5.04h-5.76v10.21H165.55z"/>
		<path id="XMLID_00000067946740891609935980000002530382948088581549_" class="st0" d="M200.71,88.7c0,6.16-4.86,10.83-11.24,10.83
			h-8.67V77.87h8.76C195.88,77.87,200.71,82.54,200.71,88.7z M198.2,88.73c0-4.89-3.84-8.57-8.7-8.57h-6.22v17.09h6.31
			C194.43,97.24,198.2,93.59,198.2,88.73z"/>
		<path id="XMLID_00000008138181564426342290000010739217268108115864_" class="st0" d="M229.62,77.87v2.29h-7.09v19.38h-2.48V80.16
			H213v-2.29H229.62z"/>
		<path id="XMLID_00000011718540970428879230000013930909154023933855_" class="st0" d="M248.5,99.53l-4.55-6.93
			c-0.43,0.03-0.9,0.06-1.39,0.06h-5.76v6.87h-2.48V77.87h8.23c5.42,0,8.54,2.66,8.54,7.27c0,3.56-1.76,6-4.89,7l5.11,7.4H248.5z
			 M242.56,90.37c3.93,0,6.16-1.76,6.16-5.17c0-3.31-2.23-5.04-6.16-5.04h-5.76v10.21H242.56z"/>
		<path id="XMLID_00000153697392094476064740000004608549457846636454_" class="st0" d="M271.5,93.99h-11.79l-2.42,5.54h-2.63
			l9.72-21.67h2.57l9.69,21.67h-2.69L271.5,93.99z M270.51,91.7l-4.92-11.14l-4.86,11.14H270.51z"/>
		<path id="XMLID_00000067919180151261289640000006840020689450755203_" class="st0" d="M301.06,88.7c0,6.16-4.86,10.83-11.24,10.83
			h-8.67V77.87h8.76C296.23,77.87,301.06,82.54,301.06,88.7z M298.55,88.73c0-4.89-3.84-8.57-8.7-8.57h-6.22v17.09h6.31
			C294.78,97.24,298.55,93.59,298.55,88.73z"/>
		<path id="XMLID_00000179622972029902082880000005777193958379219389_" class="st0" d="M321.4,77.87v2.29h-12.23v7.27h10.93v2.26
			h-10.93v7.55h12.63v2.29h-15.1V77.87H321.4z"/>
	</g>
	<g id="XMLID_00000123428181924692832490000018127177682793149109_">
		<path id="XMLID_00000096030124375209019850000016342965021067995327_" class="st1" d="M121.63,15.27v21.11h20.88V15.27h13.5V67
			h-13.5V47.15h-20.88V67h-13.5V15.27H121.63z"/>
		<path id="XMLID_00000142136726834202999650000001240363649337414802_" class="st1" d="M200.51,57.85h-22.36L174.54,67h-13.87
			l22.21-51.73h13.87L218.44,67h-14.39L200.51,57.85z M196.53,47.52l-7.08-18.45l-7.23,18.45H196.53z"/>
		<path id="XMLID_00000172399152211047934110000011506492361631750277_" class="st1" d="M228.41,15.27l12.91,37.41l12.99-37.41
			h13.87L247.96,67h-14.02l-20.07-51.73H228.41z"/>
		<path id="XMLID_00000173159162437859716250000000122934750860172960_" class="st1" d="M303.45,57.85h-22.36L277.48,67H263.6
			l22.21-51.73h13.87L321.39,67H307L303.45,57.85z M299.47,47.52l-7.08-18.45l-7.23,18.45H299.47z"/>
	</g>
	<g id="XMLID_00000004528819225658338200000009911149897697432209_">
		<path id="XMLID_00000084506211870726573880000000962169342025065910_" class="st2" d="M91.47,101.53H15.25
			c-2.61,0-4.73-2.12-4.73-4.73V20.58c0-2.61,2.12-4.73,4.73-4.73h76.22c2.61,0,4.73,2.12,4.73,4.73V96.8
			C96.2,99.41,94.08,101.53,91.47,101.53z"/>
		<g id="XMLID_00000127031774443084647480000014349859200488036738_">
			<path id="XMLID_00000099629025259255382870000009215200671804269994_" class="st3" d="M88.52,52.3
				c-1.5-7.28-5.07-14.3-10.91-19.96c1.37,0.6,2.63,1.41,3.77,2.47c0.32,0.46,0.66,1.01,1.25,2.01c0.89,1.15,1.7,2.36,2.45,3.6
				c-1-2.27-1.03-2.31-2.48-4.35l-0.57-0.69c-0.3-0.35-0.66-0.74-1.02-1.13c-0.37-0.4-0.73-0.79-1.06-1.11
				c-1.47-1.29-3.04-2.24-4.72-2.9c-2.35-1.91-4.98-3.65-7.95-5.12c-2.56-1.06-5.18-1.81-7.82-2.27c5.95,1.29,11.01,3.83,15.21,7.19
				c-3.02-1.05-6.4-1.17-10.14-0.57c-5.23-3.5-11.13-5.59-17.4-5.42c3.09-1.27,5.26-1.64,6.75-1.75c1.19,0.03,2.39,0.11,3.58,0.24
				c-0.56-0.12-1.34-0.2-1.91-0.27l-1.87-0.06l-1.61,0.03c-1.31,0.12-3.53,0.34-7.23,1.98c-2.12,0.24-4.27,0.75-6.47,1.55
				c1.97-0.68,3.93-1.1,5.87-1.28c-2.18,1.01-4.85,2.49-8.09,4.7c-3.3,0.35-6,1.67-8.24,3.36c2.13-1.51,4.58-2.53,7.38-2.77
				c-2.19,1.53-4.63,3.37-7.34,5.59c-1.2,0.06-2.37,0.45-3.48,1.21c0.89-0.51,1.82-0.72,2.82-0.67c-1.67,1.38-3.43,2.9-5.31,4.57
				c-0.21-0.08-0.42-0.09-0.62-0.02c0.77-1.15,1.55-2.24,2.34-3.28c0.26-0.22,0.52-0.42,0.78-0.6c-0.22,0.13-0.44,0.28-0.65,0.44
				c1.02-1.32,2.05-2.54,3.1-3.67c0.32-0.27,0.65-0.54,0.99-0.8c-0.29,0.21-0.58,0.44-0.86,0.66c1.06-1.14,2.14-2.17,3.23-3.1
				c0.26-0.19,0.53-0.4,0.8-0.59c-0.18,0.12-0.36,0.24-0.53,0.36l0.01,0c-0.01,0-0.01,0-0.02,0c-0.1,0.08-0.21,0.14-0.32,0.21
				l-1.68,1.37c-0.06,0.05-0.11,0.11-0.16,0.16c0.12-0.11,0.26-0.23,0.4-0.35c0.3-0.24,0.62-0.49,0.95-0.75
				c-0.58,0.47-1.15,0.95-1.7,1.46c-0.58,0.6-1.18,1.24-1.81,1.94c-0.42,0.38-0.83,0.77-1.23,1.19c0.15-0.2,0.3-0.38,0.48-0.58
				c-0.25,0.28-0.5,0.55-0.73,0.84c-0.31,0.34-0.63,0.7-0.92,1.06c0.16-0.19,0.33-0.37,0.51-0.56c-0.54,0.66-1.06,1.37-1.59,2.17
				c-0.19,0.22-0.37,0.45-0.56,0.69c0.25-0.38,0.55-0.83,0.95-1.41c-0.43,0.58-0.73,1.02-1.01,1.49c-0.08,0.1-0.16,0.19-0.23,0.29
				c0.05-0.07,0.12-0.14,0.17-0.21c-0.02,0.04-0.05,0.08-0.07,0.12c0.03-0.05,0.06-0.1,0.1-0.14c0.16-0.22,0.33-0.42,0.5-0.62
				c-0.37,0.56-0.74,1.15-1.13,1.82c0.39-0.64,0.83-1.3,1.28-1.97c0.19-0.19,0.38-0.4,0.57-0.58c-0.65,0.88-1.31,1.86-2.02,2.95
				c-0.03,0.02-0.06,0.03-0.1,0.05c0.09-0.15,0.18-0.3,0.27-0.45c-0.1,0.16-0.19,0.31-0.29,0.47c-0.01,0.01-0.03,0.01-0.06,0.02
				c0.35-0.64,0.63-1.13,0.87-1.55c-0.37,0.57-0.62,1.01-0.93,1.59c-0.01,0.01-0.03,0.02-0.03,0.03c0.23-0.45,0.47-0.91,0.7-1.29
				c0.06-0.08,0.11-0.16,0.17-0.24c-0.04,0.05-0.07,0.09-0.11,0.14l-0.09,0.14l-0.06,0.09c-0.2,0.36-0.42,0.77-0.64,1.19
				c-0.07,0.06-0.14,0.12-0.21,0.19l-0.1,0.18c-0.1,0.25-0.21,0.59-0.27,0.84c0.08-0.27,0.19-0.6,0.31-0.88
				c0.06-0.06,0.11-0.1,0.17-0.14c-0.18,0.35-0.36,0.7-0.49,1.01c0.15-0.31,0.32-0.66,0.5-1.02c0.01,0,0.02,0,0.02,0
				c-0.14,0.28-0.32,0.61-0.52,1.02c0.21-0.39,0.39-0.73,0.56-1.04c0.01,0,0.02,0,0.02-0.01c-0.2,0.34-0.39,0.7-0.58,1.05
				c0.21-0.37,0.41-0.73,0.61-1.07c0.03-0.01,0.05-0.02,0.07-0.02c-0.22,0.36-0.45,0.71-0.68,1.09c0.24-0.37,0.48-0.72,0.71-1.09
				c0.13-0.01,0.26,0.02,0.4,0.1c-0.37,0.33-0.73,0.65-1.11,0.99c0.43-0.28,0.85-0.58,1.26-0.88c0.66,0.49,1.5,1.88,2.62,4.1
				c-3.06,0.66-4.84,0.01-3.88-3.23c-1.31,4.24,0.79,5.17,4.48,4.47c0.35,0.72,0.71,1.51,1.11,2.37c1.68,3.67,3.36,7.02,5.03,10.11
				c-4.8,0.26-8.28-0.43-10.44-2.04c-1.21-5.2-1.57-9.77-1.05-12.82c0.08-0.23,0.17-0.46,0.25-0.65c0.19-0.47,0.39-0.94,0.61-1.43
				c-0.07,0.16-0.15,0.32-0.21,0.47c0.11-0.28,0.2-0.45,0.21-0.47c-0.26,0.48-0.51,0.97-0.75,1.47c0.04-0.14,0.06-0.28,0.1-0.41
				c0.2-0.33,0.41-0.67,0.65-1.06c-0.25,0.4-0.46,0.73-0.65,1.04c0.03-0.1,0.07-0.21,0.09-0.31c0.16-0.26,0.35-0.54,0.55-0.73
				c-0.18,0.16-0.41,0.4-0.51,0.6l-0.18,0.37c-0.04,0.11-0.09,0.23-0.12,0.35c-0.28,0.48-0.52,0.94-0.76,1.53
				c0.21-0.47,0.45-0.96,0.74-1.48c-0.06,0.2-0.12,0.42-0.18,0.65c-0.67,1.44-1.26,2.97-1.76,4.56c0.12-0.53,0.22-0.98,0.3-1.3
				c0.36-1.08,0.63-1.83,0.89-2.43c-0.41,0.94-0.72,1.89-1.16,3.25c-0.15,0.56-0.3,1.23-0.45,1.95c-1.27,4.78-1.63,9.96-0.47,14.66
				c0.79,5.42,2.79,11.45,7.05,17.3c0.25,0.3,0.54,0.64,0.84,0.98c0.47,0.56,0.96,1.12,1.39,1.56l1.16,1.15
				c4.94,4.28,10.38,6.57,15.89,7.46c4.46,2.03,9.61,2.95,15.5,2.23c-4.41,0.41-8.48-0.31-12.19-1.85
				c7.51,0.49,14.99-1.35,21.39-4.01c6.43-0.82,11.84-4.82,15.72-9.57c0.57-0.53,1.04-1.02,1.42-1.46c-1.12,1.88-2.38,3.54-3.7,5.01
				c-0.92,0.99-2.07,2.16-3.52,3.41c-0.75,0.63-1.45,1.2-2.15,1.71c-1.02,0.75-2.14,1.51-3.42,2.24c-0.76,0.44-1.57,0.87-2.5,1.33
				c0.05-0.03,0.11-0.05,0.17-0.08c0.83-0.39,1.95-0.98,3.25-1.78c0.86-0.52,1.68-1.07,2.56-1.72c0.97-0.72,1.98-1.54,3-2.47
				c0.16-0.14,0.31-0.28,0.47-0.43c0.6-0.56,0.86-0.82,1.33-1.32c0.51-0.52,0.73-0.76,1.27-1.4c1.64-1.96,2.49-3.21,3.26-4.56
				c0.25-0.3,0.46-0.58,0.61-0.83l0.02-0.04c0.06-0.1,0.15-0.24,0.21-0.33c0.12-0.26,0.23-0.63,0.3-0.9
				c-0.09,0.33-0.26,0.72-0.42,1.06c-0.12,0.17-0.26,0.34-0.41,0.5c0.27-0.48,0.52-0.99,0.83-1.56c-0.28,0.56-0.58,1.1-0.89,1.63
				c-0.23,0.27-0.51,0.54-0.81,0.83c0.61-0.81,1.18-1.63,1.7-2.46c-0.52,0.82-1.09,1.65-1.7,2.46c-3.02,2.88-9.18,6.75-16.69,9.64
				c-5.56,0.22-11.95-2.05-18.86-8.39c5.37-0.55,11.52-1.75,18.57-3.75c6.5,5.12,13.11,6.95,18.68,0.03
				c-4.77,5.71-10.55,3.99-16.4-0.69c0.06-0.03,0.13-0.04,0.19-0.06c5.37-1.62,9.25-2.79,11.99-3.47c2.01,2.74,3.24,4.02,4.21,4.22
				c-0.63-0.55-1.38-1.59-3.18-4.47c1.85-0.42,3.06-0.57,3.8-0.42c-0.03,1.74-0.24,3.38-0.63,4.89c0.28-0.97,0.63-2.29,0.76-3.29
				c0.07-0.5,0.12-1.01,0.14-1.53c0.28,0.11,0.47,0.25,0.57,0.46c-0.41,1.48-0.89,2.93-1.48,4.36c0.6-1.36,1.11-2.76,1.55-4.2
				c0.07,0.2,0.08,0.43,0.06,0.7c-0.47,1.18-1,2.34-1.61,3.49c0.61-1.2,1.14-2.3,1.58-3.32c-0.04,0.25-0.09,0.52-0.18,0.83
				c-0.13,0.29-0.23,0.52-0.32,0.71c0.23-0.43,0.38-0.79,0.64-1.5c0.05-0.23,0.08-0.42,0.11-0.62c1.65-3.96,2.1-6.64,2.43-8.55
				l0.19-1.69l0.08-1.13C90.69,57.1,89.99,54.27,88.52,52.3z M22.9,37.85c0.55-0.8,1.15-1.62,1.83-2.45
				c0.4-0.43,0.82-0.85,1.27-1.25c-0.81,0.92-1.66,1.95-2.57,3.18C23.25,37.49,23.08,37.66,22.9,37.85z M72.16,90.74
				c0.29-0.17,0.58-0.34,0.86-0.51C72.74,90.4,72.46,90.57,72.16,90.74z M83.45,79.9c-3.08,3.66-7.23,6.77-12.19,7.95
				C76.6,85.25,80.91,82.24,83.45,79.9z M77.06,32.12c5.5,5.29,9.15,12.15,10.85,19.45c-1.56-1.65-3.81-2.56-6.76-2.84
				c-3.49-6.65-8.37-12.93-14.2-17.5C70.65,30.78,74.08,30.97,77.06,32.12z M65.52,31.43c5.85,4.47,10.87,10.64,14.55,17.21
				c-3.14-0.14-7,0.35-11.59,1.34c-4.45-5.77-9.56-11.27-15.11-15.11C57.51,33.32,61.63,32.06,65.52,31.43z M66.33,50.47
				c-4.02,0.96-8.54,2.24-13.58,3.78c-0.59,0.18-1.16,0.35-1.73,0.52c-4.54-5.51-8.59-10.24-12.26-13.65
				c0.38-0.16,0.76-0.34,1.13-0.51c3.68-1.66,7.59-3.42,11.51-4.97C55.86,38.92,60.81,43.74,66.33,50.47z M42.11,26.49
				c1.6-0.89,3.01-1.59,4.29-2.14c5.9-0.06,11.58,1.98,16.71,5.36c-3.6,0.72-7.54,2.04-11.84,3.8c-5.24-3.18-9.65-4.41-13.37-4.41
				C39.26,28.19,40.66,27.3,42.11,26.49z M36.95,29.71c3.6,0.09,7.74,1.43,12.49,4.55c-3.64,1.54-7.53,3.35-11.69,5.34
				c-0.15,0.07-0.29,0.13-0.44,0.21c-2.94-2.53-5.62-4.09-8.1-4.41C31.75,33.46,34.31,31.52,36.95,29.71z M25.45,44.81
				c-1.34-2.33-2.35-3.74-3.2-4.22c2.08-1.46,4.1-2.99,6.12-4.54c2.14,0.49,4.53,2.1,7.22,4.59C32.03,42.31,28.33,43.99,25.45,44.81
				z M28.99,51.5c-1.08-2.12-2.01-3.92-2.84-5.44c3.06-0.78,6.91-2.4,10.8-4.12c3.4,3.39,7.29,8.03,11.72,13.51
				c-6.21,1.75-11.49,2.82-15.82,3.23C31.57,56.43,30.29,54.05,28.99,51.5z M32.24,61c4,7.09,7.94,12.64,11.76,16.86
				c-6.63,0.35-11.74-0.32-15.65-1.71c-3.31-5.6-5.73-11.7-7.23-17.27C23.41,60.38,26.99,61.19,32.24,61z M19.24,44.8
				c-0.44,2.69-0.34,6.59,0.37,11.06c-1.98-2.26-2.18-5.77-0.57-10.54C19.11,45.13,19.17,44.97,19.24,44.8z M16.71,55.54
				c0.25-2.63,0.81-5.13,1.39-7.25c-0.89,3.86-0.58,7.34,1.87,9.68c1.06,5.42,2.98,11.47,5.86,17.11c-5.82-2.92-8.3-7.74-9.03-12.81
				C16.59,59.84,16.6,57.57,16.71,55.54z M25.73,83.97c-4.76-5.51-7.17-11.56-8.28-17.16c1.58,4.28,4.6,8,9.56,10.45
				c3.33,5.86,7.78,11.08,13.47,14.43C35.12,90.61,30.05,88.22,25.73,83.97z M64.34,89.54c-6.45,2.09-13.61,3.34-20.5,2.65
				c-5.65-3.06-10.35-8.05-14.09-13.77c4.26,1.49,9.67,2.16,16.45,1.72C52.7,86.54,58.83,89.23,64.34,89.54z M46.54,77.67
				c-3.99-4.12-8.14-9.63-12.4-16.78c4.38-0.33,9.81-1.31,16.46-3.06c0.38,0.48,0.77,0.95,1.16,1.45c4.03,5,8.68,10.74,13.44,15.03
				C58.01,76.13,51.83,77.21,46.54,77.67z M72.13,72.42c-1.56,0.45-3.07,0.87-4.55,1.26c-4.35-3.97-8.69-9.28-12.64-14.13
				c-0.66-0.8-1.31-1.6-1.94-2.37c0.46-0.13,0.92-0.26,1.41-0.4c4.89-1.4,9.63-2.76,13.97-3.76c2.61,3.32,5.33,7.05,8.17,11.24
				c1.57,2.32,2.87,4.24,3.99,5.82C78.19,70.65,75.36,71.47,72.13,72.42z M86.72,69.71c-1.06-0.41-2.74-0.31-4.97,0.14
				c-0.26-0.41-0.51-0.83-0.79-1.29c-2.74-4.45-6.3-10.23-10.51-15.97c4.23-0.89,8.02-1.35,11.14-1.07
				C84.65,57.72,86.5,64.13,86.72,69.71z M87.07,69.88c0.03-5.49-1.59-11.94-4.48-18.26c2.54,0.37,4.57,1.3,5.93,3
				c0.85,5.42,0.65,10.98-0.65,16.24C87.71,70.43,87.45,70.11,87.07,69.88z M90.43,62.87c-0.39,3.03-1.03,5.41-2.45,9.16
				c0.03-0.35,0-0.65-0.05-0.92c1.39-5,1.79-10.38,1.12-15.72C90.13,57.16,90.62,59.61,90.43,62.87z M25.47,34.53
				c0.83-0.91,1.76-1.83,2.92-2.92C27.26,32.6,26.3,33.58,25.47,34.53z M87.19,74.44c-0.22,0.41-0.52,0.88-1.08,1.78
				C86.73,75.32,86.92,75.02,87.19,74.44z M66.48,93.45l2.15-0.88c0.36-0.17,0.69-0.34,1.02-0.5c-1.46,0.69-2.88,1.26-4.27,1.72
				C65.75,93.68,66.11,93.57,66.48,93.45z M32.27,28.7c-0.37,0.24-0.78,0.52-1.19,0.81c2.46-1.63,4.9-2.87,7.3-3.75
				C36.35,26.45,34.31,27.42,32.27,28.7z M23.82,36.42c-0.05,0.06-0.11,0.11-0.15,0.17l-0.36,0.46c-0.06,0.1-0.11,0.16-0.17,0.25
				c0.11-0.14,0.24-0.32,0.36-0.49C23.61,36.69,23.7,36.56,23.82,36.42z M65.39,93.79c-2.37,0.72-4.63,1.21-6.8,1.47
				C60.77,95.06,63.04,94.57,65.39,93.79z"/>
			<path id="XMLID_00000042722975109305409360000000669459027820239807_" class="st3" d="M47.01,94.32
				c7.35,1.13,15.17,0.25,22.52-3.25c-1.03,1.08-2.24,1.98-3.62,2.68c-0.55,0.14-1.18,0.26-2.32,0.47c-1.4,0.42-2.81,0.76-4.23,1.03
				c2.48-0.15,2.52-0.16,4.93-0.8l0.85-0.29c0.44-0.16,0.93-0.37,1.42-0.57c0.5-0.2,0.99-0.4,1.41-0.59
				c1.72-0.93,3.16-2.07,4.37-3.42c2.61-1.52,5.16-3.39,7.57-5.65c1.88-2.03,3.51-4.22,4.87-6.53c-3.29,5.11-7.43,8.98-12.06,11.73
				c2.05-2.47,3.34-5.59,4.09-9.31c5.11-3.67,9.12-8.45,11.16-14.4c0.11,3.33-0.29,5.5-0.72,6.94c-0.45,1.11-0.94,2.2-1.49,3.26
				c0.32-0.48,0.66-1.17,0.93-1.69l0.7-1.73l0.55-1.52c0.34-1.26,0.91-3.43,0.68-7.45c0.51-2.07,0.79-4.27,0.8-6.61
				c-0.05,2.09-0.35,4.07-0.85,5.95c-0.19-2.39-0.65-5.41-1.58-9.23c0.83-3.2,0.54-6.2-0.26-8.9c0.67,2.53,0.77,5.17,0,7.89
				c-0.66-2.58-1.53-5.51-2.66-8.83c0.36-1.15,0.41-2.38,0.08-3.68c0.17,1.01,0.04,1.96-0.36,2.88c-0.7-2.04-1.5-4.22-2.42-6.57
				c0.15-0.18,0.23-0.37,0.24-0.58c0.81,1.13,1.56,2.24,2.25,3.34c0.12,0.32,0.22,0.62,0.3,0.93c-0.04-0.25-0.11-0.5-0.19-0.76
				c0.89,1.41,1.67,2.81,2.36,4.18c0.15,0.4,0.28,0.8,0.4,1.21c-0.09-0.35-0.21-0.7-0.32-1.04c0.69,1.39,1.29,2.76,1.77,4.11
				c0.09,0.32,0.19,0.64,0.27,0.96c-0.04-0.21-0.09-0.42-0.15-0.63c0,0.01,0,0.01,0.01,0.02l-0.01-0.03
				c-0.03-0.12-0.06-0.24-0.08-0.36l-0.7-2.05c-0.03-0.07-0.06-0.14-0.09-0.21c0.07,0.16,0.12,0.33,0.18,0.5
				c0.12,0.37,0.25,0.75,0.37,1.15c-0.23-0.7-0.49-1.41-0.77-2.1c-0.35-0.76-0.74-1.55-1.18-2.37c-0.21-0.53-0.43-1.05-0.69-1.57
				c0.13,0.22,0.25,0.42,0.37,0.65c-0.17-0.33-0.35-0.66-0.53-0.98c-0.21-0.42-0.43-0.82-0.67-1.24c0.11,0.22,0.23,0.46,0.35,0.68
				c-0.45-0.74-0.92-1.47-1.49-2.24c-0.13-0.26-0.28-0.51-0.44-0.77c0.26,0.37,0.58,0.82,0.99,1.4c-0.4-0.6-0.7-1.04-1.05-1.48
				c-0.06-0.11-0.12-0.21-0.2-0.31c0.05,0.08,0.09,0.15,0.14,0.23c-0.03-0.04-0.06-0.07-0.08-0.11c0.03,0.04,0.06,0.1,0.1,0.14
				c0.14,0.24,0.27,0.47,0.39,0.69c-0.39-0.54-0.82-1.1-1.31-1.7c0.47,0.6,0.93,1.23,1.41,1.88c0.13,0.25,0.23,0.5,0.34,0.74
				c-0.6-0.92-1.29-1.88-2.07-2.92c0-0.03,0-0.07-0.01-0.11c0.12,0.14,0.23,0.28,0.33,0.41c-0.11-0.15-0.22-0.29-0.34-0.43
				c0-0.02,0.01-0.04-0.01-0.06c0.49,0.55,0.86,0.97,1.16,1.35c-0.41-0.55-0.73-0.94-1.17-1.44c0-0.01-0.01-0.02-0.02-0.04
				c0.35,0.38,0.68,0.76,0.97,1.11c0.06,0.08,0.11,0.16,0.17,0.24c-0.03-0.05-0.05-0.1-0.09-0.15l-0.09-0.13l-0.07-0.09
				c-0.26-0.31-0.57-0.66-0.89-1.01c-0.04-0.09-0.07-0.18-0.12-0.27L81.3,34.7c-0.2-0.17-0.47-0.39-0.69-0.54
				c0.21,0.17,0.49,0.39,0.71,0.61c0.04,0.07,0.06,0.14,0.08,0.21c-0.28-0.29-0.54-0.58-0.79-0.81c0.24,0.25,0.51,0.54,0.78,0.83
				c0,0.01,0,0.01,0,0.01c-0.22-0.24-0.48-0.5-0.78-0.84c0.3,0.34,0.55,0.63,0.79,0.89c0,0.01-0.01,0.01-0.01,0.01
				c-0.25-0.3-0.51-0.6-0.78-0.91c0.28,0.33,0.53,0.64,0.78,0.95c0,0.03,0,0.05,0,0.07c-0.26-0.34-0.51-0.66-0.78-1.02
				c0.26,0.35,0.52,0.71,0.76,1.05c-0.03,0.12-0.11,0.23-0.22,0.33c-0.19-0.46-0.36-0.91-0.54-1.39c0.11,0.5,0.25,1,0.38,1.5
				c-0.7,0.44-2.29,0.75-4.76,1c0.45-3.08,1.68-4.53,4.38-2.5c-3.52-2.71-5.12-1.07-5.76,2.64c-0.8,0.08-1.67,0.14-2.61,0.21
				c-4.02,0.3-7.75,0.7-11.23,1.18c1.45-4.59,3.3-7.61,5.58-9.07c5.28,0.68,9.69,1.95,12.37,3.5c0.19,0.16,0.37,0.32,0.52,0.46
				c0.37,0.34,0.74,0.7,1.13,1.08c-0.13-0.12-0.25-0.24-0.37-0.37c0.21,0.22,0.35,0.35,0.37,0.37c-0.35-0.41-0.73-0.81-1.11-1.22
				c0.12,0.08,0.24,0.16,0.35,0.24c0.24,0.3,0.49,0.62,0.77,0.98c-0.28-0.37-0.52-0.68-0.75-0.96c0.09,0.06,0.18,0.13,0.26,0.19
				c0.19,0.24,0.38,0.53,0.5,0.77c-0.09-0.22-0.23-0.51-0.38-0.69l-0.28-0.29c-0.09-0.08-0.19-0.16-0.28-0.23
				c-0.36-0.44-0.7-0.82-1.17-1.25c0.38,0.36,0.75,0.76,1.13,1.22c-0.17-0.12-0.35-0.26-0.54-0.39c-1.12-1.13-2.34-2.22-3.66-3.25
				c0.46,0.29,0.83,0.56,1.1,0.75c0.88,0.71,1.49,1.22,1.97,1.67c-0.73-0.71-1.5-1.33-2.63-2.22c-0.48-0.34-1.05-0.71-1.68-1.11
				c-4.03-2.87-8.76-5.01-13.57-5.56c-5.36-1.17-11.71-1.4-18.68,0.55c-0.37,0.12-0.79,0.28-1.21,0.44
				c-0.68,0.25-1.38,0.5-1.95,0.76l-1.48,0.69c-5.74,3.13-9.79,7.42-12.55,12.27c-3.46,3.47-6.12,7.97-7.51,13.75
				c1.15-4.28,3.25-7.85,5.99-10.77c-3.09,6.86-3.97,14.51-3.73,21.44c-1.48,6.31,0.37,12.78,3.47,18.08
				c0.29,0.71,0.59,1.33,0.88,1.84c-1.38-1.71-2.49-3.47-3.42-5.22c-0.6-1.21-1.3-2.7-1.96-4.5c-0.32-0.92-0.6-1.77-0.85-2.61
				c-0.34-1.22-0.65-2.53-0.9-3.98c-0.14-0.86-0.25-1.78-0.37-2.81c0.01,0.07,0.01,0.13,0.02,0.19c0.08,0.9,0.25,2.18,0.55,3.66
				c0.18,0.97,0.41,1.95,0.71,3c0.33,1.16,0.74,2.4,1.26,3.68c0.07,0.2,0.15,0.39,0.23,0.61c0.32,0.74,0.48,1.09,0.77,1.7
				c0.31,0.66,0.47,0.95,0.86,1.68c1.27,2.22,2.14,3.45,3.13,4.64c0.19,0.34,0.38,0.63,0.57,0.87l0.01,0.03
				c0.08,0.09,0.18,0.21,0.25,0.31c0.19,0.21,0.51,0.43,0.74,0.59c-0.28-0.19-0.59-0.49-0.86-0.76c-0.11-0.17-0.21-0.35-0.33-0.56
				c0.36,0.42,0.75,0.84,1.18,1.32c-0.44-0.46-0.83-0.93-1.22-1.39c-0.17-0.32-0.33-0.67-0.5-1.05c0.54,0.85,1.11,1.68,1.72,2.44
				c-0.6-0.78-1.17-1.6-1.72-2.45c-1.64-3.82-3.12-10.96-3.2-19c1.74-5.29,6.09-10.48,14.47-14.74c-1.37,5.22-2.4,11.41-2.99,18.71
				c-7.07,4.3-11.09,9.84-6.55,17.48c-3.69-6.47-0.07-11.27,6.38-15.11c0,0.07-0.01,0.13-0.02,0.2c-0.36,5.6-0.62,9.64-0.94,12.45
				c-3.28,0.93-4.91,1.63-5.42,2.47c0.72-0.4,1.97-0.73,5.29-1.41c-0.25,1.88-0.54,3.07-0.94,3.72c-1.62-0.64-3.08-1.41-4.35-2.31
				c0.8,0.61,1.91,1.39,2.81,1.87c0.44,0.24,0.9,0.46,1.38,0.67c-0.19,0.22-0.4,0.35-0.63,0.38c-1.24-0.9-2.44-1.87-3.56-2.92
				c1.06,1.04,2.19,2.02,3.39,2.93c-0.21-0.01-0.44-0.08-0.68-0.2c-0.94-0.85-1.85-1.76-2.7-2.73c0.9,0.99,1.75,1.88,2.55,2.64
				c-0.22-0.12-0.45-0.28-0.72-0.46c-0.22-0.22-0.41-0.4-0.56-0.54c0.32,0.36,0.62,0.63,1.18,1.12c0.19,0.14,0.37,0.22,0.54,0.31
				c3.14,2.94,5.49,4.3,7.17,5.28l1.52,0.76l1.03,0.47C41.75,94.67,44.65,95,47.01,94.32z M83.5,37.89
				c0.55,0.79,1.11,1.64,1.65,2.57c0.26,0.52,0.5,1.07,0.74,1.63c-0.58-1.09-1.25-2.25-2.08-3.52
				C83.72,38.35,83.61,38.12,83.5,37.89z M16.71,65.54c0.06,0.33,0.12,0.66,0.18,0.99C16.83,66.2,16.77,65.87,16.71,65.54z
				 M22.93,79.91c-2.35-4.17-3.82-9.15-3.19-14.2C20.32,71.62,21.63,76.71,22.93,79.91z M69.93,90.64
				c-6.88,3.3-14.59,4.32-22.03,3.36c2.1-0.88,3.73-2.68,5.03-5.33c7.45-0.95,15.05-3.32,21.37-7.19
				C73.43,85.09,72.05,88.25,69.93,90.64z M74.61,80.07c-6.23,3.91-13.77,6.46-21.22,7.61c1.23-2.9,2.13-6.68,2.8-11.32
				c6.96-2.15,13.9-5.01,19.44-8.87C75.64,71.9,75.38,76.21,74.61,80.07z M56.49,74.16c0.51-4.1,0.89-8.78,1.2-14.04
				c0.03-0.62,0.08-1.21,0.12-1.81c6.77-2.33,12.6-4.47,17.08-6.7c0.03,0.41,0.05,0.83,0.08,1.24c0.27,4.03,0.55,8.3,0.63,12.52
				C70.98,68.39,64.72,71.35,56.49,74.16z M87.43,59.86c0.28,1.8,0.43,3.37,0.5,4.76c-2,5.56-5.91,10.16-10.86,13.78
				c0.58-3.62,0.72-7.76,0.58-12.41c4.81-3.81,7.52-7.51,8.81-10.99C86.83,56.61,87.17,58.22,87.43,59.86z M86.21,53.9
				c-1.33,3.34-4.04,6.75-8.63,10.11c-0.17-3.95-0.5-8.22-0.91-12.82c-0.02-0.16-0.03-0.32-0.04-0.48c3.39-1.87,5.8-3.84,6.95-6.05
				C84.53,47.72,85.45,50.79,86.21,53.9z M76.1,37.84c2.64-0.43,4.32-0.89,5.07-1.51c0.65,2.46,1.37,4.89,2.1,7.32
				c-1.21,1.84-3.54,3.51-6.82,5.16C76.12,44.88,75.85,40.83,76.1,37.84z M68.58,38.82c2.35-0.27,4.38-0.51,6.1-0.75
				c-0.34,3.14-0.17,7.32,0.09,11.55C70.4,51.62,64.69,53.63,58,55.88c0.53-6.42,1.37-11.75,2.51-15.95
				C63.06,39.51,65.74,39.14,68.58,38.82z M58.55,38.55c-8.04,1.26-14.61,3.02-19.9,5.12c1.99-6.33,4.41-10.89,7.08-14.07
				c6.4-1.14,12.97-1.27,18.71-0.73C62.22,30.5,60.21,33.56,58.55,38.55z M78.28,32.03c-2.37-1.35-6.06-2.62-10.49-3.52
				c2.81-1.07,6.16-0.03,10.06,3.16C78.01,31.79,78.14,31.9,78.28,32.03z M69.09,25.9c2.37,1.16,4.52,2.54,6.31,3.85
				c-3.31-2.19-6.67-3.12-9.73-1.64c-5.45-0.9-11.78-1.22-18.08-0.49c4.78-4.43,10.15-5.07,15.15-3.98
				C65.1,24.28,67.23,25.08,69.09,25.9z M39.3,24.42c6.83-2.53,13.34-2.68,18.97-1.77c-4.56-0.02-9.11,1.51-13.13,5.3
				c-6.65,1.07-13.11,3.41-18.23,7.58C29.79,30.89,33.81,26.97,39.3,24.42z M20.59,58.64c0.29-6.77,1.63-13.92,4.69-20.14
				c4.85-4.22,11.17-6.88,17.83-8.38c-2.88,3.47-5.41,8.31-7.37,14.81C27.47,48.77,22.8,53.58,20.59,58.64z M37.92,46.11
				c5.27-2.3,11.88-4.27,20.07-5.75c-1.22,4.22-2.21,9.65-2.89,16.49c-0.58,0.19-1.16,0.38-1.76,0.58
				c-6.11,2.04-13.1,4.38-18.79,7.33C35.36,57.39,36.51,51.23,37.92,46.11z M33.9,71.92c0.12-1.62,0.25-3.19,0.39-4.71
				c5.24-2.68,11.73-4.89,17.66-6.9c0.98-0.33,1.95-0.66,2.91-0.98c-0.04,0.48-0.09,0.95-0.13,1.46c-0.39,5.08-0.78,9.99-1.36,14.41
				c-4.03,1.27-8.47,2.51-13.4,3.72c-2.71,0.66-4.97,1.22-6.85,1.7C33.44,78.22,33.65,75.27,33.9,71.92z M31.34,86.54
				c0.76-0.84,1.25-2.47,1.61-4.7c0.47-0.1,0.95-0.19,1.48-0.29c5.13-1.01,11.79-2.33,18.64-4.26c-0.65,4.28-1.54,7.98-2.89,10.82
				C43.28,88.79,36.64,88.28,31.34,86.54z M31.06,86.81c5.12,1.94,11.73,2.68,18.66,2.18c-1.23,2.26-2.81,3.81-4.88,4.51
				c-5.37-1.1-10.51-3.23-14.98-6.3C30.31,87.21,30.71,87.08,31.06,86.81z M36.44,92.4c-2.71-1.43-4.7-2.87-7.72-5.5
				c0.31,0.14,0.6,0.23,0.88,0.27c4.19,3.05,9.09,5.32,14.33,6.55C41.9,94.12,39.44,93.73,36.44,92.4z M85.72,41.46
				c0.56,1.1,1.1,2.29,1.71,3.75C86.89,43.8,86.32,42.57,85.72,41.46z M26.73,85.32c-0.3-0.35-0.64-0.79-1.28-1.63
				C26.07,84.59,26.29,84.86,26.73,85.32z M16.17,59.28l0.08,2.32c0.04,0.38,0.06,0.76,0.1,1.12c-0.14-1.6-0.16-3.13-0.11-4.6
				C16.21,58.51,16.18,58.89,16.17,59.28z M88.8,49.87c-0.09-0.43-0.22-0.92-0.35-1.4c0.68,2.87,0.98,5.59,0.97,8.15
				C89.47,54.48,89.28,52.23,88.8,49.87z M84.52,39.24c-0.04-0.06-0.07-0.13-0.11-0.2l-0.31-0.49c-0.06-0.09-0.12-0.17-0.17-0.25
				c0.09,0.15,0.21,0.33,0.33,0.51C84.35,38.95,84.43,39.1,84.52,39.24z M16.23,58.12c0.14-2.47,0.49-4.76,1-6.88
				C16.66,53.36,16.32,55.66,16.23,58.12z"/>
		</g>
	</g>
</g>
</svg>
