<?xml version="1.0" encoding="utf-8"?>
<!-- Generator: Adobe Illustrator 28.4.1, SVG Export Plug-In . SVG Version: 6.00 Build 0)  -->
<svg version="1.1" id="Layer_1" xmlns="http://www.w3.org/2000/svg" xmlns:xlink="http://www.w3.org/1999/xlink" x="0px" y="0px"
	 viewBox="0 0 201 207.89" style="enable-background:new 0 0 201 207.89;" xml:space="preserve">
<style type="text/css">
	.st0{fill:#706F6F;}
	.st1{fill:#009FE3;}
</style>
<g>
	<rect x="9.69" y="83.98" class="st0" width="5.48" height="28"/>
	<polygon class="st0" points="43.15,111.98 43.15,83.98 37.68,83.98 37.68,101.13 26.57,83.98 21.69,83.98 21.69,111.98 
		27.17,111.98 27.17,94.8 38.27,111.98 	"/>
	<polygon class="st0" points="67.71,92.15 67.71,83.98 47.6,83.98 47.6,92.15 54.92,92.15 54.92,111.98 60.39,111.98 60.39,92.15 	
		"/>
	<polygon class="st0" points="104.96,111.98 104.96,64.6 95.7,64.6 95.7,83.97 79.65,83.97 79.65,64.6 70.39,64.6 70.39,111.98 
		79.65,111.98 79.65,92.15 95.7,92.15 95.7,111.98 	"/>
	<polygon class="st0" points="147.26,111.98 147.26,103.74 125.27,103.74 125.27,92.22 143.99,92.22 143.99,83.97 125.27,83.97 
		125.27,72.86 147.26,72.86 147.26,64.6 116.02,64.6 116.02,111.98 	"/>
	<g>
		<path class="st0" d="M180.12,79.11c0,3.66-2.66,6.26-6.73,6.26h-8.73V72.86h8.73C177.46,72.86,180.12,75.45,180.12,79.11
			 M191.31,111.98l-10.59-20.43c4.6-1.66,8.66-5.79,8.66-12.44c0-7.92-5.73-14.5-15.39-14.5h-18.58v47.38h9.26v-18.9h6.66l9.26,18.9
			H191.31z"/>
	</g>
	<polygon class="st1" points="87.56,114.1 109.78,136.31 102.79,143.29 87.56,128.07 72.33,143.29 65.35,136.31 	"/>
	<rect x="47.6" y="83.97" class="st0" width="96.39" height="8.19"/>
</g>
</svg>
