<?xml version="1.0" encoding="utf-8"?>
<!-- Generator: Adobe Illustrator 28.4.1, SVG Export Plug-In . SVG Version: 6.00 Build 0)  -->
<svg version="1.1" id="Layer_1" xmlns="http://www.w3.org/2000/svg" xmlns:xlink="http://www.w3.org/1999/xlink" x="0px" y="0px"
	 viewBox="0 0 201 207.89" style="enable-background:new 0 0 201 207.89;" xml:space="preserve">
<style type="text/css">
	.st0{fill:#777678;}
	.st1{fill:#91181C;}
	.st2{fill:#931916;}
</style>
<g>
	<path class="st0" d="M13.7,103.97l-6.91-0.03c3.97,10.6,9.81,16.91,16.48,16.91c0.99,0,1.99-0.14,2.95-0.41l0.05-0.01
		c0.6-0.17,1.2-0.39,1.8-0.67C21.74,118.88,17.39,113.42,13.7,103.97"/>
	<path class="st0" d="M24.93,103.94l-6.89,0.03c3.97,10.6,11.13,16.88,17.8,16.88c0.99,0,1.99-0.14,2.95-0.41l0.05-0.01
		c0.6-0.17,1.2-0.39,1.8-0.67C34.32,118.89,29.07,113.2,24.93,103.94"/>
	<path class="st1" d="M63.59,86.27c-1.28,16.37-7.45,29.6-15.51,33.89c-0.84,0.45-1.71,0.8-2.59,1.04h0c-1,0.28-2.01,0.42-3.05,0.42
		h-7.24c1.04,0,2.05-0.14,3.05-0.42h0c0.88-0.24,1.75-0.59,2.59-1.04c8.06-4.29,14.22-17.52,15.51-33.89H63.59z"/>
	<path class="st1" d="M52,86.27c-1.28,16.37-7.45,29.6-15.51,33.89c-0.84,0.45-1.71,0.8-2.59,1.04h0c-1,0.28-2.01,0.42-3.05,0.42
		h-7.24c1.04,0,2.05-0.14,3.05-0.42h0c0.88-0.24,1.75-0.59,2.59-1.04c8.06-4.29,14.22-17.52,15.51-33.89H52z"/>
	<path class="st2" d="M74.8,119.51c-2.24,0-4.23-0.67-5.9-1.99c-2.05-1.64-3.1-3.76-3.13-6.32v-1.18h2.3v1.18
		c0.03,1.24,0.45,2.41,1.26,3.46c1.33,1.65,3.18,2.49,5.48,2.49c1.54,0,2.96-0.47,4.22-1.38c1.66-1.21,2.48-2.71,2.51-4.58V88.43
		h2.3v22.76c-0.03,1.89-0.71,3.62-2.04,5.17C79.96,118.45,77.61,119.51,74.8,119.51"/>
	<polygon class="st2" points="111.94,119.51 111.65,118.8 100.42,92.55 89.2,118.8 88.91,119.51 86.37,119.51 87.12,117.85 
		99.38,89.14 99.67,88.43 101.17,88.43 101.46,89.14 113.73,117.86 114.47,119.51 	"/>
	<polygon class="st2" points="138.57,119.51 138.23,119.04 120.19,93.27 120.19,119.51 117.89,119.51 117.89,88.43 119.61,88.43 
		119.96,88.9 138,114.68 138.04,88.43 140.34,88.43 140.29,119.51 	"/>
	<path class="st2" d="M157.8,119.51c-2.77,0-5.23-0.9-7.31-2.67c-2.31-2.02-3.47-4.54-3.47-7.49V88.48h2.4l-0.06,1.19l-0.04,19.68
		c0,1.84,0.64,3.49,1.9,4.93c1.69,1.9,3.91,2.87,6.59,2.87c2.03,0,3.88-0.62,5.49-1.83c1.99-1.55,3-3.56,3-5.97V88.48h2.4
		l-0.06,1.19l-0.04,19.68c0,2.52-0.89,4.77-2.66,6.7C163.78,118.35,161.05,119.51,157.8,119.51"/>
	<path class="st2" d="M183.43,119.51c-2.85,0-5.35-0.77-7.43-2.3c-2.23-1.66-3.35-3.7-3.35-6.06v-0.28h2.29l0,0.28
		c0.03,1.32,0.6,2.54,1.71,3.62c1.71,1.59,4,2.39,6.78,2.39c2.01,0,3.86-0.48,5.47-1.44c2.03-1.24,3.02-2.73,3.02-4.56
		c0-0.57-0.18-1.12-0.52-1.64c-0.75-1.15-2.79-2.39-6.05-3.71c-3.69-1.46-5.93-2.38-6.63-2.75c-3.44-1.72-5.19-3.82-5.19-6.26
		c0-1.92,0.72-3.66,2.14-5.18c1.97-2.11,4.59-3.18,7.77-3.18c2.53,0,4.77,0.73,6.65,2.17c2.16,1.63,3.26,3.72,3.26,6.19v0.28h-2.3
		v-0.28c0-1.3-0.5-2.5-1.5-3.58c-1.54-1.61-3.6-2.43-6.11-2.43c-1.75,0-3.37,0.46-4.81,1.35c-1.89,1.21-2.8,2.73-2.8,4.65
		c0,0.55,0.16,1.05,0.48,1.55c0.75,1.14,2.79,2.37,6.05,3.66c3.76,1.52,5.94,2.43,6.68,2.79c3.45,1.75,5.19,3.89,5.19,6.36
		c-0.03,1.9-0.86,3.65-2.45,5.23C189.59,118.45,186.79,119.51,183.43,119.51"/>
</g>
</svg>
