<?xml version="1.0" encoding="utf-8"?>
<!-- Generator: Adobe Illustrator 28.4.1, SVG Export Plug-In . SVG Version: 6.00 Build 0)  -->
<svg version="1.1" id="Layer_1" xmlns="http://www.w3.org/2000/svg" xmlns:xlink="http://www.w3.org/1999/xlink" x="0px" y="0px"
	 viewBox="0 0 201 207.89" style="enable-background:new 0 0 201 207.89;" xml:space="preserve">
<style type="text/css">
	.st0{fill:#374689;}
</style>
<g>
	<rect x="96.29" y="62.19" class="st0" width="7.32" height="5.47"/>
	<path class="st0" d="M65.7,83.87c-0.44-0.78-1.02-0.96-1.59-0.62l-4.38,2.58c-0.89,0.52-0.95,1.11-0.55,1.8l11.92,21.01
		c1.3,2.29-0.07,3.9-0.65,4.24L44.7,128c-0.51,0.3-1.01,0.15-1.23-0.24l-2.84-5c-0.28-0.49-0.82-0.59-1.21-0.36l-4.8,2.83
		c-0.72,0.42-0.64,0.9-0.41,1.31l3.25,5.73c2.16,3.81,5.35,5.36,9.29,3.04l27.25-16.02c5.86-3.45,7.2-8.11,5.23-11.58L65.7,83.87z"
		/>
	<rect x="96.49" y="71.21" class="st0" width="6.92" height="34.44"/>
	<g>
		<path class="st0" d="M159.97,146.44c0,0-54.6-32.71-59.98-35.92l-6.16,3.5l-54.34,32.47l-23.54-42l83.92-48.97l83.57,49.84
			L159.97,146.44z M99.92,47.42l-92.88,54.6l29.35,53.78l63.22-37.63l62.79,37.8l30.47-53.45L99.92,47.42z"/>
	</g>
	<path class="st0" d="M169.89,104.48l-26.97-16.5c-5.81-3.55-10.46-2.48-12.48,0.96l-3.49,5.91c-2.22,3.77-2.01,7.36,1.89,9.75
		L156,121.2c0.5,0.31,2.1,1.31,1,3.18l-0.8,1.42c-1.34,2.27-3.38,1.83-3.96,1.47l-24.89-15.23c-1.05-0.64-1.11-1.31-0.64-2.1
		l0.44-0.75c0.29-0.48,0.11-1.01-0.28-1.25l-4.76-2.91c-0.71-0.44-1.09-0.14-1.33,0.26l-1.18,2.01c-2.22,3.77-2.01,7.36,1.89,9.74
		l26.97,16.49c5.81,3.55,10.46,2.48,12.48-0.95l3.63-6.15c2.22-3.77,2.01-7.36-1.89-9.75l-27.08-16.52
		c-2.22-1.36-1.02-3.39-1.02-3.39l0.6-1.05c1.34-2.27,3.38-1.83,3.96-1.48l24.77,15.16c0.5,0.31,1.48,0.96,0.71,2.26l-0.39,0.66
		c-0.28,0.48-0.11,1.01,0.28,1.25l4.76,2.91c0.72,0.44,1.09,0.13,1.33-0.27l1.18-2C174,110.46,173.79,106.87,169.89,104.48"/>
</g>
</svg>
