<?xml version="1.0" encoding="utf-8"?>
<!-- Generator: Adobe Illustrator 28.4.1, SVG Export Plug-In . SVG Version: 6.00 Build 0)  -->
<svg version="1.1" id="Layer_1" xmlns="http://www.w3.org/2000/svg" xmlns:xlink="http://www.w3.org/1999/xlink" x="0px" y="0px"
	 viewBox="0 0 201 207.89" style="enable-background:new 0 0 201 207.89;" xml:space="preserve">
<style type="text/css">
	
		.st0{clip-path:url(#SVGID_00000044864537056202328960000002241627458619657095_);fill:url(#SVGID_00000143610462809334813930000003798036479903739805_);}
	.st1{fill:#C8C5C4;}
	
		.st2{clip-path:url(#SVGID_00000029015654114122991160000017250238559274995858_);fill:url(#SVGID_00000091733426680794112960000016789186801016611756_);}
	
		.st3{clip-path:url(#SVGID_00000174604149663743689210000008973840706299540873_);fill:url(#SVGID_00000135651976866506260410000008440457911698314935_);}
	.st4{fill:#E40F18;}
	.st5{fill:#CAC8CA;}
	.st6{fill:#FFFFFF;}
	
		.st7{clip-path:url(#SVGID_00000152252674434634650230000015067415868240575128_);fill:url(#SVGID_00000153672487950707200550000010905225696978905268_);}
	
		.st8{clip-path:url(#SVGID_00000044144627757453977210000007733731833448843684_);fill:url(#SVGID_00000101102567020140338200000002840017832825192851_);}
	
		.st9{clip-path:url(#SVGID_00000139974205135168078750000010172874043353638565_);fill:url(#SVGID_00000169538100181380289950000017658101600973015430_);}
	
		.st10{clip-path:url(#SVGID_00000003076926607683321560000014623775040175792013_);fill:url(#SVGID_00000095316841527920035310000017567991758939831212_);}
	
		.st11{clip-path:url(#SVGID_00000003814764211497109230000002389441973652454331_);fill:url(#SVGID_00000064345269649348309690000007326198289867418771_);}
	
		.st12{clip-path:url(#SVGID_00000179608789708177898490000002232178663668645565_);fill:url(#SVGID_00000173843503122978607330000001860831498884661683_);}
	
		.st13{clip-path:url(#SVGID_00000173876940407360046660000003862699907771265452_);fill:url(#SVGID_00000043425366946359679520000008977763927649951873_);}
	
		.st14{clip-path:url(#SVGID_00000134246569524687782010000005358134494811872911_);fill:url(#SVGID_00000012439425597275906940000015495735410271405235_);}
	
		.st15{clip-path:url(#SVGID_00000150098880204627084760000005613759550881386381_);fill:url(#SVGID_00000008140462445112717520000003901003221008385945_);}
	
		.st16{clip-path:url(#SVGID_00000168114408698542831790000009801838849726646662_);fill:url(#SVGID_00000041274860669137071930000008292201438801034413_);}
	
		.st17{clip-path:url(#SVGID_00000036941016767981120890000009405423335943439527_);fill:url(#SVGID_00000137123409292012622780000005673000749066999215_);}
	.st18{fill:#2A2522;}
	
		.st19{clip-path:url(#SVGID_00000142156774555913948730000016113403219093075082_);fill:url(#SVGID_00000178883690682381094320000004623062649515546025_);}
</style>
<path d="M55.87,131.51l7.66-11.59h8.59l-9.46,14.35l9.75,14.83h-8.63l-7.81-11.75c-0.94-1.41-1.41-2.41-1.41-3
	c0-0.43,0.14-0.94,0.44-1.54L55.87,131.51z M46.84,119.92h7.52v29.18h-7.52V119.92z"/>
<path d="M86.47,137h6.09l-3.5-9.38L86.47,137z M74.14,149.1l9.55-25.33c0.96-2.56,2.91-3.85,5.85-3.85c2.91,0,4.85,1.28,5.81,3.85
	l9.55,25.33h-7.77l-2.35-6.25H84.26l-2.35,6.25H74.14z"/>
<path d="M105.99,141.97v-22.05h7.52v21.56c0,0.87,0.63,1.3,1.89,1.3h13.29l-0.05,6.32h-13.93c-0.45,0-0.87-0.03-1.26-0.08
	c-2.65-0.16-4.56-0.78-5.72-1.86C106.58,146.02,105.99,144.3,105.99,141.97"/>
<path d="M131.06,143.02v-16.78c0-0.38,0.05-0.81,0.15-1.29c0.64-3.35,3.02-5.02,7.13-5.02h15.52v6.24h-13.53
	c-0.1,0.05-0.26,0.11-0.49,0.16c-0.84,0.27-1.26,0.84-1.26,1.7v3.24h15.28v6.32h-15.28v3.24c0,1.19,0.65,1.84,1.94,1.95h13.34v6.32
	H139.4C133.84,149.1,131.06,147.08,131.06,143.02"/>
<path d="M56.65,171.37l8.34-12.6h9.33l-10.29,15.6l10.6,16.13h-9.39l-8.49-12.78c-1.02-1.53-1.53-2.62-1.53-3.26
	c0-0.47,0.16-1.03,0.48-1.68L56.65,171.37z M46.84,158.77h8.18v31.73h-8.18V158.77z"/>
<path d="M89.67,182.74v-23.97h8.18v23.44c0,0.94,0.68,1.41,2.06,1.41h14.45l-0.05,6.88H99.17c-0.49,0-0.95-0.03-1.37-0.09
	c-2.88-0.18-4.96-0.86-6.22-2.03C90.3,187.15,89.67,185.27,89.67,182.74"/>
<polygon points="129.38,165.56 129.38,158.77 153.86,158.77 153.86,165.56 145.68,165.56 145.68,190.5 137.51,190.5 137.51,165.56 
	"/>
<rect x="78.08" y="163.4" width="8.15" height="27.1"/>
<rect x="78.08" y="158.77" width="8.15" height="3.41"/>
<rect x="117.8" y="163.4" width="8.15" height="27.1"/>
<rect x="117.8" y="158.77" width="8.15" height="3.41"/>
<g>
	<defs>
		<path id="SVGID_1_" d="M85.63,20.94c-17.23,6.25-29.6,23.31-29.6,43.39c0,25.37,19.77,45.95,44.14,45.95
			c24.38,0,44.14-20.58,44.14-45.95c0-20.07-12.36-37.13-29.59-43.39H85.63z"/>
	</defs>
	<clipPath id="SVGID_00000176017215959295349160000001548808192785685414_">
		<use xlink:href="#SVGID_1_"  style="overflow:visible;"/>
	</clipPath>
	
		<linearGradient id="SVGID_00000104690986319727911620000006173228470663418268_" gradientUnits="userSpaceOnUse" x1="-603.3062" y1="637.5538" x2="-599.0676" y2="637.5538" gradientTransform="matrix(674.2842 69.6805 69.6805 -674.2842 289881.75 464495.0312)">
		<stop  offset="0" style="stop-color:#ECEDEE"/>
		<stop  offset="0.3047" style="stop-color:#EAEAEB"/>
		<stop  offset="0.5352" style="stop-color:#DDDADC"/>
		<stop  offset="0.5977" style="stop-color:#FFFFFF"/>
		<stop  offset="0.7891" style="stop-color:#E1E1E2"/>
		<stop  offset="1" style="stop-color:#F7F5F6"/>
	</linearGradient>
	
		<polygon style="clip-path:url(#SVGID_00000176017215959295349160000001548808192785685414_);fill:url(#SVGID_00000104690986319727911620000006173228470663418268_);" points="
		56.95,11.73 153.23,21.91 143.38,119.52 47.1,109.34 	"/>
</g>
<path class="st1" d="M100.18,18.51c-24.27,0-44.02,20.56-44.02,45.82c0,25.26,19.74,45.81,44.02,45.81
	c24.27,0,44.02-20.55,44.02-45.81C144.2,39.07,124.45,18.51,100.18,18.51 M100.18,110.4c-24.41,0-44.27-20.67-44.27-46.07
	c0-25.4,19.86-46.07,44.27-46.07c24.41,0,44.26,20.66,44.26,46.07C144.44,89.73,124.59,110.4,100.18,110.4"/>
<g>
	<defs>
		<path id="SVGID_00000031207431960466710730000013916901741293857682_" d="M61.08,64.33c0,22.48,17.5,40.7,39.1,40.7
			c21.59,0,39.1-18.22,39.1-40.7c0-22.47-17.51-40.69-39.1-40.69C78.58,23.63,61.08,41.85,61.08,64.33"/>
	</defs>
	<clipPath id="SVGID_00000005956719097338902000000001435767649412299446_">
		<use xlink:href="#SVGID_00000031207431960466710730000013916901741293857682_"  style="overflow:visible;"/>
	</clipPath>
	
		<radialGradient id="SVGID_00000009586571373760683320000001384066764445945995_" cx="-1137.5254" cy="27.9658" r="4.3308" gradientTransform="matrix(126.1272 0 0 -131.2778 42375.7422 88863.6328)" gradientUnits="userSpaceOnUse">
		<stop  offset="0" style="stop-color:#CC1518"/>
		<stop  offset="0.3359" style="stop-color:#DB1519"/>
		<stop  offset="0.5938" style="stop-color:#DB1519"/>
		<stop  offset="0.7344" style="stop-color:#AA1A1A"/>
		<stop  offset="0.9336" style="stop-color:#E40F18"/>
		<stop  offset="1" style="stop-color:#E40F18"/>
	</radialGradient>
	
		<rect x="61.08" y="23.64" style="clip-path:url(#SVGID_00000005956719097338902000000001435767649412299446_);fill:url(#SVGID_00000009586571373760683320000001384066764445945995_);" width="78.18" height="81.39"/>
</g>
<g>
	<defs>
		<path id="SVGID_00000114772929816251332230000002251349700923956135_" d="M86.35,59.47c-0.05,1.31-0.08,2.67-0.12,4.05h0.25
			c0,0.08,0.03-1.86,0.05-3.8c0.02-1.91,0.03-3.81-0.01-3.81C86.49,55.91,86.45,56.87,86.35,59.47 M113.77,58.42
			c-0.03,1.54-0.05,3.07-0.05,3.14l0,0H114c-0.03-0.97-0.06-1.92-0.09-2.85c0-2.52-0.02-3.43-0.03-3.43
			C113.84,55.28,113.81,56.85,113.77,58.42 M100.55,54.24C100.55,54.25,100.55,54.25,100.55,54.24 M99.87,60.22
			c-0.12,12.33-0.2,27.17,0,36.54c-3.75,0-7.51-0.15-11.24-0.41c-0.55-1.65-1.01-3.56-1.33-5.79c-1.12-7.96-1.26-18.08-1.07-27.04
			h-0.15c0-0.07,0.03-1.94,0.05-3.81c0.03-3.26,0.04-6.51-0.18-0.26c-0.34,9.87-0.35,21.94,0.95,31.16c0.31,2.18,0.77,4.07,1.3,5.69
			c-3.12-0.23-6.23-0.54-9.28-0.93c-3.29-4.47-5.66-9.96-7.31-14.84c-2.22-6.63-3.08-12.09-3.08-12.3h-0.4
			c0,0.26,0.88,5.79,3.11,12.42c1.61,4.78,3.92,10.17,7.14,14.64c-1.42-0.19-2.83-0.39-4.22-0.6c0.17,0.16,0.35,0.32,0.53,0.49
			c1.33,0.2,2.66,0.39,4.02,0.56c1.74,2.34,3.73,4.4,6.01,5.97c0.84,0.37,1.69,0.72,2.55,1.04c-3.12-1.52-5.78-3.98-8.02-6.94
			c2.99,0.38,6.03,0.68,9.09,0.91c1.34,3.88,3.11,6.21,4.3,7.55c0.15,0.03,0.3,0.06,0.46,0.09l0.08-0.08
			c-1.13-1.21-3-3.52-4.42-7.52c3.68,0.26,7.39,0.41,11.1,0.39c0.08,3.64,0.21,6.41,0.39,7.81l0.4-0.06
			c-0.19-1.39-0.31-4.13-0.39-7.75c3.78-0.01,7.56-0.18,11.29-0.53c-1.42,4.08-3.32,6.43-4.47,7.66l0.1,0.1
			c0.14-0.03,0.29-0.06,0.43-0.09c1.21-1.34,3.02-3.73,4.37-7.71c3.88-0.37,7.7-0.95,11.43-1.76c-3.32,3.73-7.62,6.94-13.16,8.84
			c1.7-0.47,3.37-1.06,4.97-1.76c3.53-1.94,6.44-4.44,8.84-7.22c0.97-0.22,1.94-0.45,2.9-0.7c0.19-0.18,0.37-0.37,0.56-0.56
			c-1,0.27-2.01,0.53-3.03,0.76C133.69,83.11,135,68.18,135,67.78h-0.39c0,0.4-1.35,15.55-10.76,26.53
			c-3.82,0.85-7.74,1.46-11.73,1.84c0.51-1.59,0.96-3.43,1.25-5.54c1.34-9.45,1.29-21.9,0.93-31.91c0-5.83-0.08-3.06-0.13-0.29
			c-0.03,1.61-0.05,3.21-0.05,3.14H114c0.27,9.43,0.2,20.45-1.01,29c-0.31,2.17-0.77,4.03-1.29,5.64c-3.78,0.36-7.6,0.54-11.44,0.55
			c-0.19-9.35-0.11-24.21,0-36.54c0-2.85,0.01-4.75,0.03-5.97l-0.15,0c0,0.06-0.03-0.45-0.05-0.97c-0.03-0.49-0.06-0.98-0.1-0.98
			C99.93,52.3,99.87,53.94,99.87,60.22 M100.3,54.25l0.25-0.01c0-0.05-0.03-0.51-0.05-0.97c-0.03-0.49-0.07-0.97-0.1-0.98
			C100.36,52.3,100.32,52.78,100.3,54.25"/>
	</defs>
	<clipPath id="SVGID_00000127007233521911694340000014974810264056167554_">
		<use xlink:href="#SVGID_00000114772929816251332230000002251349700923956135_"  style="overflow:visible;"/>
	</clipPath>
	
		<linearGradient id="SVGID_00000129167038771031321480000014923624942965547660_" gradientUnits="userSpaceOnUse" x1="-904.7979" y1="433.7237" x2="-900.5699" y2="433.7237" gradientTransform="matrix(329.9795 -1.7278 -1.7278 -329.9795 133479.7969 142504.125)">
		<stop  offset="0" style="stop-color:#FFFFFF"/>
		<stop  offset="0.8555" style="stop-color:#FFFFFF"/>
		<stop  offset="1" style="stop-color:#BDBABB"/>
	</linearGradient>
	
		<polygon style="clip-path:url(#SVGID_00000127007233521911694340000014974810264056167554_);fill:url(#SVGID_00000129167038771031321480000014923624942965547660_);" points="
		67.86,52.31 135,51.95 135.27,104.98 68.13,105.34 	"/>
</g>
<path class="st4" d="M100.18,24.11c-21.3,0-38.62,18.04-38.62,40.22c0,22.17,17.32,40.21,38.62,40.21
	c21.3,0,38.63-18.04,38.63-40.21C138.8,42.15,121.47,24.11,100.18,24.11 M100.18,105.51c-21.82,0-39.57-18.47-39.57-41.18
	s17.75-41.19,39.57-41.19c21.82,0,39.57,18.48,39.57,41.19S121.99,105.51,100.18,105.51"/>
<path class="st5" d="M100.18,24.07c-21.33,0-38.67,18.06-38.67,40.26c0,22.2,17.35,40.26,38.67,40.26
	c21.32,0,38.67-18.07,38.67-40.26C138.85,42.13,121.5,24.07,100.18,24.07 M100.18,105.46c-21.79,0-39.52-18.45-39.52-41.13
	c0-22.68,17.73-41.14,39.52-41.14c21.79,0,39.53,18.45,39.53,41.14C139.7,87.01,121.97,105.46,100.18,105.46"/>
<polygon class="st6" points="93.37,31.71 93.55,53.3 94.1,53.37 94.42,31.71 "/>
<polygon class="st6" points="95.58,30.08 95.8,53.44 96.34,53.7 96.67,30.08 "/>
<polygon class="st6" points="97.45,28.82 97.66,53.3 98.54,53.22 98.61,28.82 "/>
<g>
	<defs>
		<polygon id="SVGID_00000019663754730883481970000012035127262316698247_" points="99.7,29.04 99.95,53.52 101.37,53.44 
			101.43,29.04 		"/>
	</defs>
	<clipPath id="SVGID_00000019656345758350587210000011535039723778420144_">
		<use xlink:href="#SVGID_00000019663754730883481970000012035127262316698247_"  style="overflow:visible;"/>
	</clipPath>
	
		<linearGradient id="SVGID_00000067918459045559643160000010526674536975952788_" gradientUnits="userSpaceOnUse" x1="-280.8966" y1="-12.6515" x2="-280.8188" y2="-12.6515" gradientTransform="matrix(26.7215 -0.3731 -0.3731 -26.7215 7600.7793 -401.5762)">
		<stop  offset="0" style="stop-color:#E40F18"/>
		<stop  offset="0.8633" style="stop-color:#B21D1A"/>
		<stop  offset="1" style="stop-color:#B21D1A"/>
	</linearGradient>
	
		<polygon style="clip-path:url(#SVGID_00000019656345758350587210000011535039723778420144_);fill:url(#SVGID_00000067918459045559643160000010526674536975952788_);" points="
		99.36,29.05 101.43,29.02 101.77,53.52 99.69,53.55 	"/>
</g>
<g>
	<defs>
		<polygon id="SVGID_00000176006437787723310600000010479516095073134753_" points="102.22,29.85 102.47,54.33 103.88,54.26 
			103.96,29.85 		"/>
	</defs>
	<clipPath id="SVGID_00000152239940143199081870000006055659907368893059_">
		<use xlink:href="#SVGID_00000176006437787723310600000010479516095073134753_"  style="overflow:visible;"/>
	</clipPath>
	
		<linearGradient id="SVGID_00000029006894070301855040000006347534465492701373_" gradientUnits="userSpaceOnUse" x1="-280.874" y1="-12.8191" x2="-280.7961" y2="-12.8191" gradientTransform="matrix(26.7063 -0.3729 -0.3729 -26.7063 7598.377 -404.9795)">
		<stop  offset="0" style="stop-color:#E40F18"/>
		<stop  offset="0.8633" style="stop-color:#B21D1A"/>
		<stop  offset="1" style="stop-color:#B21D1A"/>
	</linearGradient>
	
		<polygon style="clip-path:url(#SVGID_00000152239940143199081870000006055659907368893059_);fill:url(#SVGID_00000029006894070301855040000006347534465492701373_);" points="
		101.89,29.86 103.96,29.83 104.29,54.33 102.22,54.36 	"/>
</g>
<g>
	<defs>
		<polygon id="SVGID_00000144312027545392073530000008820004818652593314_" points="104.97,30.71 105.22,55.19 106.63,55.11 
			106.71,30.71 		"/>
	</defs>
	<clipPath id="SVGID_00000000910493607677288780000001201422824593852048_">
		<use xlink:href="#SVGID_00000144312027545392073530000008820004818652593314_"  style="overflow:visible;"/>
	</clipPath>
	
		<linearGradient id="SVGID_00000031167651039235488830000013343187607471414416_" gradientUnits="userSpaceOnUse" x1="-280.8113" y1="-12.6221" x2="-280.7335" y2="-12.6221" gradientTransform="matrix(26.706 -0.3729 -0.3729 -26.706 7599.4502 -398.8297)">
		<stop  offset="0" style="stop-color:#E40F18"/>
		<stop  offset="0.8633" style="stop-color:#B21D1A"/>
		<stop  offset="1" style="stop-color:#B21D1A"/>
	</linearGradient>
	
		<polygon style="clip-path:url(#SVGID_00000000910493607677288780000001201422824593852048_);fill:url(#SVGID_00000031167651039235488830000013343187607471414416_);" points="
		104.64,30.73 106.71,30.7 107.04,55.19 104.97,55.22 	"/>
</g>
<g>
	<defs>
		<polygon id="SVGID_00000163055609673894935850000017938446955301927609_" points="107.47,31.56 107.72,56.04 109.13,55.96 
			109.21,31.56 		"/>
	</defs>
	<clipPath id="SVGID_00000108305360633399569810000013440688922634994110_">
		<use xlink:href="#SVGID_00000163055609673894935850000017938446955301927609_"  style="overflow:visible;"/>
	</clipPath>
	
		<linearGradient id="SVGID_00000160913334129190366580000008630694670623370635_" gradientUnits="userSpaceOnUse" x1="-280.7654" y1="-12.3442" x2="-280.6874" y2="-12.3442" gradientTransform="matrix(26.7119 -0.373 -0.373 -26.7119 7602.4761 -390.6396)">
		<stop  offset="0" style="stop-color:#E40F18"/>
		<stop  offset="0.8633" style="stop-color:#B21D1A"/>
		<stop  offset="1" style="stop-color:#B21D1A"/>
	</linearGradient>
	
		<polygon style="clip-path:url(#SVGID_00000108305360633399569810000013440688922634994110_);fill:url(#SVGID_00000160913334129190366580000008630694670623370635_);" points="
		107.13,31.57 109.2,31.54 109.54,56.04 107.46,56.07 	"/>
</g>
<g>
	<defs>
		<polygon id="SVGID_00000048461790735745391440000016487416540580138626_" points="86.15,36.48 86.4,60.96 87.7,60.89 87.77,36.48 
					"/>
	</defs>
	<clipPath id="SVGID_00000057858952754367430750000015346231155544194997_">
		<use xlink:href="#SVGID_00000048461790735745391440000016487416540580138626_"  style="overflow:visible;"/>
	</clipPath>
	
		<linearGradient id="SVGID_00000137823046973492926050000004778744582515598248_" gradientUnits="userSpaceOnUse" x1="-281.7286" y1="-18.3543" x2="-281.6542" y2="-18.3543" gradientTransform="matrix(26.4953 -0.37 -0.37 -26.4953 7543.6719 -541.7983)">
		<stop  offset="0" style="stop-color:#E40F18"/>
		<stop  offset="0.8477" style="stop-color:#B21D1A"/>
		<stop  offset="1" style="stop-color:#B21D1A"/>
	</linearGradient>
	
		<polygon style="clip-path:url(#SVGID_00000057858952754367430750000015346231155544194997_);fill:url(#SVGID_00000137823046973492926050000004778744582515598248_);" points="
		85.81,36.49 87.77,36.46 88.11,60.95 86.14,60.98 	"/>
</g>
<g>
	<defs>
		<polygon id="SVGID_00000080893978131882459330000017823105105384021173_" points="88.71,37.19 88.97,61.67 90.27,61.59 
			90.34,37.19 		"/>
	</defs>
	<clipPath id="SVGID_00000017497281470915497930000009149181092814884028_">
		<use xlink:href="#SVGID_00000080893978131882459330000017823105105384021173_"  style="overflow:visible;"/>
	</clipPath>
	
		<linearGradient id="SVGID_00000057854305410539381520000005696047909733867150_" gradientUnits="userSpaceOnUse" x1="-281.7278" y1="-18.0664" x2="-281.6534" y2="-18.0664" gradientTransform="matrix(26.5067 -0.3701 -0.3701 -26.5067 7549.5332 -533.7106)">
		<stop  offset="0" style="stop-color:#E40F18"/>
		<stop  offset="0.8477" style="stop-color:#B21D1A"/>
		<stop  offset="1" style="stop-color:#B21D1A"/>
	</linearGradient>
	
		<polygon style="clip-path:url(#SVGID_00000017497281470915497930000009149181092814884028_);fill:url(#SVGID_00000057854305410539381520000005696047909733867150_);" points="
		88.38,37.2 90.34,37.17 90.68,61.66 88.71,61.69 	"/>
</g>
<g>
	<defs>
		<polygon id="SVGID_00000118381985084239082880000016849720838745704625_" points="91.24,37.93 91.49,62.41 92.79,62.33 
			92.86,37.93 		"/>
	</defs>
	<clipPath id="SVGID_00000078743201896588050030000003147681441453043357_">
		<use xlink:href="#SVGID_00000118381985084239082880000016849720838745704625_"  style="overflow:visible;"/>
	</clipPath>
	
		<linearGradient id="SVGID_00000005256029000184151890000002883228241465636745_" gradientUnits="userSpaceOnUse" x1="-281.7016" y1="-18.04" x2="-281.6273" y2="-18.04" gradientTransform="matrix(26.5018 -0.3701 -0.3701 -26.5018 7549.9795 -532.154)">
		<stop  offset="0" style="stop-color:#E40F18"/>
		<stop  offset="0.8477" style="stop-color:#B21D1A"/>
		<stop  offset="1" style="stop-color:#B21D1A"/>
	</linearGradient>
	
		<polygon style="clip-path:url(#SVGID_00000078743201896588050030000003147681441453043357_);fill:url(#SVGID_00000005256029000184151890000002883228241465636745_);" points="
		90.9,37.93 92.86,37.9 93.2,62.41 91.24,62.44 	"/>
</g>
<polygon class="st6" points="84.37,36.48 84.5,58.06 85.38,58.14 85.53,36.48 "/>
<polygon class="st6" points="82.14,36.89 82.39,58.83 82.9,58.81 83.3,36.89 "/>
<polygon class="st6" points="79.75,37.97 80,59.9 80.51,59.89 80.91,37.97 "/>
<polygon class="st6" points="77.3,39.07 77.55,61.02 78.06,61 78.46,39.07 "/>
<polygon class="st6" points="110.21,40.16 110.46,62.1 110.97,62.08 111.37,40.16 "/>
<polygon class="st6" points="112.06,38.33 112.3,60.28 112.82,60.26 113.21,38.33 "/>
<polygon class="st6" points="113.83,36.94 114.08,58.89 114.59,58.86 114.99,36.94 "/>
<g>
	<defs>
		<polygon id="SVGID_00000090979704407529681790000004352933877360556171_" points="116.01,37.05 116.27,61.53 117.68,61.46 
			117.75,37.05 		"/>
	</defs>
	<clipPath id="SVGID_00000069363916151877804760000009983532844909184700_">
		<use xlink:href="#SVGID_00000090979704407529681790000004352933877360556171_"  style="overflow:visible;"/>
	</clipPath>
	
		<linearGradient id="SVGID_00000035488939234326124170000012066385091530528933_" gradientUnits="userSpaceOnUse" x1="-280.7359" y1="-11.9433" x2="-280.6581" y2="-11.9433" gradientTransform="matrix(26.7091 -0.373 -0.373 -26.7091 7609.5776 -374.3876)">
		<stop  offset="0" style="stop-color:#E40F18"/>
		<stop  offset="0.8633" style="stop-color:#B21D1A"/>
		<stop  offset="1" style="stop-color:#B21D1A"/>
	</linearGradient>
	
		<polygon style="clip-path:url(#SVGID_00000069363916151877804760000009983532844909184700_);fill:url(#SVGID_00000035488939234326124170000012066385091530528933_);" points="
		115.68,37.06 117.75,37.03 118.08,61.52 116.01,61.55 	"/>
</g>
<g>
	<defs>
		<polygon id="SVGID_00000175282651314278537760000008503133214358650549_" points="118.53,37.86 118.79,62.34 120.2,62.27 
			120.28,37.86 		"/>
	</defs>
	<clipPath id="SVGID_00000067225604255556571250000004933681392319820209_">
		<use xlink:href="#SVGID_00000175282651314278537760000008503133214358650549_"  style="overflow:visible;"/>
	</clipPath>
	
		<linearGradient id="SVGID_00000043431088561494297210000008722445917989520532_" gradientUnits="userSpaceOnUse" x1="-280.6907" y1="-11.709" x2="-280.6125" y2="-11.709" gradientTransform="matrix(26.7128 -0.373 -0.373 -26.7128 7612.0186 -367.3604)">
		<stop  offset="0" style="stop-color:#E40F18"/>
		<stop  offset="0.8633" style="stop-color:#B21D1A"/>
		<stop  offset="1" style="stop-color:#B21D1A"/>
	</linearGradient>
	
		<polygon style="clip-path:url(#SVGID_00000067225604255556571250000004933681392319820209_);fill:url(#SVGID_00000043431088561494297210000008722445917989520532_);" points="
		118.19,37.87 120.27,37.84 120.61,62.34 118.52,62.37 	"/>
</g>
<g>
	<defs>
		<polygon id="SVGID_00000055676028723612810580000004370740121552784023_" points="121.29,38.72 121.53,63.2 122.95,63.12 
			123.02,38.72 		"/>
	</defs>
	<clipPath id="SVGID_00000104695347895846098550000001363693179489036220_">
		<use xlink:href="#SVGID_00000055676028723612810580000004370740121552784023_"  style="overflow:visible;"/>
	</clipPath>
	
		<linearGradient id="SVGID_00000080889271333731487800000002340066055451297469_" gradientUnits="userSpaceOnUse" x1="-280.6355" y1="-11.6093" x2="-280.5577" y2="-11.6093" gradientTransform="matrix(26.7081 -0.3729 -0.3729 -26.7081 7612.0371 -363.7483)">
		<stop  offset="0" style="stop-color:#E40F18"/>
		<stop  offset="0.8633" style="stop-color:#B21D1A"/>
		<stop  offset="1" style="stop-color:#B21D1A"/>
	</linearGradient>
	
		<polygon style="clip-path:url(#SVGID_00000104695347895846098550000001363693179489036220_);fill:url(#SVGID_00000080889271333731487800000002340066055451297469_);" points="
		120.95,38.72 123.02,38.69 123.35,63.2 121.28,63.23 	"/>
</g>
<g>
	<defs>
		<path id="SVGID_00000076594661298062768130000014290276429295962525_" d="M153.35,35.81c-15.41,10.58-33.38,16.2-52.59,16.2
			c-17.86,0-36.37-4.83-51.22-14.03V48c1.44,7.71,2.28,15.96,2.28,23.53c0,7.56-0.84,14.94-2.28,22.03v9.64
			c14.86-9.1,33.36-13.23,51.22-13.23c19.26,0,37.27,4.84,52.71,15.47c0.1,0.07,0.22-0.06,0.17-0.19
			c-3.18-10.52-5.21-21.84-5.21-33.62c0-11.78,2.02-25.13,5.21-35.7c0.03-0.1-0.06-0.16-0.16-0.16
			C153.44,35.77,153.4,35.79,153.35,35.81"/>
	</defs>
	<clipPath id="SVGID_00000181807597533535441750000010703695122781455028_">
		<use xlink:href="#SVGID_00000076594661298062768130000014290276429295962525_"  style="overflow:visible;"/>
	</clipPath>
	
		<linearGradient id="SVGID_00000093863778076266711690000006214364090208673423_" gradientUnits="userSpaceOnUse" x1="-657.9393" y1="587.787" x2="-653.71" y2="587.787" gradientTransform="matrix(1242.9576 -36.8901 -36.8901 -1242.9576 616761.875 713006.5625)">
		<stop  offset="0" style="stop-color:#EEEDEE"/>
		<stop  offset="0.3125" style="stop-color:#EEEDEE"/>
		<stop  offset="0.5703" style="stop-color:#EEEDEE"/>
		<stop  offset="0.6328" style="stop-color:#FFFFFF"/>
		<stop  offset="0.8008" style="stop-color:#EEEDEE"/>
		<stop  offset="0.9062" style="stop-color:#F9F9FA"/>
		<stop  offset="1" style="stop-color:#F9F9FA"/>
	</linearGradient>
	
		<polygon style="clip-path:url(#SVGID_00000181807597533535441750000010703695122781455028_);fill:url(#SVGID_00000093863778076266711690000006214364090208673423_);" points="
		47.48,35.89 153.57,32.67 155.68,105.52 49.6,108.73 	"/>
</g>
<path class="st1" d="M100.76,89.89c20.08,0,37.84,5.21,52.75,15.48l0.01,0.01c0.01,0,0.02-0.01,0.03-0.02
	c0.02-0.02,0.02-0.05,0.01-0.08c-3.47-11.44-5.22-22.75-5.22-33.64c0-11.54,1.94-24.9,5.21-35.73c0.01-0.01,0-0.03,0-0.03
	c-0.01-0.02-0.07-0.06-0.16,0c-7.7,5.29-16.07,9.36-24.89,12.08c-8.87,2.75-18.21,4.14-27.74,4.14c-19.38,0-38.99-5.71-53.81-15.68
	c-0.03-0.03-0.07,0-0.08,0.01c3.14,10.67,5.02,23.79,5.02,35.11c0,10.72-1.71,21.88-5.08,33.17c-0.01,0.04,0,0.08,0.02,0.1
	c0.01,0.02,0.02,0.03,0.02,0.03C61.16,95.2,80.3,89.89,100.76,89.89 M153.53,105.54c-0.04,0-0.07-0.01-0.1-0.03
	c-14.89-10.26-32.61-15.46-52.67-15.46c-20.43,0-39.54,5.29-53.82,14.91c-0.07,0.06-0.18,0.03-0.23-0.05
	c-0.05-0.07-0.07-0.17-0.04-0.26c3.36-11.28,5.07-22.43,5.07-33.13c0-11.3-1.88-24.41-5.02-35.06c-0.02-0.05,0-0.11,0.03-0.16
	c0.06-0.09,0.2-0.1,0.29-0.04c14.8,9.95,34.38,15.65,53.73,15.65c18.96,0,37.13-5.59,52.55-16.18c0.12-0.09,0.3-0.07,0.38,0.03
	c0.04,0.06,0.05,0.12,0.03,0.18c-3.26,10.82-5.21,24.15-5.21,35.68c0,10.87,1.75,22.18,5.21,33.59c0.03,0.08,0.01,0.16-0.03,0.23
	C153.65,105.51,153.59,105.54,153.53,105.54"/>
<path class="st4" d="M48.19,38.41c2.98,9.41,6.12,21.67,6.12,32.16c0,10.52-3.13,22.07-6.15,31.51c-0.03,0.09,0.06,0.19,0.13,0.14
	c14.68-9.34,34.21-16.14,52.41-16.14c18.5,0,36.39,6.97,51.22,16.62c0.09,0.06,0.2-0.03,0.16-0.13c-3.09-9.56-6.27-21.23-6.27-31.91
	c0-10.65,3.17-23.03,6.27-32.6c0.04-0.11-0.07-0.21-0.16-0.15c-14.83,9.64-32.72,17.34-51.22,17.34c-18.2,0-37.74-7.54-52.42-16.89
	C48.24,38.35,48.18,38.38,48.19,38.41"/>
<path class="st18" d="M105.47,57.4c1.29,0.33,10.61-0.98,11.2-1.13c-0.39,0.15-0.98,0.36-1.66,0.91c-1.39,1.13-1.75,2.26-1.98,3.8
	c-0.23,1.55-0.1,20.51-0.1,20.51s0.44,0.36,4.21,0.36c3.77,0,6.39-6.03,6.39-6.03s0.09,8.78-0.05,11.32
	c-7.41-2.13-19.06-2.87-19.06-2.87s2.36-0.76,2.46-2.58c0.09-1.82-0.23-21.31-0.23-21.31C106.52,58.83,105.82,57.83,105.47,57.4
	 M79.77,86.27l7.43-25.14c0.69-3.88-1.07-4.79-1.07-4.79s1.81,0.28,3.14,0.39c1.19,0.1,4.08,0.59,4.08,0.59
	c1.13,0,6.14,21.02,7.27,23.3c1.51,3.07,3.34,3.58,3.34,3.58c-5.28-0.15-11.21,0.14-11.21,0.14s1.4-0.68,1.47-2.06
	c0.1-2.17-1.17-5.11-1.17-5.11s-0.98,0.06-3.74,0.31c-2.15,0.19-3.35,0.39-3.35,0.39s-0.93,2.72-0.96,3.6
	c-0.13,2.87,1.94,3.68,1.94,3.68C82.79,85.65,79.77,86.27,79.77,86.27 M90.45,65.56h-1.07c-0.74,2.82-1.56,5.56-2.43,8.79l5.61-0.31
	C91.85,71.02,91.17,68.56,90.45,65.56 M54.6,45.89c0,0,5.94,3.32,11.04,5.06c0,0-2.58,0.17-2.58,4.45l-0.12,9.96
	c0,0,6.38-10.35,6.7-11.2c0.51-1.36,1.45-1.22,1.45-1.22s2.79,1.01,6.86,2.01c0,0-1.59,0.4-3.15,2.46
	c-1.26,1.66-7.77,11.45-7.77,11.45s6.73,14.51,7.77,15.85c1.04,1.33,3.57,1.83,4.01,1.86c-5.63,1.49-7.33,2.19-8.17,2.43
	c-0.91,0.33-1.64-0.79-2.31-2.72l-5.5-13.19c0,0-0.11,10.65-0.23,14.12c-0.11,3.49,2.24,4.02,2.24,4.02s-5.72,2.05-10.78,4.96
	c2.14-6.06,2.27-11.93,2.27-11.93c0.79-7.05,0.95-13.92,0.23-26.14C55.99,48.44,54.6,45.89,54.6,45.89 M147.37,45.03
	c-1.81,5.4-2.18,12.71-2.18,12.71s-1.97-5.22-6.1-4.37c-4.11,0.84-4.71,1.51-4.71,1.51l0.19,13.17c0,0,5.16,0.1,6.16-0.62
	c0.78-0.57,1.2-1.26,1.2-1.26l-0.05,8.09c0,0-1.47-1.5-2.85-1.87c-1.38-0.36-4.23-0.24-4.23-0.24l-0.35,14.6c0,0,3.26,1.62,5.7,1.26
	c3.42-0.51,4.92-5.68,4.92-5.68s0.66,10.8,2.09,13.91c-1.43-1-9.4-4.78-13.61-6.31c-4.2-1.54-8.66-2.58-8.66-2.58
	s1.88-0.2,2.71-3.24c0.48-1.75,0.11-26.85,0.11-26.85c-0.2-2.35-2.1-3.08-2.1-3.08S143.08,48.26,147.37,45.03"/>
<g>
	<defs>
		<path id="SVGID_00000117668004198961258760000010063399550588801448_" d="M89.01,65.18h1.06c0.72,3.01,1.41,5.46,2.11,8.48
			l-5.61,0.31C87.45,70.73,88.27,68.01,89.01,65.18 M86.83,60.75L79.4,85.9c0,0,3.03-0.63,7.17-1.13c0,0-2.06-0.81-1.94-3.68
			c0.03-0.88,0.96-3.59,0.96-3.59s1.2-0.2,3.35-0.39c2.75-0.24,3.74-0.31,3.74-0.31s1.28,2.94,1.17,5.11
			c-0.06,1.39-1.46,2.07-1.46,2.07s5.93-0.29,11.21-0.14c0,0-1.82-0.51-3.34-3.58c-1.13-2.29-6.13-23.3-7.27-23.3
			c0,0-2.89-0.5-4.08-0.6c-1.32-0.11-3.14-0.39-3.14-0.39S87.52,56.88,86.83,60.75 M105.09,57.01c0.36,0.44,1.05,1.44,1.16,2.98
			c0,0,0.33,19.49,0.23,21.31c-0.1,1.82-2.45,2.58-2.45,2.58s11.65,0.75,19.06,2.87c0.14-2.53,0.06-11.31,0.06-11.31
			s-2.62,6.02-6.39,6.02c-3.77,0-4.21-0.36-4.21-0.36s-0.13-18.96,0.1-20.5c0.23-1.54,0.6-2.67,1.99-3.8
			c0.68-0.55,1.27-0.76,1.66-0.91C115.71,56.04,106.39,57.35,105.09,57.01 M56.18,57.76c0.71,12.22,0.56,19.09-0.24,26.14
			c0,0-0.11,5.86-2.27,11.93c5.07-2.92,10.78-4.96,10.78-4.96s-2.35-0.54-2.24-4.01c0.12-3.48,0.23-14.13,0.23-14.13l5.5,13.19
			c0.68,1.92,1.41,3.05,2.32,2.72c0.84-0.24,2.54-0.94,8.17-2.43c-0.44-0.03-2.97-0.53-4-1.87c-1.04-1.33-7.77-15.84-7.77-15.84
			s6.51-9.8,7.77-11.45c1.56-2.05,3.15-2.46,3.15-2.46c-4.07-1-6.86-2.02-6.86-2.02s-0.94-0.12-1.44,1.22
			c-0.32,0.86-6.7,11.21-6.7,11.21l0.12-9.96c0-4.29,2.57-4.46,2.57-4.46c-5.1-1.75-11.04-5.06-11.04-5.06S55.61,48.06,56.18,57.76
			 M125.25,53.8c0,0,1.9,0.74,2.1,3.08c0,0,0.36,25.1-0.11,26.86c-0.83,3.03-2.71,3.23-2.71,3.23s4.46,1.04,8.66,2.58
			c4.2,1.54,12.17,5.3,13.61,6.31c-1.44-3.11-2.1-13.91-2.1-13.91s-1.51,5.17-4.92,5.68c-2.43,0.36-5.7-1.26-5.7-1.26l0.35-14.61
			c0,0,2.84-0.13,4.23,0.24c1.38,0.36,2.85,1.88,2.85,1.88l0.05-8.09c0,0-0.42,0.69-1.2,1.26c-1.01,0.74-6.16,0.63-6.16,0.63
			l-0.19-13.17c0,0,0.6-0.67,4.72-1.52c4.11-0.84,6.09,4.37,6.09,4.37s0.37-7.3,2.19-12.71C142.71,47.88,125.25,53.8,125.25,53.8"/>
	</defs>
	<clipPath id="SVGID_00000029768373027770937720000002715334184122542485_">
		<use xlink:href="#SVGID_00000117668004198961258760000010063399550588801448_"  style="overflow:visible;"/>
	</clipPath>
	
		<linearGradient id="SVGID_00000168811930994327885930000003359869211222431876_" gradientUnits="userSpaceOnUse" x1="-132.7578" y1="596.1858" x2="-128.5304" y2="596.1858" gradientTransform="matrix(429.2161 0 0 -429.2161 275319.125 255962.8125)">
		<stop  offset="0" style="stop-color:#FFFFFF"/>
		<stop  offset="0.0352" style="stop-color:#FFFFFF"/>
		<stop  offset="0.1602" style="stop-color:#EAEAEB"/>
		<stop  offset="0.3047" style="stop-color:#E8E9EB"/>
		<stop  offset="0.5156" style="stop-color:#FFFFFF"/>
		<stop  offset="0.7461" style="stop-color:#FFFFFF"/>
		<stop  offset="0.9258" style="stop-color:#E8E9EB"/>
		<stop  offset="1" style="stop-color:#F7F6F7"/>
	</linearGradient>
	
		<rect x="53.66" y="44.65" style="clip-path:url(#SVGID_00000029768373027770937720000002715334184122542485_);fill:url(#SVGID_00000168811930994327885930000003359869211222431876_);" width="93.33" height="51.21"/>
</g>
</svg>
