<?xml version="1.0" encoding="utf-8"?>
<!-- Generator: Adobe Illustrator 28.4.1, SVG Export Plug-In . SVG Version: 6.00 Build 0)  -->
<svg version="1.1" id="Layer_1" xmlns="http://www.w3.org/2000/svg" xmlns:xlink="http://www.w3.org/1999/xlink" x="0px" y="0px"
	 viewBox="0 0 201 207.89" style="enable-background:new 0 0 201 207.89;" xml:space="preserve">
<style type="text/css">
	.st0{fill:#FFFFFF;}
	.st1{fill:#DB0812;}
</style>
<g>
	<path d="M57.44,161.86h-9.5l-2.19-16.51l-0.43-3.89l-0.33-4.67c-0.24,1.65-0.7,3.67-1.4,6.05l-0.33,1.12l-5.07,17.89h-6.77
		l-5.07-17.89l-0.3-1.12c-0.69-2.35-1.16-4.36-1.4-6.02c0,0.71-0.04,1.42-0.1,2.14c-0.12,0.97-0.2,1.69-0.25,2.17
		c-0.14,1.56-0.3,2.97-0.49,4.22l-2.19,16.51h-9.44l5.75-38.18h10.06l5.63,19.69l0.2,0.68c0.51,1.76,0.84,3.26,0.99,4.51
		c0-0.33,0.02-0.62,0.08-0.87c0.05-0.25,0.16-0.74,0.32-1.47c0.16-0.73,0.41-1.69,0.75-2.9l5.67-19.64h10.08L57.44,161.86z"/>
	<polygon points="62.92,161.86 62.92,123.68 85.75,123.68 85.75,132.06 72.82,132.06 72.82,138.68 85.01,138.68 85.01,146.87 
		72.82,146.87 72.82,153.31 85.75,153.31 85.75,161.86 	"/>
	<polygon points="97.84,161.86 97.84,132.71 89.49,132.71 89.49,123.68 116.34,123.68 116.34,132.71 108,132.71 108,161.86 	"/>
	<path d="M130.83,141.73h1.88c2.19,0,3.79-0.38,4.8-1.15c1.01-0.76,1.51-1.96,1.51-3.6c0-1.91-0.47-3.27-1.41-4.08
		c-0.94-0.8-2.52-1.21-4.75-1.21h-2.04V141.73z M121.31,161.86v-38.18h10.61c4.21,0,7.11,0.19,8.71,0.57c1.6,0.38,3,1.04,4.23,1.98
		c1.3,1.03,2.33,2.36,3.06,4c0.74,1.64,1.11,3.42,1.11,5.33c0,2.94-0.71,5.33-2.11,7.18c-1.41,1.85-3.48,3.09-6.21,3.72l10.15,15.39
		h-11.48l-8.55-14.94v14.94H121.31z"/>
	<path d="M164.58,147.6h10.11l-3.79-12.6l-0.49-1.85l-0.79-3.29c-0.12,0.52-0.22,0.98-0.32,1.38c-0.09,0.4-0.21,0.83-0.34,1.3
		l-0.64,2.45L164.58,147.6z M150.35,161.86l12.86-38.18h12.73l12.88,38.18h-10.11l-1.88-6.83h-14.43l-1.93,6.83H150.35z"/>
	<path class="st0" d="M112.59,68.92c0.04-0.02,0.08-0.04,0.12-0.06l-0.04-0.5C112.65,68.54,112.62,68.74,112.59,68.92"/>
	<path class="st1" d="M112.68,68.36l0.04,0.5c4.54-2.32,9.19-4.46,13.89-6.31l-2.48-16.52h-17.16l-9.02,31.19
		c4.67-2.88,9.58-5.7,14.65-8.3C112.62,68.74,112.65,68.54,112.68,68.36"/>
	<path class="st1" d="M76.62,82.92c0.32-2.13,0.59-4.53,0.82-7.19c0.09-0.8,0.23-2.03,0.43-3.68c0.12-1.21,0.17-2.43,0.17-3.64
		c0.41,2.84,1.2,6.26,2.38,10.26l0.52,1.91l1.9,6.7c3.29-2.35,6.85-4.79,10.6-7.22l-0.15-0.5l-9.58-33.52H66.61l-9.27,61.55
		c4.25-3.75,10.47-9.02,17.97-14.73L76.62,82.92z"/>
	<path class="st1" d="M89.58,111.03h11.53l8.62-30.46l0.13-0.43c-7.61,5.31-15.99,11.71-23.71,18.78L89.58,111.03z"/>
	<path class="st1" d="M113.4,77.71l0.58,5.21l3.73,28.1h16.16l-6.35-42.32C123.77,70.95,118.86,74.02,113.4,77.71"/>
	<path d="M52.69,114.9c0,0,40.65-39.27,81.3-52.58c0,0-44.28,23.71-65.64,52.58H52.69z"/>
</g>
</svg>
