<?xml version="1.0" encoding="utf-8"?>
<!-- Generator: Adobe Illustrator 28.4.1, SVG Export Plug-In . SVG Version: 6.00 Build 0)  -->
<svg version="1.1" id="Layer_1" xmlns="http://www.w3.org/2000/svg" xmlns:xlink="http://www.w3.org/1999/xlink" x="0px" y="0px"
	 viewBox="0 0 292.84 167.09" style="enable-background:new 0 0 292.84 167.09;" xml:space="preserve">
<style type="text/css">
	.st0{fill:#E94E14;}
</style>
<g>
	<path class="st0" d="M36.79,115.82v25.51c0,1.12,0.66,1.87,1.97,2.26v0.96H26.44v-0.96c1.3-0.38,1.95-1.13,1.95-2.26v-35.53
		c0-1.1-0.64-1.84-1.95-2.19v-1.01h14.27v1.01c-0.87,0.22-1.3,0.69-1.3,1.41c0,0.52,0.27,1.07,0.81,1.64l23.16,24.03v-24.89
		c0-1.1-0.66-1.84-1.98-2.19v-1.01h12.32v1.01c-1.31,0.34-1.97,1.08-1.97,2.19v35.53c0,1.12,0.66,1.87,1.97,2.26v0.96H60.5v-0.96
		c0.85-0.2,1.28-0.64,1.28-1.33c0-0.41-0.49-1.14-1.47-2.17L36.79,115.82z"/>
	<path class="st0" d="M104.72,101.89c7.02,0,12.66,1.98,16.95,5.91c4.54,4.18,6.81,9.45,6.81,15.81c0,6.3-2.27,11.55-6.81,15.74
		c-4.29,3.96-10.04,5.93-17.27,5.93c-7.27,0-13.05-1.97-17.34-5.93c-4.52-4.18-6.78-9.42-6.78-15.72c0-6.87,2.4-12.28,7.21-16.22
		C91.97,103.73,97.71,101.89,104.72,101.89 M104.18,109.01c-3.88,0-7.16,1.19-9.83,3.56c-3.15,2.82-4.72,6.5-4.72,11.04
		c0,4.51,1.57,8.17,4.72,10.98c2.67,2.37,6.03,3.56,10.05,3.56c4,0,7.34-1.19,10.01-3.56c3.15-2.81,4.72-6.46,4.72-10.95
		c0-4.63-1.58-8.32-4.72-11.07C111.68,110.2,108.27,109.01,104.18,109.01"/>
	<path class="st0" d="M172.42,122.59c4.72,1.79,7.08,5.1,7.08,9.92c0,4.3-1.62,7.47-4.88,9.52c-2.67,1.69-6.29,2.53-10.86,2.53
		h-28.67v-0.96c1.3-0.36,1.95-1.11,1.95-2.27v-35.5c0-1.12-0.65-1.86-1.95-2.22v-1.01h28.38c3.51,0,6.15,0.34,7.93,1.01
		c4.48,1.67,6.72,5.05,6.72,10.15C178.11,117.85,176.21,120.8,172.42,122.59 M146.2,119.31h16.06c2.14,0,3.71-0.28,4.72-0.85
		c1.34-0.75,2.02-2.1,2.02-4.06c0-1.71-0.55-2.98-1.64-3.8c-0.96-0.72-2.65-1.08-5.11-1.08H146.2V119.31z M146.2,137.64h15.54
		c2.57,0,4.5-0.31,5.78-0.94c1.76-0.88,2.64-2.47,2.64-4.77c0-2.29-0.88-3.87-2.64-4.75c-1.28-0.64-3.21-0.96-5.78-0.96H146.2
		V137.64z"/>
	<path class="st0" d="M196.92,126.15v11.49h26.96c1.12,0,1.87-0.66,2.24-1.97h0.96v10.86h-0.96c-0.37-1.32-1.12-1.97-2.24-1.97
		h-38.07v-0.96c1.3-0.36,1.95-1.11,1.95-2.26v-35.5c0-1.12-0.65-1.86-1.95-2.22v-1.01h37.33c1.11,0,1.86-0.66,2.24-1.99h0.96v10.88
		h-0.96c-0.34-1.32-1.09-1.97-2.24-1.97h-26.22v9.97h17.02c1.12,0,1.86-0.65,2.22-1.97h0.96v10.59h-0.96
		c-0.36-1.32-1.1-1.97-2.22-1.97H196.92z"/>
	<path class="st0" d="M244.71,137.64h25.78c1.15,0,1.9-0.66,2.24-1.97h0.99v10.86h-0.99c-0.34-1.31-1.09-1.97-2.24-1.97h-36.88
		v-0.96c1.3-0.38,1.95-1.13,1.95-2.27v-35.52c0-1.1-0.65-1.84-1.95-2.19v-1.01h13.08v1.01c-1.31,0.34-1.98,1.08-1.98,2.19V137.64z"
		/>
	<path class="st0" d="M184.69,56.14c2.05,3.14-2.46,5.39-6.54,6.13c-4.04,0.66-10.38,0.09-12.43-3.28
		c-2.05-3.71,3.54-5.61,6.25-6.16C175.44,52.09,182.03,52.34,184.69,56.14 M75.8,29.52c0.27,0.41,2.57,4.11,1.09,3.48
		c-2.13-1.57-3.74-3.77-5.23-5.98c-0.29-0.46-2.49-4.16-1.25-3.79C72.64,24.86,74.23,27.26,75.8,29.52 M84.81,33.82
		c0.43,0.64,2.82,4.48,0.61,3.81c-2.67-0.98-4.74-3.97-6.55-6.49c-0.39-0.59-2.88-4.57-0.9-4.18
		C80.96,28.03,82.87,31.23,84.81,33.82 M97.82,38.03c1.12,1.52,2.55,4.83-0.32,4.31c-3.32-0.83-6.03-3.99-8.26-6.87
		c-0.71-1.08-2.89-4.99-0.16-4.74C92.86,31.52,95.59,34.96,97.82,38.03 M116.48,41.21c1.81,2.7,1.4,5.39-1.82,4.93
		c-4.08-0.81-8.18-3.23-10.46-6.69c-1.32-2.08-2.49-6.08,1.22-5.6C109.91,34.46,113.99,37.57,116.48,41.21 M142.67,41.96
		c1.46,2.95-0.17,5.71-4.13,6.51c-3.83,0.69-10.57-2.07-13.03-5.98c-2.01-3.19-0.58-6.8,3.5-7.22
		C134.07,34.75,140.57,37.96,142.67,41.96 M152.85,39.13c-0.59-3.63,2.12-7.31,7.18-8.71c4.66-1.07,11.26-0.31,13.81,5.42
		c1.85,4.89-2.1,10.01-7.9,10.68C157.28,47.4,153.69,42.88,152.85,39.13 M196.24,75.81c0.93,1.84-4.44,2.45-5.72,2.64
		c-2.76,0.3-7.54,0.69-8.51-0.8c-1.05-1.95,4.41-2.41,5.45-2.56C190.18,74.8,195.35,74.2,196.24,75.81 M191.28,68.64
		c0.8,1.75-3.2,3.38-6.06,3.79c-2.98,0.5-8.62,0.41-10.05-1.73c-1.27-2.14,4.2-3.55,5.76-3.82
		C184.42,66.34,190.08,66.29,191.28,68.64 M199.57,80.2c0.44,1.57-4.21,1.78-5.28,1.93c-2.35,0.3-6.73,0.55-7.27-0.24
		c-0.67-1.32,4.28-1.7,5.1-1.82C194.41,79.79,198.68,79.11,199.57,80.2"/>
	<path class="st0" d="M97.4,49.48c0.67,0.79,2.14,3.11,0.13,2.35c-2.63-1.41-4.9-3.4-6.95-5.62c-0.47-0.57-2.45-3.39-0.49-2.7
		C92.84,45.04,95.21,47.2,97.4,49.48 M111.63,54.57c1.21,1.44,1.37,3.11-0.87,2.56c-3.17-1.23-5.98-3.21-8.42-5.64
		c-0.97-1.15-2.03-3.46,0.34-2.93C106.02,49.9,109,52.05,111.63,54.57 M131.85,57.3c1.74,2.26-0.21,3.31-2.4,3.07
		c-3.7-0.88-7.16-2.66-10-5.3c-1.64-2-0.79-3.62,1.71-3.4C125.09,52.63,128.81,54.51,131.85,57.3 M157.39,57.52
		c1.39,2.18-0.89,4.08-4.42,4.08c-2.8-0.09-7.89-0.73-11.21-4.33c-2.02-2.57,0.43-4.41,3.55-4.47
		C149.73,52.71,155.29,54.59,157.39,57.52 M152.77,77.34c1.56,1.37-2.47,1.06-3.06,0.99c-2.87-0.48-5.73-1.22-8.3-2.69
		c-1.74-1.41,1.84-1.14,2.59-1.04C147.01,75.14,150.05,75.83,152.77,77.34 M173.48,78.15c1.21,1.26-3.68,1.61-4.43,1.62
		c-2.94-0.09-6.01-0.35-8.67-1.8c-1.61-1.6,3.28-1.59,4-1.59C167.43,76.5,172,76.81,173.48,78.15 M124.17,66.26
		c1.5,1.43,0.01,1.76-1.42,1.39c-2.92-1-5.67-2.47-8.13-4.4c-1.33-1.26-0.8-2.09,0.91-1.64C118.6,62.73,121.53,64.26,124.17,66.26
		 M143.66,69.15c1.4,1.8-1.88,1.81-2.65,1.74c-2.23-0.31-7.04-1.58-9.37-3.82c-1.84-1.8,0.72-2.11,2.21-1.93
		C136.82,65.52,141.99,67.19,143.66,69.15 M166.77,69.94c1.76,2-3.3,2.51-4.5,2.53c-3.46-0.2-7.36-0.59-9.97-2.9
		c-1.96-2.29,2.61-2.58,3.91-2.61C159.83,67.19,164.39,67.58,166.77,69.94 M179.42,82.41c1.1,1.07-3.66,1.1-4.27,1.11
		c-2.53-0.01-5.15-0.06-7.54-1.07c-1.11-0.97,3.41-1.02,3.97-1.03C174.18,81.46,178.05,81.43,179.42,82.41"/>
</g>
</svg>
