<?xml version="1.0" encoding="utf-8"?>
<!-- Generator: Adobe Illustrator 28.4.1, SVG Export Plug-In . SVG Version: 6.00 Build 0)  -->
<svg version="1.1" id="Layer_1" xmlns="http://www.w3.org/2000/svg" xmlns:xlink="http://www.w3.org/1999/xlink" x="0px" y="0px"
	 viewBox="0 0 201 207.89" style="enable-background:new 0 0 201 207.89;" xml:space="preserve">
<style type="text/css">
	.st0{fill:#F07E28;}
</style>
<g>
	<path class="st0" d="M124.59,77.7H66.03v-15c0-8.28,6.56-15,14.64-15h29.28c8.09,0,14.64,6.71,14.64,15V77.7z M139.24,77.7v-15
		c0-16.57-13.11-30-29.29-30H80.67c-16.17,0-29.28,13.43-29.28,30v15H22.11v3h146.42v-3H139.24z"/>
	<rect x="163.64" y="137.69" class="st0" width="7.32" height="37.5"/>
	<path class="st0" d="M144.12,145.19h-17.08v30h-7.32v-37.5h24.4c6.74,0,12.2,5.6,12.2,12.5v25H149v-25
		C149,147.43,146.81,145.19,144.12,145.19"/>
	<path class="st0" d="M100.19,137.69h-24.4c-6.74,0-12.2,5.6-12.2,12.5v25h7.32v-25c0-2.76,2.19-5,4.88-5h8.54v30h7.32v-30h8.54
		c2.7,0,4.88,2.24,4.88,5v25h7.32v-25C112.4,143.29,106.93,137.69,100.19,137.69"/>
	<path class="st0" d="M48.95,162.69c0,2.76-2.18,5-4.88,5h-12.2c-2.69,0-4.88-2.24-4.88-5v-12.5c0-2.76,2.19-5,4.88-5h12.2
		c2.7,0,4.88,2.24,4.88,5V162.69z M44.07,137.69h-12.2c-6.74,0-12.2,5.6-12.2,12.5v12.5c0,6.9,5.46,12.5,12.2,12.5h12.2
		c6.74,0,12.2-5.6,12.2-12.5v-12.5C56.27,143.29,50.81,137.69,44.07,137.69"/>
	<path class="st0" d="M67.25,98.7H51.98c-0.2-0.99-0.35-1.99-0.45-3h14.79C66.53,96.73,66.84,97.73,67.25,98.7"/>
	<path class="st0" d="M133.38,110.7H57.25c-0.7-0.96-1.35-1.96-1.93-3h80C134.73,108.73,134.09,109.73,133.38,110.7"/>
	<path class="st0" d="M127.52,116.69H63.1c-1.19-0.91-2.31-1.91-3.34-3h71.11C129.83,114.78,128.71,115.78,127.52,116.69"/>
	<path class="st0" d="M71.89,104.69H53.83c-0.42-0.98-0.79-1.98-1.1-3h16.22C69.79,102.83,70.78,103.84,71.89,104.69"/>
	<path class="st0" d="M67.91,119.69h54.81c-3.98,1.97-8.35,3-12.77,3H80.67C76.25,122.7,71.89,121.67,67.91,119.69"/>
	<rect x="51.39" y="83.7" class="st0" width="14.64" height="3"/>
	<rect x="51.39" y="89.7" class="st0" width="14.64" height="3"/>
	<path class="st0" d="M137.89,101.7h-16.22c-0.83,1.14-1.82,2.15-2.93,3h18.06C137.21,103.72,137.57,102.72,137.89,101.7"/>
	<path class="st0" d="M139.09,95.69H124.3c-0.21,1.03-0.51,2.04-0.93,3h15.27C138.84,97.7,138.99,96.7,139.09,95.69"/>
	<rect x="124.6" y="89.7" class="st0" width="14.64" height="3"/>
	<rect x="124.6" y="83.7" class="st0" width="14.64" height="3"/>
	<path class="st0" d="M178.04,137.61h0.38c0.4,0,0.65-0.23,0.65-0.56c0-0.38-0.27-0.55-0.66-0.55c-0.18,0-0.3,0.01-0.37,0.03V137.61
		z M177.67,136.27c0.19-0.03,0.46-0.06,0.71-0.06c0.39,0,0.65,0.08,0.83,0.24c0.15,0.13,0.23,0.33,0.23,0.57
		c0,0.38-0.24,0.64-0.54,0.74v0.02c0.21,0.08,0.35,0.29,0.41,0.6c0.1,0.41,0.16,0.69,0.22,0.81h-0.38c-0.05-0.09-0.11-0.34-0.18-0.7
		c-0.09-0.41-0.25-0.56-0.58-0.57h-0.35v1.28h-0.37V136.27z"/>
	<path class="st0" d="M178.59,140.04c-1.26,0-2.29-1.05-2.29-2.34c0-1.29,1.02-2.34,2.29-2.34c1.26,0,2.29,1.05,2.29,2.34
		C180.87,138.99,179.85,140.04,178.59,140.04 M178.59,134.88c-1.52,0-2.75,1.26-2.75,2.81c0,1.55,1.23,2.81,2.75,2.81
		c1.52,0,2.75-1.26,2.75-2.81C181.33,136.14,180.1,134.88,178.59,134.88"/>
	<path class="st0" d="M136.09,35.43h0.38c0.39,0,0.65-0.23,0.65-0.56c0-0.38-0.27-0.55-0.66-0.55c-0.18,0-0.3,0.01-0.37,0.03V35.43z
		 M135.73,34.08c0.19-0.03,0.46-0.06,0.71-0.06c0.4,0,0.65,0.09,0.83,0.24c0.14,0.13,0.23,0.33,0.23,0.57
		c0,0.38-0.24,0.64-0.54,0.74v0.02c0.21,0.08,0.35,0.29,0.41,0.6c0.1,0.41,0.16,0.69,0.22,0.81h-0.38c-0.05-0.09-0.11-0.34-0.18-0.7
		c-0.09-0.41-0.24-0.56-0.58-0.57h-0.35v1.28h-0.37V34.08z"/>
	<path class="st0" d="M136.49,37.85c-1.26,0-2.29-1.05-2.29-2.34s1.03-2.34,2.29-2.34c1.26,0,2.29,1.05,2.29,2.34
		S137.76,37.85,136.49,37.85 M136.49,32.7c-1.52,0-2.75,1.26-2.75,2.81s1.23,2.81,2.75,2.81c1.51,0,2.74-1.26,2.74-2.81
		S138.01,32.7,136.49,32.7"/>
</g>
</svg>
