<?xml version="1.0" encoding="utf-8"?>
<!-- Generator: Adobe Illustrator 28.4.1, SVG Export Plug-In . SVG Version: 6.00 Build 0)  -->
<svg version="1.1" id="Layer_1" xmlns="http://www.w3.org/2000/svg" xmlns:xlink="http://www.w3.org/1999/xlink" x="0px" y="0px"
	 viewBox="0 0 201 207.89" style="enable-background:new 0 0 201 207.89;" xml:space="preserve">
<style type="text/css">
	.st0{fill:#FFD618;}
</style>
<g>
	<rect x="17.67" y="19.09" width="165.66" height="169.71"/>
	<path class="st0" d="M48.06,120.19c-8.64,0-8.35-10.27-8.35-10.27c0.46-10.63,8.35-10.1,8.35-10.1s7.89-0.53,8.35,10.1
		C56.41,109.93,56.7,120.19,48.06,120.19 M65.69,109.79c-0.97-18.28-17.68-17.38-17.68-17.38s-16.69-0.91-17.67,17.38
		c0,0-0.62,17.65,17.67,17.65C66.3,127.44,65.69,109.79,65.69,109.79"/>
	<polygon class="st0" points="69.84,93.13 69.84,100.56 89.19,100.56 69.84,119.74 69.84,126.89 100.94,126.89 100.94,119.74 
		81.33,119.74 100.94,100.28 100.94,93.13 	"/>
	<path class="st0" d="M134.78,93.13h-14.66c0,0-14.58-0.44-14.58,16.79c0,0-1.47,16.91,16.5,16.91h12.75v-6.9h-12.02
		c0,0-7.95,0.81-7.6-6.34h19.62v-7.06h-19.62c0,0-1.23-6.43,8.4-6.43h11.22V93.13z"/>
	<path class="st0" d="M140.44,126.89V93.13h17.14c0,0,7.42-0.07,9.99,3c0,0,2.83,3.25,3.09,8.86v21.9h-8.76V104.8
		c0,0,0.53-4.34-5.82-4.34h-6.81v26.43H140.44z"/>
	<rect x="38.92" y="80.46" class="st0" width="7.42" height="8.15"/>
	<rect x="49.79" y="80.46" class="st0" width="7.42" height="8.15"/>
</g>
</svg>
