<?xml version="1.0" encoding="utf-8"?>
<!-- Generator: Adobe Illustrator 28.4.1, SVG Export Plug-In . SVG Version: 6.00 Build 0)  -->
<svg version="1.1" id="Layer_1" xmlns="http://www.w3.org/2000/svg" xmlns:xlink="http://www.w3.org/1999/xlink" x="0px" y="0px"
	 viewBox="0 0 332.32 116.8" style="enable-background:new 0 0 332.32 116.8;" xml:space="preserve">
<style type="text/css">
	.st0{fill:#00989A;}
	.st1{fill:#FFFFFF;}
</style>
<g>
	<g>
		<path class="st0" d="M49.5,14.24c0,0-40.23,0-40.23,40.23v7.86c0,0,0,40.23,40.23,40.23h233.31c0,0,40.23,0,40.23-40.23v-7.86
			c0,0,0-40.23-40.23-40.23H49.5z"/>
	</g>
	<path class="st1" d="M270.77,29.36c-2.44,0-4.51,1.15-6.19,3.44c-1.69,2.29-2.53,5.36-2.53,9.21c0,3.42,0.71,6.76,2.12,10.04
		c1.42,3.28,3.83,7.66,7.25,13.15c1.43,2.29,2.63,4.37,3.62,6.24c0.98,1.87,1.48,3.49,1.48,4.85c0,0.78-0.22,1.43-0.66,1.95
		c-0.44,0.52-1.02,0.78-1.73,0.78c-1.92,0-3.84-2.63-5.74-7.88c-0.52-1.47-0.92-2.41-1.2-2.82c-0.28-0.41-1.2-0.62-2.76-0.62
		c-1.15,0-1.72,0.31-1.72,0.94c0,0.09,0.11,0.82,0.32,2.21l1.62,10.8c0.09,0.69,0.22,1.12,0.41,1.28c0.18,0.16,0.54,0.24,1.05,0.24
		c1.34,0,2.18-0.41,2.53-1.23c0.17-0.41,0.4-0.62,0.68-0.62c0.32,0,0.77,0.17,1.33,0.52c1.45,0.89,2.95,1.33,4.51,1.33
		c2.46,0,4.68-1.11,6.65-3.34c1.97-2.23,2.95-5.43,2.95-9.6c0-3.52-0.57-6.71-1.7-9.55c-1.13-2.84-3.57-7.44-7.31-13.8
		c-3.26-5.51-4.9-9.21-4.9-11.09c0-1.51,0.54-2.27,1.62-2.27c1.51,0,3.23,2.17,5.16,6.52c0.91,2.05,1.52,3.22,1.85,3.5
		c0.32,0.28,1.04,0.42,2.14,0.42c0.97,0,1.57-0.06,1.8-0.19c0.23-0.13,0.34-0.4,0.34-0.81c0-0.11-0.04-0.45-0.13-1.04l-1.75-10.99
		c-0.11-0.69-0.27-1.15-0.49-1.36c-1.06-0.15-1.66-0.23-1.82-0.23c-0.65,0-1.17,0.28-1.56,0.84c-0.61,0.86-0.97,1.35-1.1,1.46
		C274.49,30.11,272.45,29.36,270.77,29.36z M251.07,34.22c0.6,0,1.14,0.38,1.63,1.14c0.48,0.76,1.06,2.11,1.72,4.05
		c0.37,1.08,0.75,1.76,1.14,2.03c0.39,0.27,1.18,0.41,2.35,0.41c1.04,0,1.57-0.29,1.57-0.88c0-0.15-0.04-0.44-0.13-0.88l-1.65-8.37
		c-0.13-0.65-0.31-1.06-0.55-1.23c-0.24-0.17-0.62-0.26-1.13-0.26h-20.69c-0.63,0-1.01,0.08-1.14,0.24
		c-0.13,0.16-0.19,0.66-0.19,1.51c0,0.99,0.06,1.62,0.18,1.88c0.12,0.26,0.5,0.53,1.15,0.81c0.95,0.41,1.44,0.82,1.46,1.23v40.44
		c0,0.86-0.59,1.55-1.78,2.04c-0.78,0.35-1.17,0.9-1.17,1.65c0,1.19,0.08,1.91,0.23,2.16c0.15,0.25,0.5,0.37,1.04,0.37h21.63
		c0.73,0,1.17-0.13,1.31-0.41c0.14-0.27,0.32-1.08,0.53-2.42l1.2-7.36c0.09-0.5,0.13-0.88,0.13-1.14c0-0.86-0.67-1.3-2.01-1.3
		c-0.97,0-1.65,0.18-2.04,0.55c-0.39,0.37-0.77,1.15-1.13,2.33c-0.89,2.83-1.53,4.55-1.93,5.14c-0.4,0.59-1.13,0.89-2.19,0.89h-1.72
		V56.53h2.53c0.48,0,0.83,0.13,1.05,0.39c0.23,0.26,0.46,0.96,0.7,2.11c0.24,1.25,0.48,2.02,0.73,2.29
		c0.25,0.27,0.74,0.41,1.48,0.41c1.12,0,1.79-0.1,2.01-0.31c0.22-0.21,0.32-0.64,0.32-1.31V49.3c0-0.95-0.11-1.5-0.34-1.64
		c-0.23-0.14-1.19-0.21-2.9-0.21c-0.35,0-0.6,0.15-0.76,0.45c-0.16,0.3-0.37,1.22-0.63,2.76c-0.15,0.86-0.37,1.43-0.65,1.69
		c-0.28,0.26-0.72,0.39-1.33,0.39h-2.21V34.22H251.07z M221.78,37.07c0-1.06,0.54-1.77,1.62-2.14c0.58-0.19,0.95-0.42,1.09-0.66
		c0.14-0.25,0.21-0.73,0.21-1.44c0-1.19-0.1-1.92-0.31-2.19c-0.21-0.27-0.59-0.41-1.15-0.41h-14.95c-0.56,0-0.91,0.11-1.04,0.34
		c-0.13,0.23-0.19,0.82-0.19,1.77c0,0.8,0.08,1.37,0.23,1.72c0.15,0.35,0.56,0.66,1.23,0.94c0.78,0.35,1.17,0.92,1.17,1.72v38.53
		c0,1.88-0.62,3.02-1.85,3.41c-0.39,0.13-0.64,0.32-0.76,0.57c-0.12,0.25-0.18,0.81-0.18,1.67c0,1.12,0.45,1.69,1.36,1.69h21.34
		c0.63,0,1.04-0.13,1.25-0.39c0.21-0.26,0.37-0.79,0.5-1.59l1.14-7.75c0.11-0.67,0.16-1.16,0.16-1.46c0-0.43-0.14-0.73-0.42-0.89
		c-0.28-0.16-0.91-0.24-1.88-0.24c-0.89,0-1.51,0.11-1.88,0.34c-0.37,0.23-0.68,0.87-0.94,1.93c-0.74,2.75-1.33,4.5-1.78,5.25
		c-0.45,0.76-1.16,1.14-2.11,1.14h-1.85V37.07z M187.92,34.01c0.12,0.18,0.45,0.39,0.99,0.63c0.73,0.3,1.21,0.69,1.43,1.15
		c0.22,0.47,0.32,1.15,0.32,2.06v38.49c0,0.91-0.58,1.52-1.75,1.85c-0.65,0.19-1.03,0.47-1.14,0.81c-0.11,0.35-0.16,1.3-0.16,2.85
		c0,0.48,0.3,0.71,0.91,0.71h15.83c0.54,0,0.88-0.04,1.01-0.13c0.13-0.09,0.19-0.48,0.19-1.17v-1.26c0-0.58-0.06-0.99-0.19-1.23
		c-0.13-0.24-0.51-0.51-1.13-0.81c-0.97-0.48-1.46-1.12-1.46-1.95V37.04c0-1.47,0.67-2.32,2.01-2.56c0.41-0.06,0.68-0.24,0.79-0.52
		c0.12-0.28,0.18-0.99,0.18-2.14c0-0.76-0.09-1.21-0.26-1.36c-0.17-0.15-0.55-0.23-1.14-0.23h-15.53c-0.71,0-1.07,0.34-1.07,1.01
		v1.72C187.74,33.47,187.8,33.83,187.92,34.01z M177.02,56.24c1.41,0,2.19,0.72,2.37,2.17c0.15,1.43,0.37,2.32,0.66,2.69
		c0.29,0.37,1,0.55,2.12,0.55c0.93,0,1.48-0.08,1.65-0.23c0.17-0.15,0.26-0.48,0.26-0.97V48.72c0-0.5-0.09-0.83-0.28-1.01
		c-0.18-0.17-0.71-0.26-1.57-0.26c-1.25,0-1.97,0.16-2.14,0.47c-0.17,0.31-0.36,1.02-0.55,2.12c-0.15,0.97-0.39,1.66-0.73,2.06
		c-0.34,0.4-0.94,0.6-1.8,0.6h-1.65V34.19c0.69-0.06,1.17-0.1,1.43-0.1c0.93,0,1.62,0.22,2.06,0.65c0.44,0.43,0.89,1.28,1.35,2.53
		c0.73,2.05,1.28,3.34,1.62,3.86c0.35,0.52,1.21,0.78,2.59,0.78c1.04,0,1.56-0.35,1.56-1.04c0-0.32-0.04-0.71-0.13-1.17l-1.46-7.2
		c-0.04-0.24-0.08-0.42-0.1-0.55c-0.13-0.76-0.31-1.23-0.55-1.43c-0.24-0.19-0.66-0.29-1.26-0.29h-20.24
		c-0.91,0-1.43,0.45-1.56,1.36c-0.02,0.86-0.03,1.34-0.03,1.43c0,0.82,0.27,1.35,0.81,1.59c0.76,0.32,1.25,0.64,1.48,0.94
		c0.23,0.3,0.34,0.74,0.34,1.3v39.18c0,0.5-0.1,0.87-0.29,1.12c-0.19,0.25-0.69,0.55-1.49,0.89c-0.58,0.26-0.94,0.48-1.05,0.66
		c-0.12,0.18-0.18,0.62-0.18,1.31c0,1.04,0.12,1.72,0.37,2.06c0.25,0.34,0.78,0.5,1.61,0.5h14.82c0.71,0,1.16-0.11,1.35-0.32
		c0.18-0.22,0.28-0.93,0.28-2.14c0-0.78-0.08-1.28-0.24-1.51c-0.16-0.23-0.56-0.43-1.18-0.6c-1.25-0.37-1.88-1.06-1.88-2.08V56.24
		H177.02z M144.4,75.96c0,0.93-0.24,1.77-0.73,2.53c-0.49,0.76-1.13,1.14-1.93,1.14c-0.71,0-1.33-0.34-1.85-1.02
		c-0.52-0.68-0.78-1.68-0.78-3V36.46c0-0.97,0.26-1.79,0.78-2.46c0.52-0.67,1.15-1.01,1.88-1.01c1.75,0,2.63,1.35,2.63,4.05V75.96z
		 M129.98,36.85c-2.93,4.99-4.39,11.52-4.39,19.59c0,7.87,1.43,14.29,4.28,19.26c2.85,4.97,6.76,7.46,11.71,7.46
		c5.21,0,9.25-2.55,12.11-7.64c2.86-5.09,4.3-11.33,4.3-18.73c0-6.16-0.74-11.21-2.21-15.14c-1.47-3.93-3.37-6.97-5.69-9.1
		c-2.32-2.13-5.08-3.19-8.25-3.19C136.86,29.36,132.91,31.85,129.98,36.85z M104.87,33.93c1.45,0,2.51,0.37,3.19,1.12
		c0.68,0.75,1.02,2.03,1.02,3.84v10.44c0,4.3-1.07,6.45-3.21,6.45h-2.11V33.93H104.87z M105.22,59.55c2.57,0,3.86,1.28,3.86,3.83
		v13.07c0,1.73,0.33,3.18,1.01,4.36c0.67,1.18,1.52,1.77,2.56,1.77h8.69c0.65,0,1.05-0.12,1.2-0.36c0.15-0.24,0.23-0.98,0.23-2.24
		c0-0.8-0.29-1.39-0.88-1.78c-0.5-0.32-0.75-0.81-0.75-1.46v-7.72c0-6.27-2.99-10.06-8.98-11.38c6.55-1.97,9.83-6.16,9.83-12.58
		c0-4.52-1.4-8.12-4.2-10.8c-2.8-2.68-5.98-4.02-9.55-4.02H90.3c-0.91,0-1.36,0.84-1.36,2.51c0,0.84,0.06,1.34,0.19,1.51
		c0.13,0.17,0.45,0.34,0.97,0.51c1.04,0.3,1.56,1.16,1.56,2.56v38c0,1.38-0.59,2.32-1.78,2.79c-0.37,0.13-0.58,0.35-0.65,0.66
		c-0.06,0.31-0.1,1.01-0.1,2.09c0,1.12,0.39,1.69,1.16,1.69h13.69c0.6,0,1.02-0.15,1.25-0.44c0.23-0.29,0.34-1.06,0.34-2.32
		c0-0.86-0.29-1.48-0.86-1.85c-0.45-0.28-0.72-0.55-0.81-0.81c-0.1-0.26-0.14-0.77-0.14-1.52V59.55H105.22z M69.32,33.83
		c2.42,0,3.63,1.82,3.63,5.45v16.18c0,1.99-0.31,3.41-0.92,4.26c-0.62,0.85-1.31,1.28-2.09,1.28h-2.27V33.83H69.32z M71.72,64.74
		c1.97,0,3.82-0.36,5.56-1.07c1.74-0.71,3.28-1.63,4.61-2.76c1.33-1.12,2.43-2.88,3.31-5.25c0.88-2.38,1.31-5.09,1.31-8.14
		c0-5.4-1.42-9.64-4.26-12.7c-2.84-3.06-6.65-4.59-11.43-4.59h-16.6c-0.56,0-0.92,0.1-1.09,0.31c-0.16,0.21-0.24,0.63-0.24,1.28
		l0.03,1.52c0.02,0.67,0.33,1.17,0.94,1.49c1.15,0.56,1.72,1.31,1.72,2.24v39.18c0,0.5-0.07,0.85-0.21,1.05
		c-0.14,0.21-0.49,0.39-1.05,0.57c-0.63,0.19-0.99,0.42-1.1,0.66c-0.11,0.25-0.16,0.91-0.16,1.99c0,1.36,0.39,2.04,1.17,2.04H68.9
		c0.71,0,1.19-0.1,1.43-0.31c0.24-0.21,0.36-0.74,0.36-1.61c0-0.91-0.1-1.53-0.31-1.86c-0.21-0.33-0.57-0.6-1.09-0.79
		c-1.08-0.39-1.62-1.21-1.62-2.46v-10.8H71.72z"/>
</g>
</svg>
