<?xml version="1.0" encoding="utf-8"?>
<!-- Generator: Adobe Illustrator 28.4.1, SVG Export Plug-In . SVG Version: 6.00 Build 0)  -->
<svg version="1.1" id="Layer_1" xmlns="http://www.w3.org/2000/svg" xmlns:xlink="http://www.w3.org/1999/xlink" x="0px" y="0px"
	 viewBox="0 0 201 207.89" style="enable-background:new 0 0 201 207.89;" xml:space="preserve">
<style type="text/css">
	.st0{fill:#FEC900;}
	.st1{fill:#FFFFFF;}
</style>
<path d="M156.41,136.2c0.06-3.64-0.13-78.84-0.13-78.84c-4.16,1.65-11-2.19-13.75-4.6c-2.75-2.41-13.49-14.29-25.03-18.15
	c-11.54-3.85-22.21-4.12-28.65-1.99c-6.44,2.13-14.42,5.02-21.67,11.89c-7.25,6.87-16.84,15.54-22.88,12.99v82.35
	c0,0,0,1.65,0.23,4.05h111.67C156.55,140.59,156.37,138.06,156.41,136.2"/>
<path class="st0" d="M50.86,160.4c6.64,5.7,15.9,5.63,18.25,6.05c6.65,0.55,27.58,10.38,31.14,10.38c2.08,0,22.07-7.84,24.01-8.46
	c1.95-0.61,8.32-2.2,10.47-2.4c2.15-0.21,14.29-0.83,18.32-10.39c1.96-4.67,2.79-8.53,3.13-11.68H44.52
	C44.99,148.71,46.43,156.59,50.86,160.4"/>
<path class="st1" d="M104.99,46.55c0,0-9.73-0.21-14.76,2.95c-5.03,3.16-16.5,11.42-24.02,27.15c-7.52,15.75-5.03,30.04,1.21,35.54
	c6.24,5.5,20.6,8.87,37.03-2.61c6.1,5.77,10.33,11.82,24.69,3.99c0,0,10.13-6.73,10.8-8.04v-5.64c0,0-8.52,8.46-13.82,9.07
	c-5.31,0.62-11.27-4.53-12.34-6.87c8.92-9.83,19.99-22.61,20.86-36.29c0.87-13.68-1.34-20.42-15.37-18.9
	c-14.02,1.52-23.68,21.45-20.19,28.32c3.49,6.87,15.16,6.26,16.43-1.23c0,0,0-1.1-1.01-1.17c-1-0.07-5.57-0.48-4.76-5.43
	c0.8-4.94,6.98-15.74,12.34-16.43c5.37-0.69,10.14,3.16,8.33,12.51c-1.68,12.24-8.73,25.5-19.53,35.47
	c-3.22-2.82-12.15-9.96-21.47,0.28c0,0-1.34,1.92,1.61,1.37c2.96-0.55,7.78,1.1,10.47,5.36c-5.9,3.02-13.21,4.88-18.99-0.89
	c-5.77-5.78-3.69-20.76-1.21-26.53c2.48-5.78,8.86-19.46,19.79-27.91C101.1,50.6,106.74,46.62,104.99,46.55"/>
<path class="st0" d="M104.21,45.74c0,0-9.74-0.21-14.77,2.96c-5.03,3.16-16.5,11.42-24.02,27.15c-7.51,15.74-5.03,30.04,1.2,35.54
	c6.24,5.5,20.6,8.86,37.04-2.62c6.11,5.78,10.33,11.83,24.69,3.99c0,0,10.13-6.74,10.8-8.05v-5.64c0,0-8.52,8.46-13.81,9.08
	c-5.31,0.62-11.27-4.54-12.35-6.88c8.93-9.83,19.99-22.61,20.87-36.29c0.87-13.68-1.34-20.41-15.37-18.9
	c-14.02,1.52-23.68,21.45-20.19,28.33c3.49,6.87,15.17,6.25,16.44-1.24c0,0,0-1.1-1.01-1.17c-1.01-0.07-5.57-0.49-4.76-5.43
	c0.8-4.95,6.97-15.74,12.34-16.43c5.37-0.69,10.14,3.16,8.32,12.51c-1.68,12.24-8.72,25.5-19.52,35.47
	c-3.22-2.82-12.15-9.97-21.47,0.28c0,0-1.34,1.92,1.61,1.37c2.95-0.55,7.78,1.1,10.47,5.37c-5.9,3.02-13.22,4.87-18.99-0.9
	c-5.77-5.77-3.69-20.76-1.21-26.53c2.48-5.78,8.86-19.45,19.79-27.91C100.31,49.8,105.95,45.81,104.21,45.74"/>
<path class="st0" d="M76.6,132.64l1.55,1.68c1.06-1.14,1.59-2.56,1.59-4.24c0-1.85-0.59-3.4-1.77-4.65
	c-1.18-1.25-2.65-1.88-4.4-1.88c-1.77,0-3.23,0.63-4.38,1.88c-1.16,1.24-1.73,2.81-1.73,4.71c0,1.85,0.6,3.38,1.79,4.55
	c1.24,1.22,2.65,1.83,4.23,1.83c1.08,0,2.06-0.26,2.93-0.77l-3.04-3.12H76.6z M83.38,139.42h-3.14l-2.06-1.86
	c-1.38,0.92-2.92,1.38-4.62,1.38c-2.2,0-4.15-0.77-5.85-2.32c-1.86-1.7-2.78-3.87-2.78-6.51c0-2.58,0.87-4.75,2.63-6.48
	c1.71-1.68,3.71-2.52,6.03-2.52c2.1,0,3.99,0.73,5.67,2.21c2,1.76,3,4.07,3,6.92c0,2.22-0.79,4.2-2.37,5.93L83.38,139.42z"/>
<path d="M68.9,151.57l0.85,0.93c0.59-0.63,0.87-1.42,0.87-2.34c0-1.02-0.32-1.88-0.98-2.56c-0.65-0.69-1.46-1.04-2.42-1.04
	c-0.97,0-1.78,0.34-2.42,1.04c-0.63,0.67-0.95,1.54-0.95,2.59c0,1.02,0.32,1.86,0.98,2.51c0.69,0.67,1.46,1.01,2.34,1.01
	c0.6,0,1.13-0.14,1.61-0.43l-1.68-1.72H68.9z M72.64,155.32h-1.73l-1.14-1.03c-0.76,0.51-1.61,0.77-2.54,0.77
	c-1.21,0-2.29-0.43-3.23-1.28c-1.02-0.94-1.53-2.13-1.53-3.59c0-1.43,0.48-2.62,1.45-3.56c0.94-0.93,2.05-1.4,3.33-1.4
	c1.16,0,2.2,0.4,3.12,1.22c1.1,0.97,1.66,2.24,1.66,3.81c0,1.22-0.44,2.31-1.31,3.27L72.64,155.32z"/>
<path class="st0" d="M87.92,127.79v6.22c0,1.8,0.79,2.69,2.36,2.69c1.58,0,2.37-0.9,2.37-2.69v-6.22h2.79v6.28
	c0,0.86-0.12,1.61-0.36,2.25c-0.24,0.56-0.64,1.07-1.2,1.53c-0.95,0.73-2.14,1.1-3.6,1.1c-1.45,0-2.64-0.37-3.58-1.1
	c-0.58-0.46-0.99-0.96-1.23-1.53c-0.23-0.5-0.35-1.25-0.35-2.25v-6.28H87.92z"/>
<path class="st0" d="M101.42,138.01H98.8v-10.22h2.61V138.01z M98.41,123.27c0-0.44,0.17-0.82,0.5-1.14
	c0.33-0.32,0.73-0.48,1.19-0.48c0.47,0,0.87,0.16,1.2,0.48c0.34,0.31,0.5,0.69,0.5,1.15c0,0.45-0.17,0.84-0.5,1.16
	c-0.32,0.32-0.72,0.48-1.19,0.48c-0.47,0-0.87-0.16-1.2-0.48C98.58,124.13,98.41,123.73,98.41,123.27"/>
<path class="st0" d="M104.99,127.78h2.82v0.95c0.54-0.48,1.01-0.8,1.39-0.97c0.4-0.19,0.92-0.27,1.54-0.27
	c1.38,0,2.47,0.51,3.27,1.53c0.89-1.02,2.09-1.53,3.6-1.53c2.75,0,4.13,1.41,4.13,4.23v6.39h-2.82v-5.74c0-0.98-0.15-1.68-0.43-2.1
	c-0.29-0.42-0.77-0.62-1.44-0.62c-0.77,0-1.34,0.24-1.69,0.74c-0.36,0.5-0.54,1.29-0.54,2.38v5.33h-2.85v-5.7
	c0-1.84-0.62-2.75-1.87-2.75c-0.79,0-1.37,0.25-1.73,0.75c-0.37,0.5-0.55,1.29-0.55,2.37v5.33h-2.82V127.78z"/>
<path class="st0" d="M126.38,133.18c0,1.07,0.3,1.93,0.91,2.56c0.62,0.64,1.44,0.95,2.47,0.95c1.02,0,1.84-0.31,2.46-0.94
	c0.61-0.63,0.92-1.47,0.92-2.52c0-1.05-0.3-1.89-0.92-2.52c-0.62-0.64-1.44-0.96-2.46-0.96c-1.01,0-1.82,0.32-2.44,0.96
	C126.68,131.35,126.38,132.17,126.38,133.18 M123.71,133.14c0-1.57,0.59-2.9,1.76-4c1.17-1.1,2.6-1.65,4.28-1.65
	c1.68,0,3.12,0.55,4.3,1.66c1.16,1.11,1.74,2.46,1.74,4.08c0,1.63-0.59,2.99-1.76,4.08c-1.17,1.09-2.62,1.64-4.33,1.64
	c-1.69,0-3.12-0.55-4.26-1.67C124.29,136.18,123.71,134.8,123.71,133.14"/>
<path d="M75.81,148.97v3.37c0,0.97,0.42,1.46,1.25,1.46c0.82,0,1.24-0.49,1.24-1.46v-3.37h1.51v3.39c0,0.47-0.07,0.88-0.19,1.22
	c-0.12,0.31-0.34,0.58-0.64,0.82c-0.5,0.39-1.14,0.6-1.91,0.6c-0.78,0-1.41-0.21-1.91-0.6c-0.31-0.25-0.53-0.52-0.66-0.82
	c-0.12-0.27-0.18-0.68-0.18-1.22v-3.39H75.81z"/>
<path d="M83.14,154.83h-1.51v-5.86h1.51V154.83z M81.42,146.56c0-0.23,0.09-0.44,0.28-0.61c0.19-0.17,0.41-0.26,0.67-0.26
	c0.27,0,0.49,0.09,0.68,0.26c0.19,0.17,0.28,0.38,0.28,0.62c0,0.25-0.09,0.46-0.28,0.63c-0.18,0.17-0.41,0.26-0.67,0.26
	c-0.27,0-0.49-0.09-0.68-0.26C81.51,147.02,81.42,146.8,81.42,146.56"/>
<path d="M84.96,148.97h1.51v0.54c0.51-0.46,1.1-0.69,1.75-0.69c0.74,0,1.33,0.21,1.74,0.63c0.36,0.37,0.54,0.97,0.54,1.79v3.58h-1.5
	v-3.26c0-0.58-0.09-0.98-0.26-1.2c-0.17-0.22-0.48-0.34-0.94-0.34c-0.49,0-0.84,0.15-1.04,0.45c-0.2,0.3-0.3,0.81-0.3,1.53v2.83
	h-1.51V148.97z"/>
<path d="M97.35,149.23v1.79c-0.34-0.38-0.64-0.64-0.91-0.77c-0.26-0.15-0.57-0.22-0.92-0.22c-0.56,0-1.02,0.18-1.39,0.54
	c-0.37,0.36-0.55,0.8-0.55,1.34c0,0.55,0.18,1,0.53,1.36c0.36,0.35,0.82,0.52,1.37,0.52c0.36,0,0.67-0.07,0.94-0.21
	c0.27-0.14,0.57-0.41,0.93-0.79v1.79c-0.6,0.28-1.2,0.43-1.8,0.43c-0.99,0-1.82-0.3-2.48-0.88c-0.66-0.59-0.99-1.32-0.99-2.19
	c0-0.88,0.34-1.61,1.01-2.22c0.67-0.6,1.5-0.9,2.48-0.9C96.19,148.82,96.79,148.95,97.35,149.23"/>
<path d="M100,151.89c0,0.56,0.16,1.01,0.48,1.37c0.34,0.36,0.77,0.54,1.28,0.54c0.54,0,0.98-0.17,1.32-0.52
	c0.34-0.36,0.51-0.81,0.51-1.37c0-0.54-0.17-1-0.51-1.35c-0.34-0.36-0.77-0.53-1.31-0.53c-0.51,0-0.93,0.18-1.27,0.54
	C100.16,150.92,100,151.36,100,151.89 M103.48,148.97h1.51v5.86h-1.51v-0.62c-0.6,0.53-1.25,0.8-1.95,0.8
	c-0.88,0-1.61-0.3-2.19-0.88c-0.57-0.6-0.86-1.34-0.86-2.24c0-0.88,0.28-1.61,0.86-2.19c0.57-0.58,1.29-0.87,2.15-0.87
	c0.74,0,1.41,0.27,1.99,0.82V148.97z"/>
<path d="M108.35,154.83h-1.5v-5.86h1.5V154.83z M106.63,146.56c0-0.23,0.09-0.44,0.28-0.61c0.19-0.17,0.41-0.26,0.68-0.26
	c0.26,0,0.49,0.09,0.68,0.26c0.18,0.17,0.29,0.38,0.29,0.62c0,0.25-0.1,0.46-0.29,0.63c-0.18,0.17-0.4,0.26-0.67,0.26
	c-0.26,0-0.49-0.09-0.68-0.26C106.72,147.02,106.63,146.8,106.63,146.56"/>
<rect x="110.2" y="144.68" width="1.51" height="10.15"/>
<rect x="113.55" y="144.68" width="1.51" height="10.15"/>
<path d="M121.21,151.12c-0.2-0.73-0.7-1.09-1.49-1.09l-0.5,0.08l-0.44,0.22l-0.34,0.34l-0.2,0.45H121.21z M122.73,152.23h-4.58
	c0.04,0.48,0.21,0.86,0.52,1.15c0.29,0.28,0.69,0.42,1.16,0.42c0.37,0,0.67-0.08,0.91-0.24c0.24-0.16,0.51-0.45,0.81-0.89l1.25,0.64
	c-0.19,0.3-0.4,0.56-0.61,0.77c-0.21,0.22-0.44,0.39-0.69,0.54c-0.25,0.13-0.52,0.24-0.8,0.3c-0.28,0.06-0.59,0.1-0.92,0.1
	c-0.96,0-1.72-0.28-2.3-0.85c-0.57-0.56-0.87-1.32-0.87-2.25c0-0.92,0.28-1.67,0.84-2.25c0.57-0.56,1.31-0.84,2.25-0.84
	c0.94,0,1.69,0.27,2.23,0.82c0.54,0.55,0.81,1.3,0.81,2.26L122.73,152.23z"/>
<path d="M124.35,148.97h1.51v0.52c0.27-0.26,0.51-0.44,0.72-0.54c0.21-0.09,0.46-0.13,0.75-0.13c0.39,0,0.8,0.11,1.22,0.34
	l-0.68,1.24c-0.28-0.19-0.55-0.28-0.82-0.28c-0.81,0-1.21,0.56-1.21,1.67v3.03h-1.51V148.97z"/>
<path d="M131.1,154.83h-1.5v-5.86h1.5V154.83z M129.37,146.56c0-0.23,0.09-0.44,0.28-0.61c0.19-0.17,0.42-0.26,0.68-0.26
	c0.27,0,0.49,0.09,0.68,0.26c0.19,0.17,0.29,0.38,0.29,0.62c0,0.25-0.09,0.46-0.29,0.63c-0.18,0.17-0.4,0.26-0.67,0.26
	c-0.27,0-0.49-0.09-0.68-0.26C129.46,147.02,129.37,146.8,129.37,146.56"/>
<path d="M137.24,151.12c-0.2-0.73-0.7-1.09-1.49-1.09l-0.5,0.08l-0.43,0.22l-0.34,0.34l-0.21,0.45H137.24z M138.76,152.23h-4.58
	c0.04,0.48,0.21,0.86,0.52,1.15c0.3,0.28,0.69,0.42,1.16,0.42c0.37,0,0.67-0.08,0.91-0.24c0.24-0.16,0.51-0.45,0.81-0.89l1.25,0.64
	c-0.2,0.3-0.4,0.56-0.61,0.77c-0.22,0.22-0.45,0.39-0.69,0.54c-0.25,0.13-0.51,0.24-0.8,0.3s-0.59,0.1-0.92,0.1
	c-0.96,0-1.72-0.28-2.3-0.85c-0.58-0.56-0.87-1.32-0.87-2.25c0-0.92,0.28-1.67,0.84-2.25c0.56-0.56,1.31-0.84,2.25-0.84
	c0.94,0,1.68,0.27,2.23,0.82c0.54,0.55,0.81,1.3,0.81,2.26L138.76,152.23z"/>
<polygon points="72.85,165.46 74.98,155.5 78.46,162.7 82.07,155.5 83.99,165.46 82.41,165.46 81.43,159.87 78.44,165.88 
	75.52,159.86 74.43,165.46 "/>
<path d="M86.08,162.52c0,0.58,0.17,1.05,0.5,1.38c0.35,0.35,0.82,0.52,1.39,0.52c0.57,0,1.04-0.17,1.38-0.51
	c0.35-0.34,0.52-0.8,0.52-1.37c0-0.57-0.17-1.03-0.52-1.37c-0.35-0.34-0.81-0.52-1.38-0.52c-0.56,0-1.02,0.17-1.37,0.52
	C86.25,161.53,86.08,161.97,86.08,162.52 M84.58,162.5c0-0.84,0.33-1.56,0.99-2.15c0.65-0.59,1.46-0.89,2.41-0.89
	c0.96,0,1.76,0.3,2.42,0.9c0.66,0.6,0.99,1.33,0.99,2.2c0,0.87-0.33,1.61-0.99,2.2c-0.66,0.59-1.48,0.88-2.45,0.88
	c-0.96,0-1.75-0.3-2.4-0.9C84.9,164.14,84.58,163.4,84.58,162.5"/>
<path d="M94.17,162.52c0,0.55,0.17,1.01,0.49,1.37c0.35,0.36,0.77,0.54,1.28,0.54c0.54,0,0.99-0.17,1.32-0.52
	c0.34-0.35,0.5-0.81,0.5-1.35c0-0.55-0.17-1.01-0.5-1.36c-0.34-0.35-0.78-0.52-1.31-0.52c-0.51,0-0.93,0.18-1.27,0.53
	C94.34,161.55,94.17,161.99,94.17,162.52 M97.67,156.02h1.5v9.44h-1.5v-0.61c-0.58,0.52-1.24,0.79-1.97,0.79
	c-0.88,0-1.6-0.29-2.18-0.88c-0.57-0.6-0.86-1.34-0.86-2.23c0-0.87,0.29-1.61,0.86-2.18c0.57-0.6,1.28-0.88,2.14-0.88
	c0.75,0,1.41,0.28,2.01,0.84V156.02z"/>
<path d="M105.34,161.75c-0.2-0.72-0.7-1.09-1.49-1.09l-0.51,0.07l-0.43,0.22l-0.34,0.34l-0.21,0.45H105.34z M106.86,162.86h-4.59
	c0.03,0.48,0.21,0.86,0.51,1.14c0.3,0.28,0.69,0.42,1.16,0.42c0.37,0,0.67-0.07,0.92-0.24c0.23-0.17,0.5-0.46,0.81-0.89l1.25,0.64
	c-0.19,0.3-0.4,0.56-0.61,0.77c-0.22,0.22-0.45,0.4-0.7,0.54c-0.24,0.13-0.5,0.24-0.79,0.31c-0.29,0.06-0.6,0.09-0.93,0.09
	c-0.96,0-1.72-0.28-2.3-0.84c-0.58-0.56-0.87-1.32-0.87-2.25c0-0.93,0.28-1.67,0.84-2.25c0.56-0.57,1.31-0.85,2.24-0.85
	c0.95,0,1.69,0.28,2.23,0.82c0.54,0.54,0.81,1.3,0.81,2.27L106.86,162.86z"/>
<path d="M108.48,159.6h1.5v0.52c0.27-0.25,0.51-0.43,0.72-0.52c0.22-0.1,0.47-0.14,0.75-0.14c0.39,0,0.8,0.11,1.22,0.34l-0.67,1.24
	c-0.28-0.19-0.55-0.28-0.82-0.28c-0.8,0-1.21,0.56-1.21,1.67v3.03h-1.5V159.6z"/>
<path d="M113.69,159.6h1.5v0.55c0.52-0.47,1.11-0.69,1.76-0.69c0.75,0,1.33,0.21,1.75,0.64c0.36,0.36,0.54,0.96,0.54,1.78v3.59h-1.5
	v-3.27c0-0.57-0.09-0.97-0.26-1.19c-0.17-0.22-0.48-0.33-0.93-0.33c-0.49,0-0.84,0.15-1.04,0.44c-0.2,0.3-0.3,0.8-0.3,1.53v2.83
	h-1.5V159.6z"/>
<path d="M125.4,161.75c-0.2-0.72-0.7-1.09-1.49-1.09l-0.51,0.07l-0.44,0.22l-0.33,0.34l-0.21,0.45H125.4z M126.92,162.86h-4.58
	c0.03,0.48,0.21,0.86,0.51,1.14s0.69,0.42,1.16,0.42c0.37,0,0.67-0.07,0.92-0.24c0.23-0.17,0.5-0.46,0.8-0.89l1.25,0.64
	c-0.19,0.3-0.39,0.56-0.61,0.77c-0.21,0.22-0.44,0.4-0.69,0.54c-0.25,0.13-0.51,0.24-0.8,0.31c-0.29,0.06-0.59,0.09-0.92,0.09
	c-0.96,0-1.72-0.28-2.3-0.84c-0.58-0.56-0.87-1.32-0.87-2.25c0-0.93,0.28-1.67,0.84-2.25c0.56-0.57,1.31-0.85,2.25-0.85
	c0.94,0,1.69,0.28,2.23,0.82c0.54,0.54,0.81,1.3,0.81,2.27L126.92,162.86z"/>
</svg>
