<?xml version="1.0" encoding="utf-8"?>
<!-- Generator: Adobe Illustrator 28.4.1, SVG Export Plug-In . SVG Version: 6.00 Build 0)  -->
<svg version="1.1" id="Layer_1" xmlns="http://www.w3.org/2000/svg" xmlns:xlink="http://www.w3.org/1999/xlink" x="0px" y="0px"
	 viewBox="0 0 201 207.89" style="enable-background:new 0 0 201 207.89;" xml:space="preserve">
<style type="text/css">
	.st0{fill:#E52D12;}
	.st1{fill:#404644;}
</style>
<g>
	<path class="st0" d="M14.07,101.57v-23.1H35.4c13.27,0.33,13.95,15.25,1.66,16.51l8.38,6.57h-7.75l-8.56-6.44l-9.22-0.02v6.47
		H14.07z M19.91,83.45v6.91h14.67c6.07-0.04,6.34-6.99,0-6.91H19.91z M56.17,85.05V95c0.08,1.05,0.68,1.68,1.89,1.81h14.91
		c1.14-0.09,1.78-0.7,1.89-1.81v-9.95c-0.1-1.11-0.75-1.7-1.89-1.82H58.06C56.82,83.33,56.26,83.99,56.17,85.05 M50.48,95.22V84.78
		c0.13-3.52,2.36-5.91,5.92-6.3h18.22c3.39,0.29,5.67,2.7,5.92,6.3v10.44c-0.21,3.97-2.85,6.18-6.82,6.35H57.3
		C53.03,101.19,50.67,98.89,50.48,95.22 M155.27,101.57v-23.1h21.33c13.27,0.33,13.95,15.25,1.66,16.51l8.38,6.57h-7.75l-8.56-6.44
		l-9.22-0.02v6.47H155.27z M161.11,83.45v6.91h14.67c6.07-0.04,6.34-6.99,0-6.91H161.11z M120.24,101.57v-23.1h29.37v4.77H126v4.03
		h17.61v4.88H126v4.63h24.46v4.78H120.24z"/>
	<path class="st1" d="M13.96,112.69h4.55c0.62,0,1.06,0.13,1.32,0.37c0.27,0.24,0.4,0.68,0.4,1.34l-0.01,0.31l-0.03,0.34l-0.11,0.49
		l-0.22,0.39l-0.44,0.28c-0.17,0.05-0.34,0.09-0.52,0.11l-0.22,0l-0.21,0.01h-3.8v2.32h-0.7V112.69z M14.67,115.71h3.38
		c0.54,0,0.92-0.06,1.13-0.19c0.22-0.13,0.33-0.5,0.33-1.09c0-0.4-0.08-0.69-0.22-0.86c-0.15-0.17-0.43-0.26-0.84-0.26h-3.78V115.71
		z"/>
	<path class="st1" d="M30.38,112.69h0.7v4.11c0,0.91-0.19,1.44-0.56,1.61c-0.37,0.17-0.95,0.26-1.75,0.28h-0.02h-0.02
		c-0.19,0.01-0.38,0.01-0.58,0.01h-0.59c-0.27,0-0.55,0-0.83,0c-0.28-0.01-0.56-0.01-0.83-0.02c-0.57-0.02-0.99-0.16-1.25-0.4
		c-0.27-0.24-0.4-0.66-0.4-1.25v-4.34h0.7v4.25c0,0.52,0.12,0.83,0.35,0.94c0.23,0.11,0.58,0.17,1.03,0.18l1.24,0.01l1.35-0.03
		c0.48-0.01,0.84-0.07,1.08-0.18c0.24-0.11,0.36-0.44,0.36-0.98v-0.14V112.69z"/>
	<polygon class="st1" points="36.11,113.29 36.11,115.26 40.97,115.26 40.97,115.85 36.11,115.85 36.11,118.04 41.21,118.04 
		41.21,118.64 35.41,118.64 35.41,112.69 41.15,112.69 41.15,113.29 	"/>
	<path class="st1" d="M45.36,112.69h4.48c0.65,0,1.14,0.12,1.47,0.34c0.33,0.22,0.49,0.7,0.49,1.43c0,0.52-0.08,0.97-0.23,1.17
		c-0.15,0.2-0.49,0.35-1,0.42c0.34,0.04,0.61,0.13,0.82,0.26c0.21,0.13,0.31,0.32,0.31,0.71v1.61h-0.69v-1.32
		c0-0.45-0.1-0.66-0.29-0.8c-0.19-0.13-0.51-0.2-0.93-0.2h-3.72v2.32h-0.7V112.69z M46.06,115.71h3.65c0.49,0,0.84-0.07,1.05-0.22
		c0.21-0.16,0.32-0.57,0.32-1.07c0-0.5-0.12-0.81-0.36-0.93c-0.24-0.12-0.58-0.18-1.02-0.18h-3.63V115.71z"/>
	<polygon class="st1" points="58.98,113.29 58.98,118.64 58.28,118.64 58.28,113.29 55.36,113.29 55.36,112.69 61.92,112.69 
		61.92,113.29 	"/>
	<path class="st1" d="M70.45,117.3h-4.68l-0.74,1.34h-0.83l3.42-5.95h0.94l3.45,5.95h-0.81L70.45,117.3z M70.12,116.7l-2.02-3.49
		l-2,3.49H70.12z"/>
	<path class="st1" d="M81.99,114.43h-0.7l-0.01-0.12l-0.01-0.14l-0.09-0.44l-0.25-0.25c-0.12-0.06-0.27-0.1-0.47-0.13
		c-0.2-0.03-0.41-0.05-0.62-0.06l-0.42-0.01l-0.38-0.01h-0.24c-0.13,0.01-0.28,0.01-0.47,0.02c-0.18,0-0.37,0.02-0.57,0.03
		c-0.21,0.02-0.41,0.04-0.61,0.08c-0.2,0.03-0.36,0.08-0.49,0.14l-0.29,0.3l-0.09,0.42v0.05v0.05c0,0.39,0.11,0.64,0.32,0.75
		s0.49,0.17,0.82,0.19l0.16,0.01l0.17,0h0.15h0.16h0.34l0.34-0.01h0.34h0.34h0.3l0.31,0.01l0.3,0.02l0.3,0.03
		c0.53,0.06,0.92,0.2,1.16,0.42c0.24,0.22,0.36,0.62,0.36,1.18c0,0.33-0.05,0.62-0.15,0.88c-0.1,0.25-0.31,0.45-0.62,0.6
		c-0.17,0.08-0.38,0.14-0.62,0.17c-0.24,0.03-0.49,0.05-0.73,0.07l-0.4,0.01l-0.38,0.01h-0.46l-0.44-0.01l-0.44-0.01l-0.45-0.02
		l-0.44-0.04c-0.61-0.08-1-0.25-1.19-0.51c-0.18-0.26-0.27-0.77-0.27-1.38l0.7-0.01v0.13v0.02v0.01c0.01,0.23,0.03,0.5,0.08,0.67
		c0.04,0.17,0.19,0.3,0.44,0.37c0.14,0.04,0.3,0.07,0.49,0.09c0.19,0.02,0.38,0.04,0.58,0.05c0.17,0.01,0.35,0.01,0.52,0.01
		s0.33,0.01,0.46,0.01l0.27-0.01l0.27,0c0.19-0.01,0.37-0.02,0.55-0.03c0.18-0.01,0.36-0.03,0.54-0.06
		c0.33-0.04,0.57-0.14,0.73-0.28c0.15-0.15,0.23-0.39,0.23-0.74c0-0.46-0.11-0.73-0.34-0.83c-0.22-0.1-0.53-0.15-0.94-0.16
		l-1.33-0.03l-0.16,0.01l-0.16-0.01c-0.21,0-0.42,0-0.62-0.01c-0.21-0.01-0.42-0.01-0.62-0.03c-0.5-0.03-0.91-0.14-1.23-0.32
		c-0.32-0.18-0.47-0.54-0.47-1.09c0-0.36,0.06-0.69,0.18-0.97c0.12-0.29,0.36-0.5,0.71-0.64c0.16-0.06,0.35-0.11,0.57-0.14
		c0.22-0.04,0.45-0.06,0.69-0.07c0.21-0.02,0.41-0.03,0.61-0.03c0.2,0,0.38,0,0.53,0l0.42,0l0.44,0.01l0.42,0.02l0.42,0.04
		c0.51,0.05,0.88,0.21,1.1,0.47C81.87,113.45,81.99,113.92,81.99,114.43L81.99,114.43z"/>
	<polygon class="st1" points="108.69,113.29 105.07,118.64 104.5,118.64 100.89,113.29 100.89,118.64 100.18,118.64 100.18,112.69 
		101.33,112.69 104.79,117.79 108.26,112.69 109.39,112.69 109.39,118.64 108.69,118.64 	"/>
	<polygon class="st1" points="114.47,113.29 114.47,115.26 119.33,115.26 119.33,115.85 114.47,115.85 114.47,118.04 119.57,118.04 
		119.57,118.64 113.77,118.64 113.77,112.69 119.51,112.69 119.51,113.29 	"/>
	<polygon class="st1" points="126.74,113.29 126.74,118.64 126.04,118.64 126.04,113.29 123.12,113.29 123.12,112.69 129.68,112.69 
		129.68,113.29 	"/>
	<path class="st1" d="M139.16,117.3h-4.68l-0.74,1.34h-0.83l3.42-5.95h0.94l3.45,5.95h-0.81L139.16,117.3z M138.83,116.7l-2.02-3.49
		l-2,3.49H138.83z M136.2,112.28l0.99-1.13l0.84,0l-1.31,1.12L136.2,112.28z"/>
	<polygon class="st1" points="145.04,118.04 149.62,118.04 149.62,118.64 144.34,118.64 144.34,112.69 145.04,112.69 	"/>
	<rect x="153.6" y="112.69" class="st1" width="0.71" height="5.95"/>
	<path class="st1" d="M164.9,116.53h0.73c0,0.73-0.1,1.39-0.31,1.68s-0.75,0.45-1.62,0.47l-1.49,0.03h-0.16l-0.16,0.01h-0.16h-0.16
		c-0.21,0-0.43-0.01-0.64-0.01c-0.21-0.01-0.43-0.02-0.64-0.05c-0.51-0.05-0.89-0.21-1.13-0.49c-0.25-0.28-0.38-0.68-0.41-1.2
		l-0.02-0.29l-0.01-0.28l-0.01-0.28v-0.29v-0.35l0.01-0.35c0.01-0.17,0.02-0.35,0.03-0.52c0.01-0.17,0.03-0.35,0.06-0.52
		c0.11-0.54,0.31-0.9,0.61-1.07c0.3-0.17,0.69-0.27,1.18-0.31c0.17-0.02,0.35-0.03,0.52-0.04c0.18-0.01,0.36-0.01,0.53-0.02h0.27
		h0.27h0.21l0.21-0.01h0.21h0.21c0.25,0,0.51,0.01,0.75,0.02c0.25,0.01,0.5,0.05,0.75,0.1c0.47,0.09,0.76,0.32,0.86,0.68
		c0.1,0.36,0.16,0.74,0.18,1.16l-0.7-0.01v-0.05l0-0.18l-0.01-0.21l-0.08-0.38l-0.2-0.27c-0.1-0.07-0.27-0.12-0.49-0.15
		c-0.23-0.04-0.47-0.05-0.72-0.06l-0.38-0.01l-0.36,0c-0.32,0-0.64,0-0.95,0c-0.32,0-0.63,0.02-0.95,0.05
		c-0.5,0.04-0.82,0.14-0.96,0.28c-0.14,0.15-0.23,0.46-0.29,0.96l-0.03,0.37l-0.01,0.37l-0.01,0.39v0.37c0,0.63,0.06,1.12,0.17,1.47
		c0.12,0.35,0.52,0.52,1.23,0.52c0.23,0.01,0.45,0.01,0.68,0.01c0.23,0.01,0.45,0.01,0.68,0.01l1.29-0.03
		c0.48-0.01,0.83-0.06,1.07-0.17c0.24-0.11,0.36-0.57,0.36-1.1V116.53z"/>
	<path class="st1" d="M175.28,117.3h-4.68l-0.74,1.34h-0.83l3.43-5.95h0.94l3.45,5.95h-0.81L175.28,117.3z M174.95,116.7l-2.02-3.49
		l-2,3.49H174.95z"/>
	<path class="st1" d="M186.82,114.43h-0.7l-0.01-0.22l-0.01-0.14l-0.09-0.35l-0.25-0.25c-0.12-0.06-0.27-0.1-0.47-0.13
		c-0.2-0.03-0.4-0.04-0.62-0.06l-0.42-0.01l-0.38,0h-0.24c-0.13,0.01-0.28,0.01-0.47,0.02c-0.18,0.01-0.37,0.02-0.57,0.04
		c-0.21,0.02-0.41,0.04-0.61,0.07c-0.2,0.03-0.36,0.08-0.49,0.14l-0.29,0.3l-0.09,0.42v0.05v0.05c0,0.39,0.11,0.64,0.32,0.75
		c0.21,0.11,0.49,0.17,0.82,0.19l0.16,0.01l0.16,0h0.16h0.16h0.34l0.34-0.01h0.34h0.34h0.3l0.31,0.01l0.3,0.02l0.3,0.03
		c0.53,0.06,0.92,0.2,1.16,0.42c0.24,0.23,0.36,0.62,0.36,1.18c0,0.33-0.05,0.62-0.15,0.88c-0.1,0.25-0.31,0.45-0.63,0.6
		c-0.17,0.08-0.38,0.14-0.62,0.17c-0.24,0.03-0.48,0.06-0.73,0.07l-0.4,0.01l-0.38,0.01h-0.46l-0.44-0.01l-0.44-0.01l-0.45-0.02
		l-0.44-0.04c-0.61-0.08-1-0.25-1.19-0.51c-0.18-0.26-0.27-0.77-0.27-1.38l0.7-0.01v0.2v0.02v0.01c0.01,0.23,0.03,0.43,0.08,0.6
		c0.04,0.17,0.19,0.3,0.44,0.38c0.14,0.04,0.3,0.07,0.49,0.09c0.19,0.02,0.38,0.04,0.57,0.05c0.17,0.01,0.35,0.01,0.52,0.01
		c0.18,0,0.33,0.01,0.46,0.01l0.27-0.01l0.27,0c0.19-0.01,0.37-0.02,0.55-0.03c0.18-0.01,0.36-0.03,0.54-0.06
		c0.33-0.04,0.57-0.14,0.73-0.28c0.15-0.15,0.23-0.39,0.23-0.74c0-0.46-0.11-0.73-0.33-0.83c-0.22-0.1-0.54-0.15-0.94-0.16
		l-1.33-0.03l-0.16,0.01l-0.16-0.01c-0.21,0-0.42,0-0.63-0.01c-0.21-0.01-0.41-0.01-0.62-0.03c-0.5-0.03-0.91-0.14-1.23-0.32
		c-0.32-0.18-0.47-0.54-0.47-1.08c0-0.36,0.06-0.69,0.18-0.98c0.12-0.29,0.36-0.5,0.71-0.64c0.16-0.06,0.36-0.11,0.58-0.14
		c0.22-0.04,0.45-0.06,0.69-0.07c0.21-0.02,0.41-0.03,0.61-0.03c0.2,0,0.38,0,0.53,0l0.42,0l0.44,0.01l0.42,0.02l0.42,0.04
		c0.51,0.05,0.88,0.21,1.1,0.47C186.71,113.45,186.82,113.93,186.82,114.43L186.82,114.43z"/>
	<polygon class="st1" points="69.71,129.39 69.3,129.39 69.3,126.05 67.96,129.39 67.56,129.39 66.21,126.08 66.21,129.39 
		65.82,129.39 65.82,125.76 66.5,125.76 67.76,128.87 69.01,125.76 69.71,125.76 	"/>
	<path class="st1" d="M74.31,126.06l-0.78,2.23h1.57L74.31,126.06z M73.43,128.62l-0.27,0.77h-0.42l1.29-3.63h0.57l1.32,3.63H75.5
		l-0.28-0.77H73.43z"/>
	<path class="st1" d="M80.49,129.04c0.26,0,0.61,0,0.78-0.23c0.19-0.25,0.2-0.67,0.2-1v-0.18c0-0.29,0-0.58-0.04-0.86
		c-0.07-0.56-0.4-0.65-0.87-0.65h-1.24v2.92H80.49z M78.94,125.76h1.64c1.06,0,1.3,0.53,1.3,1.55v0.35c0,0.91-0.09,1.73-1.2,1.73
		h-1.74V125.76z"/>
	<polygon class="st1" points="84.93,125.76 84.93,129.39 87.21,129.39 87.21,129.04 85.32,129.04 85.32,127.7 87.13,127.7 
		87.13,127.35 85.32,127.35 85.32,126.12 87.21,126.12 87.21,125.76 	"/>
	<rect x="94.51" y="125.75" class="st1" width="0.4" height="3.64"/>
	<polygon class="st1" points="101.29,129.39 100.64,129.39 98.64,126.11 98.64,129.39 98.26,129.39 98.26,125.76 98.91,125.76 
		100.9,129.07 100.9,125.76 101.29,125.76 	"/>
	<path class="st1" d="M110.8,126.75c-0.03-0.54-0.14-0.67-0.69-0.67h-0.19c-0.2,0-0.57,0.01-0.73,0.11
		c-0.16,0.1-0.19,0.33-0.19,0.51c0,0.4,0.08,0.6,0.53,0.63c0.89,0.07,1.73-0.15,1.73,1c0,0.56-0.08,0.99-0.72,1.06
		c-0.22,0.02-0.45,0.03-0.68,0.03c-0.74,0-1.27-0.07-1.27-0.98c0-0.06,0.01-0.12,0.01-0.17h0.38c0,0.66,0.11,0.8,0.76,0.8h0.34
		c0.58,0,0.78-0.07,0.78-0.68c0-0.49-0.09-0.6-0.55-0.62c-0.87-0.05-1.7,0.08-1.7-1.03c0-0.88,0.47-0.99,1.21-0.99h0.1
		c0.74,0,1.27,0.04,1.27,0.97v0.05H110.8z"/>
	<path class="st1" d="M115.73,127.62c0.63,0,0.9-0.04,0.9-0.74c0-0.52-0.06-0.77-0.59-0.77c-0.06,0-0.12,0.01-0.18,0.01h-1.08v1.5
		H115.73z M114.4,125.76h1.47h0.18c0.24,0,0.52,0.01,0.7,0.18c0.26,0.24,0.29,0.62,0.29,0.95c0,0.28-0.02,0.61-0.23,0.82
		c-0.27,0.28-0.65,0.24-1.01,0.25h-1.03v1.42h-0.39V125.76z"/>
	<path class="st1" d="M121.13,126.06l-0.78,2.23h1.57L121.13,126.06z M120.24,128.62l-0.27,0.77h-0.42l1.29-3.63h0.57l1.32,3.63
		h-0.42l-0.28-0.77H120.24z"/>
	<rect x="125.75" y="125.75" class="st1" width="0.4" height="3.64"/>
	<polygon class="st1" points="132.52,129.39 131.87,129.39 129.88,126.11 129.88,129.39 129.49,129.39 129.49,125.76 130.14,125.76 
		132.14,129.07 132.14,125.76 132.52,125.76 	"/>
	<path class="st0" d="M105.89,90.36H91.22v-6.91h14.67C111.78,83.2,112.48,89.97,105.89,90.36 M106.71,78.48H85.38v23.1h5.84V95.1
		l15.49,0.09C121.22,94.47,120.24,78.48,106.71,78.48"/>
</g>
</svg>
