<?xml version="1.0" encoding="utf-8"?>
<!-- Generator: Adobe Illustrator 28.4.1, SVG Export Plug-In . SVG Version: 6.00 Build 0)  -->
<svg version="1.1" id="Layer_1" xmlns="http://www.w3.org/2000/svg" xmlns:xlink="http://www.w3.org/1999/xlink" x="0px" y="0px"
	 viewBox="0 0 201 207.89" style="enable-background:new 0 0 201 207.89;" xml:space="preserve">
<style type="text/css">
	.st0{fill:#F07E28;}
</style>
<g>
	<path class="st0" d="M40.65,121.44v1.23c0,1.04,0.82,1.88,1.83,1.88h11.81c1.01,0,1.83-0.84,1.83-1.88V88.14
		c0-0.5-0.19-0.98-0.53-1.33l-2.85-2.92c-0.34-0.35-0.81-0.55-1.3-0.55H20.57c-0.49,0-0.95,0.2-1.29,0.55l-2.85,2.92
		c-0.34,0.35-0.54,0.83-0.54,1.33v34.54c0,1.04,0.82,1.88,1.83,1.88h11.82c1.01,0,1.83-0.84,1.83-1.88v-1.23
		c0-1.04-0.82-1.87-1.83-1.87h-6.95c-1.01,0-1.83-0.84-1.83-1.88V92.32c0-0.5,0.19-0.97,0.54-1.32l2.08-2.13
		c0.34-0.35,0.81-0.55,1.29-0.55h6.04h16.65c0.49,0,0.95,0.2,1.3,0.55L50.72,91c0.34,0.35,0.53,0.83,0.53,1.32v25.37
		c0,1.04-0.82,1.88-1.83,1.88h-6.95C41.46,119.57,40.65,120.41,40.65,121.44 M30.7,91.26h-5.24c-1.01,0-1.83,0.84-1.83,1.87v21.61
		c0,1.04,0.82,1.88,1.83,1.88h6.95c1.01,0,1.83,0.84,1.83,1.87v7.12c0,1.04-0.82,1.87-1.83,1.87H14.85c-1.01,0-1.83-0.84-1.83-1.87
		V86.61c0-0.5,0.19-0.98,0.54-1.33l4.23-4.34c0.34-0.35,0.81-0.55,1.3-0.55h33.85c0.49,0,0.95,0.2,1.29,0.55l4.23,4.33
		c0.34,0.35,0.54,0.83,0.54,1.33v39.01c0,1.04-0.82,1.87-1.83,1.87H39.6c-1.01,0-1.83-0.84-1.83-1.87v-7.12
		c0-1.04,0.82-1.87,1.83-1.87h6.95c1.01,0,1.83-0.84,1.83-1.88V93.14c0-1.04-0.82-1.87-1.83-1.87H30.7z"/>
	<path d="M90.37,116.11h9.8v-6.47h-9.8V116.11z M100.17,108.49v-9.57H88.3c-1.14,0-2.07-0.95-2.07-2.12c0-1.17,0.93-2.12,2.07-2.12
		h14.21c1,0,1.8,0.83,1.8,1.85v1.92v20.04c0,1.03-0.82,1.87-1.82,1.87H88.05c-1.01,0-1.82-0.84-1.82-1.87v-11.24
		c0-1.02,0.81-1.85,1.81-1.85h8.77c0.22,0,0.43,0.09,0.58,0.25L100.17,108.49z"/>
	<path d="M142.01,98.92h-9.8v6.47h9.8V98.92z M135.23,109.64l-3.02-3.1v9.57h11.87c1.14,0,2.07,0.95,2.07,2.12s-0.93,2.12-2.07,2.12
		h-12.34h-1.7c-1.09,0-1.98-0.91-1.98-2.03V94.68h16.27c1,0,1.81,0.83,1.81,1.86v1.91v9.33c0,1.03-0.81,1.86-1.81,1.86H135.23z"/>
	<path d="M81.33,98.92H69.45v8.59c0,1.17-0.92,2.12-2.07,2.12c-1.14,0-2.07-0.95-2.07-2.12v-9.07c0-2.08,1.65-3.77,3.68-3.77h12.34
		c1.14,0,2.07,0.95,2.07,2.12C83.4,97.97,82.47,98.92,81.33,98.92"/>
	<path d="M109.22,80.39L109.22,80.39c1.14,0,2.07,0.95,2.07,2.12v44.98H67.38c-1.14,0-2.07-0.95-2.07-2.12v0
		c0-1.17,0.93-2.12,2.07-2.12h39.77V82.51C107.15,81.34,108.07,80.39,109.22,80.39"/>
	<path d="M153.12,96.8v19.31h11.87c1.14,0,2.07,0.95,2.07,2.12c0,1.17-0.93,2.12-2.07,2.12h-14.2c-1,0-1.81-0.83-1.81-1.86V96.8
		c0-1.17,0.93-2.12,2.07-2.12h0C152.19,94.68,153.12,95.63,153.12,96.8"/>
	<path d="M65.31,118.23L65.31,118.23c0-1.17,0.93-2.12,2.07-2.12h11.87v-6.47h-6.64c-1.14,0-2.07-0.95-2.07-2.12
		s0.93-2.12,2.07-2.12h8.97c1,0,1.81,0.83,1.81,1.86v1.91v9.33c0,1.03-0.81,1.86-1.82,1.86h-14.2
		C66.24,120.35,65.31,119.4,65.31,118.23"/>
	<path d="M185.91,127.49h-64.82V98.92h-6.64c-1.14,0-2.07-0.95-2.07-2.12c0-1.17,0.93-2.12,2.07-2.12h7.11l3.68,3.77v24.8h60.68
		c1.14,0,2.07,0.95,2.07,2.12C187.98,126.54,187.05,127.49,185.91,127.49"/>
	<path d="M162.92,103.95v-5.02h-6.64c-1.14,0-2.07-0.95-2.07-2.12c0-1.17,0.93-2.12,2.07-2.12h8.97c1,0,1.82,0.83,1.82,1.86v1.91
		v5.5c0,1.17-0.93,2.12-2.07,2.12h0C163.85,106.07,162.92,105.12,162.92,103.95"/>
	<path d="M169.9,118.23V98.45v-1.91c0-1.03,0.81-1.85,1.81-1.85h12.86c1.89,0,3.42,1.57,3.42,3.5v0.26v20.05
		c0,1.02-0.81,1.86-1.81,1.86l-1.87,0h-7.11c-1.14,0-2.07-0.95-2.07-2.12v0c0-1.17,0.93-2.12,2.07-2.12h6.65V98.92h-9.8v19.31
		c0,1.17-0.92,2.12-2.07,2.12h0C170.82,120.35,169.9,119.4,169.9,118.23"/>
</g>
</svg>
