<?xml version="1.0" encoding="utf-8"?>
<!-- Generator: Adobe Illustrator 28.4.1, SVG Export Plug-In . SVG Version: 6.00 Build 0)  -->
<svg version="1.1" id="Layer_1" xmlns="http://www.w3.org/2000/svg" xmlns:xlink="http://www.w3.org/1999/xlink" x="0px" y="0px"
	 viewBox="0 0 201 207.89" style="enable-background:new 0 0 201 207.89;" xml:space="preserve">
<style type="text/css">
	.st0{fill:#E52329;}
</style>
<g>
	<path class="st0" d="M129.47,73.35l0.88,0.04c-2.7-11.77-9.7-16.39-9.7-16.39l-4.31,5.46l0.69,0.71l3.87-4.63
		C120.91,58.53,126.35,62.21,129.47,73.35 M120.28,54.33c7.42,5.99,12.17,15.28,12.17,25.7c0,18.09-14.31,32.74-31.95,32.74
		c-1.36,0-2.69-0.09-4.01-0.26c5.86-0.77,11.45-3.81,15.37-8.95c7.85-10.29,6.15-25.15-3.81-33.26L120.28,54.33z"/>
	<path class="st0" d="M71.84,86.64l-0.88-0.05c2.51,11.82,9.41,16.56,9.41,16.56l4.41-5.38l-0.68-0.71l-3.93,4.56
		C80.16,101.61,74.77,97.83,71.84,86.64 M68.54,80.03c0-18.07,14.31-32.74,31.96-32.74c1.35,0,2.69,0.09,4,0.26
		c-5.86,0.76-11.44,3.8-15.37,8.95c-7.85,10.31-6.15,25.16,3.82,33.27l-12.24,15.97C73.3,99.74,68.54,90.45,68.54,80.03"/>
	<path class="st0" d="M28.24,160.53c-5.66,0-9.59-1.98-11.78-5.96c-0.9-1.64-1.36-3.92-1.36-6.87h5.41c0,5.05,2.65,7.58,7.95,7.58
		c4.92,0,7.39-1.61,7.39-4.84c0-2.15-1.7-3.69-5.07-4.63c-3.2-0.8-6.36-1.62-9.52-2.45c-3.42-1.49-5.13-4.09-5.13-7.78
		c0-3.42,1.14-6.08,3.42-8c2.14-1.78,4.93-2.66,8.35-2.66c8.45,0,12.67,3.96,12.67,11.86h-5.48c0-4.4-2.33-6.6-6.98-6.6
		c-4.25,0-6.37,1.59-6.37,4.77c0,1.83,0.89,2.97,2.67,3.44l9.65,2.31c4.93,1.22,7.39,4.32,7.39,9.32c0,3.6-1.36,6.33-4.11,8.21
		C35.01,159.76,31.98,160.53,28.24,160.53"/>
	<path class="st0" d="M64.88,159.61v-3.24c-3.1,3.03-6.48,4.23-10.27,4.23c-3.23,0-5.83-0.82-7.8-2.45
		c-2.14-1.72-3.21-4.23-3.21-7.51c0-5.61,3.11-9.07,9.31-10.38c0.45-0.1,2.4-0.28,5.82-0.56c2.69-0.23,4.49-0.61,5.4-1.12
		c0.96-0.51,1.44-1.62,1.44-3.3c0-3.78-2.53-5.68-7.61-5.68c-4.47,0-7,2.17-7.59,6.52h-5.14c0-7.48,4.45-11.22,13.35-11.22
		c3.42,0,6.25,0.68,8.49,2.03c2.65,1.69,3.97,4.16,3.97,7.44v25.24H64.88z M65.36,142.51c-1.46,0.66-2.72,1.08-3.76,1.26
		c-1.6,0.19-3.2,0.39-4.79,0.63c-2.2,0.33-3.88,0.87-5.07,1.61c-1.55,0.98-2.32,2.36-2.32,4.14c0,3.78,1.91,5.68,5.74,5.68
		c1.92,0,3.77-0.45,5.55-1.34c1.95-0.93,3.34-2.2,4.17-3.78C65.15,150.2,65.31,147.46,65.36,142.51"/>
	<path class="st0" d="M118.21,159.62h-5.54v-22.51c0-4.72-1.99-7.09-5.95-7.09c-2.38,0-4.28,0.87-5.69,2.6
		c-1.41,1.73-2.12,3.86-2.12,6.38v20.61h-5.61v-24.05c0-1.68-0.48-3.01-1.44-4c-0.95-0.98-2.23-1.47-3.83-1.47
		c-2.6,0-4.68,1.03-6.23,3.09c-1.5,2.01-2.26,4.37-2.26,7.08v19.35h-5.61v-33.73h5.27v4.7c0.23-0.19,0.63-0.71,1.23-1.55
		c2.05-2.76,4.95-4.14,8.69-4.14c2.19,0,3.94,0.42,5.27,1.26c1.32,0.8,2.51,2.17,3.56,4.14c2.01-2.05,3.44-3.37,4.32-3.93
		c1.55-0.98,3.4-1.47,5.55-1.47c3.46,0,6.11,1.11,7.94,3.29c1.64,2.06,2.46,4.92,2.46,8.56V159.62z"/>
	<path class="st0" d="M150.57,144.61h-24.04c0,7.39,3.08,11.08,9.25,11.08c2.19,0,4.11-0.59,5.75-1.76
		c1.69-1.17,2.67-2.81,2.95-4.91h5.68c-0.55,3.55-2.17,6.38-4.86,8.48c-2.7,2.06-5.82,3.09-9.38,3.09c-5.07,0-8.95-1.63-11.64-4.9
		c-2.51-3.05-3.76-7.23-3.76-12.56c0-5.33,1.3-9.63,3.9-12.91c2.83-3.55,6.82-5.33,11.97-5.33c5.12,0,8.85,2.08,11.23,6.24
		C149.59,134.47,150.57,138.95,150.57,144.61 M144.75,139.98c0-2.98-0.71-5.37-2.12-7.15c-1.55-1.87-3.76-2.81-6.64-2.81
		c-2.7,0-4.95,0.96-6.78,2.88c-1.78,1.91-2.68,4.28-2.68,7.08H144.75z"/>
	<polygon class="st0" points="166.42,131.22 166.42,159.62 160.74,159.62 160.74,131.22 150.2,131.22 150.2,125.82 177.1,125.82 
		177.1,131.22 	"/>
	<path class="st0" d="M180.44,126.42c-0.57,0.59-0.86,1.29-0.86,2.12c0,0.83,0.29,1.54,0.86,2.13c0.57,0.58,1.25,0.88,2.07,0.88
		c0.81,0,1.5-0.3,2.07-0.88c0.56-0.59,0.85-1.3,0.85-2.13c0-0.83-0.29-1.53-0.85-2.12c-0.57-0.58-1.26-0.88-2.07-0.88
		S181.01,125.84,180.44,126.42 M184.91,131.02c-0.66,0.68-1.47,1.02-2.41,1.02c-0.95,0-1.75-0.34-2.41-1.02
		c-0.65-0.69-0.98-1.51-0.98-2.47c0-0.96,0.33-1.78,0.99-2.46c0.66-0.67,1.46-1.02,2.4-1.02c0.94,0,1.74,0.34,2.41,1.02
		c0.66,0.68,0.99,1.5,0.99,2.46C185.9,129.51,185.58,130.33,184.91,131.02 M183.15,127.22c-0.17-0.1-0.44-0.14-0.79-0.14h-0.56v1.38
		h0.6c0.27,0,0.48-0.03,0.61-0.09c0.26-0.11,0.39-0.31,0.39-0.6C183.39,127.51,183.31,127.32,183.15,127.22 M182.43,126.62
		c0.47,0,0.8,0.04,1.02,0.13c0.4,0.16,0.59,0.49,0.59,0.97c0,0.35-0.13,0.59-0.37,0.76l-0.55,0.19c0.3,0.05,0.52,0.17,0.65,0.38
		l0.2,0.59v0.28l0.02,0.29l0.03,0.19l0.03,0.05h-0.62l-0.01-0.04l-0.01-0.04l-0.01-0.12v-0.31c0-0.44-0.12-0.73-0.35-0.88
		c-0.14-0.08-0.39-0.13-0.73-0.13h-0.52v1.51h-0.66v-3.82H182.43z"/>
</g>
</svg>
