<?xml version="1.0" encoding="utf-8"?>
<!-- Generator: Adobe Illustrator 28.4.1, SVG Export Plug-In . SVG Version: 6.00 Build 0)  -->
<svg version="1.1" id="Layer_1" xmlns="http://www.w3.org/2000/svg" xmlns:xlink="http://www.w3.org/1999/xlink" x="0px" y="0px"
	 viewBox="0 0 201 207.89" style="enable-background:new 0 0 201 207.89;" xml:space="preserve">
<style type="text/css">
	.st0{fill:#C01F2E;}
	.st1{fill:#7F8285;}
	.st2{fill:none;stroke:#C01F2E;stroke-width:0.9425;stroke-miterlimit:10;}
</style>
<g>
	<polygon class="st0" points="150.96,105.57 150.96,107.47 136.73,107.47 136.73,86.89 150.59,86.89 150.59,88.8 138.87,88.8 
		138.87,96.13 149.29,96.13 149.29,97.94 138.87,97.94 138.87,105.57 	"/>
	<path class="st0" d="M67.53,106.9c-1.39-0.48-2.42-1.14-3.16-1.9l0.84-1.72c0.74,0.76,1.67,1.34,2.88,1.81
		c1.21,0.47,2.42,0.66,3.72,0.66c1.77,0,3.16-0.38,4.09-1.05c0.93-0.67,1.4-1.53,1.4-2.67c0-0.86-0.28-1.53-0.74-2
		c-0.47-0.48-1.12-0.86-1.77-1.14c-0.74-0.29-1.67-0.57-2.97-0.86c-1.49-0.38-2.7-0.76-3.63-1.14c-0.93-0.38-1.68-0.95-2.32-1.62
		c-0.65-0.76-0.93-1.71-0.93-3.05c0-1.05,0.28-2,0.84-2.86c0.56-0.86,1.39-1.53,2.51-2.1c1.11-0.48,2.51-0.76,4.18-0.76
		c1.12,0,2.23,0.19,3.35,0.48c1.12,0.29,2.05,0.76,2.88,1.33l-0.74,1.72c-0.83-0.57-1.77-0.95-2.7-1.24
		c-0.93-0.29-1.86-0.38-2.79-0.38c-1.77,0-3.07,0.38-4,1.05c-0.93,0.67-1.3,1.62-1.3,2.67c0,0.86,0.28,1.52,0.75,2
		c0.47,0.48,1.11,0.86,1.86,1.14c0.74,0.29,1.77,0.57,2.98,0.86c1.49,0.38,2.7,0.76,3.63,1.14c0.93,0.38,1.67,0.95,2.32,1.62
		c0.65,0.66,0.93,1.71,0.93,2.95c0,1.05-0.28,2-0.84,2.86c-0.56,0.86-1.39,1.52-2.51,2c-1.12,0.48-2.51,0.76-4.19,0.76
		C70.32,107.66,68.92,107.47,67.53,106.9"/>
	<polygon class="st0" points="93.38,88.7 86.31,88.7 86.31,86.8 102.59,86.8 102.59,88.7 95.52,88.7 95.52,107.47 93.38,107.47 	"/>
	<polygon class="st0" points="125.94,105.57 125.94,107.47 111.71,107.47 111.71,86.89 125.57,86.89 125.57,88.8 113.85,88.8 
		113.85,96.13 124.27,96.13 124.27,97.94 113.85,97.94 113.85,105.57 	"/>
	<polygon class="st0" points="159.42,86.89 161.56,86.89 161.56,105.66 172.82,105.66 172.82,107.57 159.42,107.57 	"/>
	<polygon class="st0" points="186.96,100.32 186.96,107.47 184.82,107.47 184.82,100.32 176.73,86.8 178.96,86.8 185.84,98.42 
		192.72,86.8 194.86,86.8 	"/>
	<path class="st1" d="M69.94,118.71L68.27,115l-1.68,3.72H69.94z M70.22,119.29h-3.81l-0.83,1.81h-0.74l3.07-6.95h0.74l3.07,6.95
		h-0.65L70.22,119.29z"/>
	<path class="st1" d="M82.69,120.72c-0.56-0.29-0.93-0.76-1.3-1.24c-0.28-0.57-0.46-1.14-0.46-1.81s0.19-1.24,0.46-1.81
		c0.28-0.57,0.74-0.95,1.3-1.24c0.56-0.29,1.12-0.48,1.86-0.48c0.47,0,0.93,0.1,1.4,0.29c0.47,0.19,0.74,0.38,1.11,0.76l-0.46,0.48
		c-0.56-0.57-1.21-0.86-2.05-0.86c-0.56,0-1.02,0.1-1.49,0.38c-0.47,0.29-0.75,0.57-1.02,1.05c-0.28,0.47-0.37,0.95-0.37,1.43
		c0,0.57,0.09,1.05,0.37,1.43c0.28,0.47,0.56,0.76,1.02,1.05c0.47,0.29,0.93,0.38,1.49,0.38c0.84,0,1.49-0.29,2.05-0.86l0.46,0.48
		c-0.28,0.29-0.65,0.57-1.11,0.76c-0.47,0.19-0.93,0.29-1.4,0.29C83.81,121.19,83.25,121.1,82.69,120.72"/>
	<path class="st1" d="M98.22,120.72c-0.56-0.29-0.93-0.76-1.3-1.24c-0.28-0.57-0.46-1.14-0.46-1.81s0.19-1.24,0.46-1.81
		c0.28-0.57,0.74-0.95,1.3-1.24c0.56-0.29,1.12-0.48,1.86-0.48c0.47,0,0.93,0.1,1.4,0.29c0.47,0.19,0.74,0.38,1.11,0.76l-0.46,0.48
		c-0.56-0.57-1.21-0.86-2.05-0.86c-0.56,0-1.02,0.1-1.49,0.38c-0.47,0.29-0.75,0.57-1.02,1.05c-0.28,0.47-0.37,0.95-0.37,1.43
		c0,0.57,0.09,1.05,0.37,1.43c0.28,0.47,0.56,0.76,1.02,1.05c0.47,0.29,0.93,0.38,1.49,0.38c0.84,0,1.49-0.29,2.05-0.86l0.46,0.48
		c-0.28,0.29-0.65,0.57-1.11,0.76c-0.47,0.19-0.93,0.29-1.4,0.29C99.43,121.19,98.78,121.1,98.22,120.72"/>
	<polygon class="st1" points="117.66,120.53 117.66,121.19 112.82,121.19 112.82,114.24 117.47,114.24 117.47,114.9 113.57,114.9 
		113.57,117.38 117.1,117.38 117.1,118.05 113.57,118.05 113.57,120.62 117.66,120.62 	"/>
	<path class="st1" d="M128.45,121c-0.47-0.19-0.84-0.38-1.12-0.67l0.28-0.57c0.28,0.29,0.56,0.48,1.02,0.57
		c0.37,0.19,0.84,0.19,1.3,0.19c0.65,0,1.02-0.1,1.39-0.38c0.28-0.19,0.47-0.57,0.47-0.86c0-0.29-0.09-0.48-0.28-0.67
		c-0.19-0.19-0.37-0.29-0.65-0.38c-0.28-0.1-0.56-0.19-1.02-0.29c-0.47-0.1-0.93-0.29-1.21-0.38c-0.28-0.1-0.56-0.29-0.75-0.57
		c-0.19-0.29-0.28-0.57-0.28-1.05c0-0.38,0.09-0.67,0.28-0.95c0.19-0.29,0.47-0.48,0.84-0.67c0.37-0.19,0.84-0.29,1.39-0.29
		c0.37,0,0.74,0.1,1.12,0.19c0.37,0.1,0.65,0.29,0.93,0.48l-0.28,0.57c-0.28-0.19-0.56-0.38-0.93-0.48
		c-0.28-0.1-0.65-0.19-0.93-0.19c-0.56,0-1.02,0.1-1.3,0.38c-0.28,0.19-0.47,0.57-0.47,0.95c0,0.29,0.09,0.48,0.28,0.67
		c0.19,0.19,0.37,0.28,0.65,0.38c0.28,0.1,0.56,0.19,1.02,0.29c0.47,0.1,0.93,0.29,1.21,0.38c0.28,0.1,0.56,0.29,0.74,0.57
		c0.19,0.29,0.28,0.57,0.28,1.05c0,0.38-0.09,0.66-0.28,0.95c-0.19,0.29-0.47,0.48-0.84,0.67c-0.37,0.19-0.84,0.29-1.39,0.29
		C129.38,121.19,128.92,121.1,128.45,121"/>
	<path class="st1" d="M143.15,121c-0.47-0.19-0.84-0.38-1.12-0.67l0.28-0.57c0.28,0.29,0.56,0.48,1.02,0.57
		c0.37,0.19,0.84,0.19,1.3,0.19c0.65,0,1.02-0.1,1.4-0.38c0.28-0.19,0.47-0.57,0.47-0.86c0-0.29-0.09-0.48-0.28-0.67
		c-0.19-0.19-0.37-0.29-0.65-0.38c-0.28-0.1-0.56-0.19-1.02-0.29c-0.47-0.1-0.93-0.29-1.21-0.38c-0.28-0.1-0.56-0.29-0.75-0.57
		c-0.19-0.29-0.28-0.57-0.28-1.05c0-0.38,0.09-0.67,0.28-0.95c0.19-0.29,0.47-0.48,0.84-0.67c0.37-0.19,0.84-0.29,1.39-0.29
		c0.37,0,0.74,0.1,1.12,0.19c0.37,0.1,0.65,0.29,0.93,0.48l-0.28,0.57c-0.28-0.19-0.56-0.38-0.93-0.48
		c-0.28-0.1-0.65-0.19-0.93-0.19c-0.56,0-1.02,0.1-1.3,0.38c-0.28,0.19-0.47,0.57-0.47,0.95c0,0.29,0.09,0.48,0.28,0.67
		c0.19,0.19,0.37,0.28,0.65,0.38c0.28,0.1,0.56,0.19,1.02,0.29c0.47,0.1,0.93,0.29,1.21,0.38c0.28,0.1,0.56,0.29,0.74,0.57
		c0.19,0.29,0.28,0.57,0.28,1.05c0,0.38-0.09,0.66-0.28,0.95c-0.19,0.29-0.47,0.48-0.84,0.67c-0.37,0.19-0.84,0.29-1.4,0.29
		C144.08,121.19,143.61,121.1,143.15,121"/>
	<path class="st1" d="M161.84,120.14c0.47-0.29,0.74-0.57,1.02-1.05c0.28-0.48,0.37-0.95,0.37-1.43c0-0.57-0.09-1.05-0.37-1.43
		c-0.28-0.48-0.56-0.76-1.02-1.05c-0.47-0.29-0.93-0.38-1.49-0.38c-0.56,0-1.02,0.1-1.49,0.38s-0.74,0.57-1.02,1.05
		c-0.28,0.47-0.37,0.95-0.37,1.43c0,0.57,0.09,1.05,0.37,1.43c0.28,0.47,0.56,0.76,1.02,1.05s0.93,0.38,1.49,0.38
		C160.91,120.52,161.38,120.43,161.84,120.14 M158.59,120.72c-0.56-0.29-0.93-0.76-1.3-1.24c-0.28-0.57-0.46-1.14-0.46-1.81
		s0.19-1.24,0.46-1.81c0.28-0.57,0.74-0.95,1.3-1.24c0.56-0.29,1.12-0.48,1.86-0.48c0.65,0,1.3,0.19,1.86,0.48
		c0.56,0.29,0.93,0.76,1.3,1.24c0.28,0.57,0.47,1.14,0.47,1.81s-0.19,1.24-0.47,1.81c-0.28,0.57-0.74,0.95-1.3,1.24
		c-0.56,0.29-1.12,0.48-1.86,0.48C159.7,121.19,159.15,121.1,158.59,120.72"/>
	<path class="st1" d="M178.4,117.86c0.37-0.29,0.56-0.76,0.56-1.24c0-0.57-0.19-0.95-0.56-1.34c-0.37-0.29-0.84-0.48-1.58-0.48
		h-1.77v3.53h1.77C177.47,118.33,178.02,118.14,178.4,117.86 M178.96,121.19l-1.58-2.19h-0.56h-1.86v2.19h-0.65v-6.96h2.51
		c0.83,0,1.58,0.19,2.05,0.67c0.47,0.38,0.74,1.05,0.74,1.72c0,0.57-0.09,1.05-0.37,1.33c-0.28,0.38-0.65,0.67-1.12,0.76l1.68,2.38
		h-0.84V121.19z"/>
	<polygon class="st1" points="192.26,118.71 192.26,121.1 191.51,121.1 191.51,118.71 188.82,114.14 189.56,114.14 191.98,118.14 
		194.3,114.24 195.05,114.24 	"/>
	<path class="st0" d="M12.28,126.15L12.28,126.15c-3.54,0-6.33-2.86-6.33-6.48v-14.39c3.54,0,6.33,2.86,6.33,6.48V126.15z"/>
	<path class="st0" d="M38.41,102.71L38.41,102.71c-3.54,0-6.33-2.86-6.33-6.48V81.74c3.54,0,6.33,2.86,6.33,6.48V102.71z"/>
	<path class="st0" d="M19.07,126.15L19.07,126.15V88.32c0-3.62,2.79-6.48,6.33-6.48v37.83C25.39,123.19,22.51,126.15,19.07,126.15"
		/>
	<line class="st2" x1="52.37" y1="76.22" x2="52.37" y2="131.67"/>
</g>
</svg>
