<?xml version="1.0" encoding="utf-8"?>
<!-- Generator: Adobe Illustrator 28.4.1, SVG Export Plug-In . SVG Version: 6.00 Build 0)  -->
<svg version="1.1" id="Layer_1" xmlns="http://www.w3.org/2000/svg" xmlns:xlink="http://www.w3.org/1999/xlink" x="0px" y="0px"
	 viewBox="0 0 201 207.89" style="enable-background:new 0 0 201 207.89;" xml:space="preserve">
<style type="text/css">
	
		.st0{clip-path:url(#SVGID_00000037656690423229408680000003455436598804387209_);fill:url(#SVGID_00000072262410701904990420000007167331443854075278_);}
	
		.st1{clip-path:url(#SVGID_00000163063435781969704700000015151256546802491273_);fill:none;stroke:#FFFFFF;stroke-width:1.427;stroke-miterlimit:3.864;}
	.st2{clip-path:url(#SVGID_00000163063435781969704700000015151256546802491273_);}
	.st3{clip-path:url(#SVGID_00000163063435781969704700000015151256546802491273_);fill:#FFFFFF;}
</style>
<g>
	<g>
		<defs>
			<path id="SVGID_1_" d="M43.57,27c-0.71,0-1.29,0.59-1.29,1.32v116.35c0,0.73,0.58,1.32,1.29,1.32h113.64
				c0.71,0,1.29-0.59,1.29-1.32V28.32c0-0.73-0.58-1.32-1.29-1.32H43.57z"/>
		</defs>
		<clipPath id="SVGID_00000127758326581728051730000008355107771692713088_">
			<use xlink:href="#SVGID_1_"  style="overflow:visible;"/>
		</clipPath>
		
			<linearGradient id="SVGID_00000056408251082523794750000003414720668002210460_" gradientUnits="userSpaceOnUse" x1="-516.8856" y1="541.9019" x2="-512.571" y2="541.9019" gradientTransform="matrix(29.8604 25.0559 25.0559 -29.8604 1892.4443 29164.7676)">
			<stop  offset="0" style="stop-color:#A3CCEE"/>
			<stop  offset="0.0221" style="stop-color:#A3CCEE"/>
			<stop  offset="1" style="stop-color:#005CA9"/>
		</linearGradient>
		
			<polygon style="clip-path:url(#SVGID_00000127758326581728051730000008355107771692713088_);fill:url(#SVGID_00000056408251082523794750000003414720668002210460_);" points="
			90.3,-31.63 215.7,76.16 110.48,204.62 -14.92,96.83 		"/>
	</g>
	<g>
		<defs>
			<rect id="SVGID_00000015347807720412174480000007727791236548010416_" x="36.94" y="26.64" width="126.83" height="159.35"/>
		</defs>
		<clipPath id="SVGID_00000009561465456368101130000000854552648615423885_">
			<use xlink:href="#SVGID_00000015347807720412174480000007727791236548010416_"  style="overflow:visible;"/>
		</clipPath>
		
			<path style="clip-path:url(#SVGID_00000009561465456368101130000000854552648615423885_);fill:none;stroke:#FFFFFF;stroke-width:1.427;stroke-miterlimit:3.864;" d="
			M42.28,28.32c0-0.73,0.58-1.32,1.29-1.32h113.63c0.71,0,1.29,0.59,1.29,1.32v116.36c0,0.73-0.58,1.32-1.29,1.32H43.57
			c-0.71,0-1.29-0.59-1.29-1.32V28.32z"/>
		<path style="clip-path:url(#SVGID_00000009561465456368101130000000854552648615423885_);" d="M45.85,174.63l-3.58,9.67h3.4
			l1.19-3.48l5.71,0l1.16,3.48h3.48l-0.53-1.46c1.23,1.25,3.12,1.83,5.09,1.83c3.06,0,5.05-1.17,5.89-2.93
			c1.07,2.01,3.43,2.93,5.91,2.92c2.4,0,4.14-0.72,5.18-1.88l-0.56,1.52h3.4l1.19-3.49l5.71,0l1.16,3.5h3.49l-3.54-9.67h-3.23
			l1.25,3.62l-3.96,0l1.25-3.62h-3.14l-1.86,5.02c-0.01-3.55-3.42-4.27-4.53-4.54c-0.7-0.19-1.29-0.34-1.79-0.48l-5.72,0
			c0.68,1.69,2.47,2.35,4.26,2.83c2.25,0.61,4.53,0.9,4.54,2.58c0,1.6-1.79,1.95-2.98,1.95c-1.79,0-3.37-0.81-3.38-2.88l-2.22,0
			c-0.33-3.07-3.44-3.74-4.5-4c-0.7-0.18-1.29-0.34-1.79-0.48h-5.72c0.68,1.7,2.48,2.36,4.27,2.84c2.25,0.61,4.53,0.9,4.53,2.58
			c0,1.6-1.79,1.94-2.96,1.95c-1.8,0-3.38-0.81-3.38-2.88h-3.21l-1.64-4.48h-3.22l1.25,3.63h-3.96l1.26-3.63H45.85z M99.27,174.63
			l-3.58,9.67h3.4l1.19-3.49l5.7,0l1.15,3.48h3.49l6.98,0c2.75-0.01,5.38-1.38,5.38-4.54c0-1.95-0.95-3.41-2.81-3.96
			c0.61-0.3,1.1-0.69,1.45-1.18l-3.3,0c-0.36,0.25-0.83,0.36-1.37,0.36l-3.4,0v-0.37h-3.36l0,8.51l-3.12-8.51h-3.23l1.25,3.63h-3.95
			l1.25-3.63H99.27z M123.48,174.63v9.67h9.73l0-1.98c1.28,1.45,3.15,2.34,5.5,2.34c4.72,0,7.5-3.61,7.49-8.12
			c0-0.66-0.05-1.3-0.16-1.91h-3.39c0.14,0.61,0.21,1.25,0.21,1.9c0,2.61-1.13,5.23-4.14,5.24c-3.02,0-4.15-2.63-4.15-5.23
			c0-0.65,0.06-1.3,0.2-1.91l-3.39,0c-0.11,0.61-0.16,1.25-0.16,1.91c0,1.82,0.46,3.49,1.32,4.84l-5.69,0l0-6.76H123.48z
			 M147.36,174.63l2.11,3.56v6.11h3.36v-6.02l2.15-3.65h-3.66l-0.12,0.2l-0.11-0.2H147.36z M117.15,181.62h-3.59v-4.29h3.66
			c1.43,0,2.41,0.64,2.41,2.23C119.63,181.19,118.47,181.62,117.15,181.62"/>
		<path style="clip-path:url(#SVGID_00000009561465456368101130000000854552648615423885_);" d="M48.99,174.63l0.73-2.1l0.72,2.1
			h3.23l-2.18-5.95h-3.44l-2.2,5.95H48.99z M61.79,174.63c-2.27-0.62-2.76-0.9-2.76-1.88c0-1.31,1.24-1.78,2.3-1.77
			c1.61,0,2.91,0.48,3.02,2.36h3.23c0.03,0.49,0.13,0.92,0.28,1.3h5.72c-2.27-0.62-2.76-0.9-2.76-1.89c0-1.31,1.24-1.77,2.31-1.77
			c1.61,0,2.91,0.48,3.01,2.36h3.25c0-3.61-2.93-5.03-6.11-5.03c-2.73,0-5.63,1.5-5.7,4.61c-0.23-3.29-3.04-4.6-6.1-4.6
			c-2.75,0-5.7,1.54-5.7,4.73c0,0.62,0.11,1.14,0.29,1.6H61.79z M84.91,174.63l0.73-2.11l0.73,2.11h3.22l-2.18-5.95h-3.44
			l-2.21,5.95H84.91z M102.41,174.63l0.73-2.1l0.72,2.1h3.23l-2.18-5.95h-3.44l-2.2,5.95H102.41z M113.56,174.63l0-3.29h3.14
			c1.19,0,2.31,0.31,2.31,1.79c0,0.71-0.26,1.2-0.68,1.49l3.3,0c0.41-0.57,0.62-1.26,0.63-2.09c0-2.91-1.97-3.87-4.88-3.86h-7.18
			l0,5.95H113.56z M126.83,174.63l0-5.95h-3.35v5.95H126.83z M134.76,174.63c0.44-1.92,1.65-3.45,3.94-3.45
			c2.3,0,3.5,1.52,3.95,3.45l3.39,0c-0.66-3.68-3.28-6.34-7.34-6.34c-4.05,0-6.67,2.66-7.34,6.34L134.76,174.63z M151.09,174.63
			l-3.46-5.95h-3.79l3.52,5.95H151.09z M154.97,174.63l3.51-5.95l-3.74,0l-3.43,5.95H154.97z M37.7,154.38v2.97c0,0.79,0.3,1,0.97,1
			l123.26,0v2.97h0.98v-2.96c0-0.74-0.28-1.01-0.99-1.01l-123.24,0v-2.97H37.7z"/>
		<path style="clip-path:url(#SVGID_00000009561465456368101130000000854552648615423885_);fill:#FFFFFF;" d="M68.79,106.07
			l11.79,0.89v2.14l-8.9-0.45v11.64l-2.89,0.2V106.07z M68.06,106.07l-11.79,0.89v2.14l8.89-0.45v11.64l2.89,0.2V106.07z
			 M138.96,114.47h-12.57v5.34h-3.07l0-8.19c0-2.82,0.76-4.65,4.58-4.65h14.12v12.85h-3.07V114.47z M138.96,109.11h-10.6
			c-1.72,0-1.97,1.01-1.97,2.1c0,0-0.01-0.02-0.01,1.09h12.57V109.11z M120.9,112.29v2.86c0,2.81-0.77,4.65-4.58,4.65h-13.58v-2.15
			h13.12c1.71,0,1.97-1.01,1.97-2.11c0,0,0,0.02,0-1.08h-15.1v-2.86c0-2.82,0.77-4.66,4.58-4.66h13.58v2.15h-13.12
			c-1.72,0-1.98,1.01-1.98,2.1l0,1.08H120.9z M99.82,114.47H85.36l0,3.19h15.09v2.15H82.29v-12.85h18.17v2.15h-15.1v3.18h14.46
			V114.47z"/>
	</g>
</g>
</svg>
