<?xml version="1.0" encoding="utf-8"?>
<!-- Generator: Adobe Illustrator 28.4.1, SVG Export Plug-In . SVG Version: 6.00 Build 0)  -->
<svg version="1.1" id="Calque_1" xmlns="http://www.w3.org/2000/svg" xmlns:xlink="http://www.w3.org/1999/xlink" x="0px" y="0px"
	 viewBox="0 0 1066.28 795.83" style="enable-background:new 0 0 1066.28 795.83;" xml:space="preserve">
<style type="text/css">
	.st0{fill:#FF0000;}
</style>
<g id="XMLID_4_">
	<g id="XMLID_5_">
		<g id="XMLID_26_">
			<path id="XMLID_29_" d="M703.93,154.14c7.33-11.71,18.41-31.98,33.17-60.87C751.57,64.94,766.7,33.84,782.43,0H477.63
				L640.3,271.08L703.93,154.14z"/>
			<path id="XMLID_28_" class="st0" d="M242.25,0.75v521.7h312.33C495.39,421.36,439.7,327.11,387.4,239.78
				C337.31,156.04,288.96,76.49,242.25,0.75z"/>
			<path id="XMLID_27_" d="M737.47,182.17c-65.3,116.35-126.35,229.8-182.89,340.28h280.96V0h-0.71
				C830.23,14.07,797.86,74.75,737.47,182.17z"/>
		</g>
		<g id="XMLID_6_">
			<path id="XMLID_20_" d="M230.55,640H394.1v58.7l-15.6-11.75v58.11l15.97-12.95v63.73H230.55V640z M320.3,718.96v73.61
				l57.77-47.12L320.3,718.96z M320.67,643.48v73.58l57.21-30.72L320.67,643.48z"/>
			<path id="XMLID_18_" d="M426.67,640h179.77v70.09l-44.82-63.16h-0.39v148.9h-89.41v-148.9h-0.43l-44.74,63.33V640z"/>
			<g id="XMLID_15_">
				<rect id="XMLID_17_" x="641.13" y="640" width="87.27" height="155.83"/>
				<path id="XMLID_16_" d="M834.78,760.06c0-13.95-4.41-24.9-13.26-32.79c-2.09-2.05-4.18-3.67-6.34-4.87
					c-2.12-1.18-5.22-2.48-9.32-3.87c4.56-2.03,7.97-3.75,10.21-5.1c2.28-1.39,4.49-3.21,6.73-5.45c7.7-7.47,11.49-16.9,11.49-28.34
					c0-4.89-0.85-9.56-2.59-14.04c-1.74-4.48-4.21-8.45-7.46-11.85c-3.75-3.89-8.35-7.06-13.96-9.5c-2.59-1.06-5.68-1.93-9.12-2.63
					c-3.44-0.7-7.74-1.14-12.76-1.33c-5.07-0.2-11.64-0.3-19.8-0.3h-23.31v155.83h89.51V760.06z"/>
			</g>
			<g id="XMLID_11_">
				<polygon id="XMLID_14_" points="0,640.87 67.14,795.6 136.69,795.76 150.38,761.54 97.83,640.87 				"/>
				<polygon id="XMLID_13_" points="198.61,640.86 116.58,640.87 149.91,718.21 159.19,739.51 				"/>
				<polygon id="XMLID_12_" points="159.19,739.51 149.91,718.21 159.13,739.63 				"/>
			</g>
			<g id="XMLID_7_">
				<polygon id="XMLID_10_" points="1066.28,795.37 999.12,640.62 929.59,640.47 915.9,674.71 968.45,795.37 				"/>
				<polygon id="XMLID_9_" points="867.65,795.37 949.7,795.37 916.36,718.02 907.08,696.73 				"/>
				<polygon id="XMLID_8_" points="907.08,696.73 916.36,718.02 907.12,696.59 				"/>
			</g>
		</g>
	</g>
</g>
</svg>
