<?xml version="1.0" encoding="utf-8"?>
<!-- Generator: Adobe Illustrator 28.4.1, SVG Export Plug-In . SVG Version: 6.00 Build 0)  -->
<svg version="1.1" id="Layer_1" xmlns="http://www.w3.org/2000/svg" xmlns:xlink="http://www.w3.org/1999/xlink" x="0px" y="0px"
	 viewBox="0 0 201 207.89" style="enable-background:new 0 0 201 207.89;" xml:space="preserve">
<style type="text/css">
	
		.st0{clip-path:url(#SVGID_00000183237054177328212390000001991956530640365448_);fill:url(#SVGID_00000004543444738634849120000013090581097008358547_);}
	.st1{clip-path:url(#SVGID_00000153685398514780110890000013665044626679486887_);}
</style>
<g>
	<defs>
		<path id="SVGID_1_" d="M27.03,103.58v0.84c0.22,41.3,32.97,74.7,73.33,74.7c40.5,0,73.33-33.63,73.33-75.12
			c0-41.49-32.83-75.12-73.33-75.12C60,28.88,27.25,62.28,27.03,103.58"/>
	</defs>
	<clipPath id="SVGID_00000129925840490400470610000018032779863198457779_">
		<use xlink:href="#SVGID_1_"  style="overflow:visible;"/>
	</clipPath>
	
		<linearGradient id="SVGID_00000116923499260062839530000000746018178876899488_" gradientUnits="userSpaceOnUse" x1="-516.9515" y1="537.0194" x2="-512.97" y2="537.0194" gradientTransform="matrix(0.1178 -32.8129 32.8129 0.1178 -17460.1348 -16847.916)">
		<stop  offset="0" style="stop-color:#FBBA00"/>
		<stop  offset="0.3125" style="stop-color:#FFCE00"/>
		<stop  offset="0.5" style="stop-color:#FFD500"/>
		<stop  offset="0.6672" style="stop-color:#FFD800"/>
		<stop  offset="0.9304" style="stop-color:#FFE021"/>
		<stop  offset="1" style="stop-color:#FFE22F"/>
	</linearGradient>
	
		<polygon style="clip-path:url(#SVGID_00000129925840490400470610000018032779863198457779_);fill:url(#SVGID_00000116923499260062839530000000746018178876899488_);" points="
		173.69,179.66 174.22,28.88 27.03,28.34 26.51,179.12 	"/>
</g>
<polygon points="73.15,76.55 61.5,99.17 49.78,76.55 40.17,76.55 57.07,107.69 57.07,127.03 65.79,127.03 65.79,107.83 82.7,76.55 
	"/>
<g>
	<defs>
		<rect id="SVGID_00000036950333120462923600000007473253343181569711_" x="23.86" y="25.63" width="153" height="156.74"/>
	</defs>
	<clipPath id="SVGID_00000016773460125140332600000006806667613972383134_">
		<use xlink:href="#SVGID_00000036950333120462923600000007473253343181569711_"  style="overflow:visible;"/>
	</clipPath>
	<path style="clip-path:url(#SVGID_00000016773460125140332600000006806667613972383134_);" d="M82.74,116
		c0-1.47,0.55-2.72,1.71-3.49c0.95-0.63,2.45-0.84,5.31-0.84h7.29v3.49c0,3.91-3.41,5.72-7.97,5.72
		C84.04,120.88,82.74,118.65,82.74,116 M75.72,101.76h8.45c0.21-3.21,1.91-5.38,6.34-5.38c5.11,0,6.54,2.51,6.54,6.35v2.37h-7.7
		c-4.97,0-8.11,0.63-10.43,2.17c-3,1.95-4.63,4.82-4.63,8.94c0,5.3,3.13,11.38,12.94,11.38c4.77,0,8.18-1.6,10.22-4.26v3.63h8.04
		v-24.08c0-7.89-4.23-13.75-14.93-13.75C80.77,89.12,76.13,94.49,75.72,101.76"/>
	<path style="clip-path:url(#SVGID_00000016773460125140332600000006806667613972383134_);" d="M135.32,98.54
		c1.36-1.54,3.34-2.37,5.93-2.37c2.52,0,4.5,0.84,5.79,2.3c1.43,1.61,1.91,4.33,1.91,6.35h-15.81
		C133.21,102.73,133.89,100.15,135.32,98.54 M128.3,94.63c-3.27,4.12-4.02,9.85-4.02,13.96c0,3.98,0.68,8.87,3.34,12.71
		c2.66,3.84,7.02,6.29,13.97,6.29c4.63,0,8.31-1.12,10.9-3.08c2.8-2.09,4.57-5.16,4.84-8.58h-8.45c-0.2,1.19-0.89,2.37-1.91,3.14
		c-1.22,0.91-2.93,1.33-5.38,1.33c-3.34,0-5.59-1.05-6.96-3c-1.09-1.54-1.57-3.98-1.57-6.15h24.6c0.48-6.84-0.68-12.7-3.89-16.68
		c-2.72-3.35-6.88-5.45-12.61-5.45C134.98,89.12,130.89,91.42,128.3,94.63"/>
	<path style="clip-path:url(#SVGID_00000016773460125140332600000006806667613972383134_);" d="M110.3,76.55v38.96
		c0,7.14,2.56,11.78,11.63,11.78c0.51,0,1.04-0.02,1.59-0.05v-7.75c-0.22,0.01-0.43,0.02-0.63,0.02c-3.43,0-4.34-1.67-4.34-4.84
		V76.55H110.3"/>
</g>
</svg>
